<svg width="756" height="275" viewBox="0 0 756 275" fill="none" xmlns="http://www.w3.org/2000/svg">
<path d="M310.293 29.9078C334.301 40.0821 376.049 58.6985 409.754 78.5457C411.052 79.3104 412.366 80.1169 413.681 80.9504" stroke="black" stroke-width="0.99953"/>
<path d="M415.869 78.2059L422.213 86.6849L411.966 84.0129L415.869 78.2059Z" fill="black" stroke="black" stroke-width="0.99953"/>
<path d="M298.376 41.3977C301.75 50.1004 305.795 60.5344 309.515 70.1294" stroke="black" stroke-width="0.99953"/>
<path d="M312.88 69.1328L313.231 79.7168L306.356 71.6618L312.88 69.1328Z" fill="black" stroke="black" stroke-width="0.99953"/>
<path d="M271.496 29.9346C247.697 40.1359 206.307 58.7793 172.865 78.5457C171.568 79.3124 170.255 80.1208 168.941 80.9557" stroke="black" stroke-width="0.99953"/>
<path d="M170.657 84.0174L160.411 86.6947L166.751 78.2123L170.657 84.0174Z" fill="black" stroke="black" stroke-width="0.99953"/>
<path d="M275.085 35.7076C261.451 47.697 241.535 65.2109 226.067 78.8136" stroke="black" stroke-width="0.99953"/>
<path d="M228.256 81.5468L218.44 85.5204L223.636 76.2927L228.256 81.5468Z" fill="black" stroke="black" stroke-width="0.99953"/>
<path d="M283.495 41.3977C280.234 50.1004 276.324 60.5344 272.728 70.1294" stroke="black" stroke-width="0.99953"/>
<path d="M275.919 71.5848L269.135 79.7168L269.367 69.1295L275.919 71.5848Z" fill="black" stroke="black" stroke-width="0.99953"/>
<path d="M306.714 35.7076C320.502 47.697 340.644 65.2109 356.288 78.8136" stroke="black" stroke-width="0.99953"/>
<path d="M358.754 76.322L364.001 85.5204L354.163 81.6019L358.754 76.322Z" fill="black" stroke="black" stroke-width="0.99953"/>
<path d="M538.784 32.8962C520.692 44.1216 492.015 62.1608 467.726 78.5458C466.477 79.3885 465.203 80.2582 463.92 81.1422" stroke="black" stroke-width="0.99953"/>
<path d="M465.688 84.175L455.496 87.0475L461.672 78.4456L465.688 84.175Z" fill="black" stroke="black" stroke-width="0.99953"/>
<path d="M569.48 38.6628C577.495 49.1745 587.961 62.9034 596.903 74.632" stroke="black" stroke-width="0.99953"/>
<path d="M599.81 72.6743L603.088 82.744L594.246 76.9164L599.81 72.6743Z" fill="black" stroke="black" stroke-width="0.99953"/>
<path d="M573.388 34.1389C577.371 36.9671 581.638 39.9196 585.671 42.5627C611.67 59.5998 619.644 61.5085 645.643 78.5457C646.903 79.3716 648.186 80.2278 649.477 81.101" stroke="black" stroke-width="0.99953"/>
<path d="M651.712 78.3942L657.925 86.9695L647.72 84.1407L651.712 78.3942Z" fill="black" stroke="black" stroke-width="0.99953"/>
<path d="M572.961 34.8876C576.962 37.685 581.343 40.4359 585.671 42.5627C635.239 66.922 655.047 54.1864 704.615 78.5457C705.967 79.2103 707.325 79.9359 708.675 80.7048" stroke="black" stroke-width="0.99953"/>
<path d="M710.778 77.897L717.325 86.2208L707.016 83.7964L710.778 77.897Z" fill="black" stroke="black" stroke-width="0.99953"/>
<path d="M536.357 27.8538C507.169 36.8306 452.125 55.2559 408.754 78.5457C407.426 79.2586 406.089 80.0233 404.755 80.8233" stroke="black" stroke-width="0.99953"/>
<path d="M406.439 83.902L396.159 86.4448L402.61 78.0463L406.439 83.902Z" fill="black" stroke="black" stroke-width="0.99953"/>
<path d="M543.888 38.6628C535.874 49.1745 525.407 62.9034 516.465 74.632" stroke="black" stroke-width="0.99953"/>
<path d="M519.123 76.9164L510.281 82.744L513.559 72.6743L519.123 76.9164Z" fill="black" stroke="black" stroke-width="0.99953"/>
<path d="M556.685 42.6074C556.685 50.4975 556.685 59.6679 556.685 68.3013" stroke="black" stroke-width="0.99953"/>
<path d="M560.183 68.4485L556.685 78.4437L553.186 68.4484L560.183 68.4485Z" fill="black" stroke="black" stroke-width="0.99953"/>
<path d="M68.0274 115.663C60.0133 126.175 49.5464 139.903 40.6045 151.632" stroke="black" stroke-width="0.99953"/>
<path d="M43.2618 153.916L34.4197 159.744L37.6977 149.674L43.2618 153.916Z" fill="black" stroke="black" stroke-width="0.99953"/>
<path d="M80.8235 119.607C80.8235 127.498 80.8235 136.668 80.8235 145.301" stroke="black" stroke-width="0.99953"/>
<path d="M84.3219 145.448L80.8234 155.444L77.3252 145.448L84.3219 145.448Z" fill="black" stroke="black" stroke-width="0.99953"/>
<path d="M93.6194 115.663C101.634 126.175 112.1 139.903 121.042 151.632" stroke="black" stroke-width="0.99953"/>
<path d="M123.949 149.674L127.227 159.744L118.385 153.916L123.949 149.674Z" fill="black" stroke="black" stroke-width="0.99953"/>
<path d="M93.6194 193.013C101.634 203.525 112.1 217.254 121.042 228.982" stroke="black" stroke-width="0.99953"/>
<path d="M123.949 227.025L127.227 237.095L118.385 231.267L123.949 227.025Z" fill="black" stroke="black" stroke-width="0.99953"/>
<path d="M139.796 196.958C139.796 204.848 139.796 214.018 139.796 222.652" stroke="black" stroke-width="0.99953"/>
<path d="M143.294 222.799L139.796 232.794L136.297 222.799L143.294 222.799Z" fill="black" stroke="black" stroke-width="0.99953"/>
<path d="M597.923 186.896C579.831 198.122 551.153 216.161 526.865 232.546C525.616 233.388 524.342 234.258 523.059 235.142" stroke="black" stroke-width="0.99953"/>
<path d="M524.827 238.175L514.634 241.047L520.811 232.446L524.827 238.175Z" fill="black" stroke="black" stroke-width="0.99953"/>
<path d="M603.027 192.663C595.013 203.175 584.546 216.903 575.604 228.632" stroke="black" stroke-width="0.99953"/>
<path d="M578.262 230.916L569.419 236.744L572.697 226.674L578.262 230.916Z" fill="black" stroke="black" stroke-width="0.99953"/>
<path d="M615.823 196.607C615.823 204.498 615.823 213.668 615.823 222.301" stroke="black" stroke-width="0.99953"/>
<path d="M619.322 222.448L615.823 232.444L612.325 222.448L619.322 222.448Z" fill="black" stroke="black" stroke-width="0.99953"/>
<path d="M628.619 192.663C636.634 203.175 647.1 216.903 656.042 228.632" stroke="black" stroke-width="0.99953"/>
<path d="M658.949 226.674L662.227 236.744L653.385 230.916L658.949 226.674Z" fill="black" stroke="black" stroke-width="0.99953"/>
<path d="M633.724 186.896C651.816 198.122 680.493 216.161 704.781 232.546C706.031 233.388 707.305 234.258 708.588 235.142" stroke="black" stroke-width="0.99953"/>
<path d="M710.836 232.446L717.012 241.047L706.82 238.175L710.836 232.446Z" fill="black" stroke="black" stroke-width="0.99953"/>
<path d="M257.879 197.607C257.879 205.498 257.879 214.668 257.879 223.301" stroke="black" stroke-width="0.99953"/>
<path d="M261.377 223.448L257.879 233.444L254.38 223.448L261.377 223.448Z" fill="black" stroke="black" stroke-width="0.99953"/>
<path d="M185.972 193.013C177.958 203.525 167.491 217.254 158.549 228.982" stroke="black" stroke-width="0.99953"/>
<path d="M161.206 231.267L152.364 237.095L155.642 227.025L161.206 231.267Z" fill="black" stroke="black" stroke-width="0.99953"/>
<path d="M320.879 196.758C332.41 196.758 341.758 187.41 341.758 175.879C341.758 164.348 332.41 155 320.879 155C309.348 155 300 164.348 300 175.879C300 187.41 309.348 196.758 320.879 196.758Z" fill="#DEB618" stroke="black" stroke-width="0.99953"/>
<path d="M319.09 174.84C319.09 176.321 318.837 177.421 318.332 178.141C317.826 178.86 317.036 179.22 315.961 179.22C314.899 179.22 314.113 178.869 313.603 178.168C313.093 177.462 312.829 176.41 312.811 175.011V173.324C312.811 171.861 313.064 170.775 313.569 170.064C314.075 169.354 314.867 168.998 315.947 168.998C317.017 168.998 317.805 169.342 318.311 170.03C318.817 170.713 319.076 171.77 319.09 173.201V174.84ZM317.826 173.112C317.826 172.041 317.676 171.262 317.375 170.775C317.074 170.283 316.598 170.037 315.947 170.037C315.3 170.037 314.829 170.281 314.533 170.768C314.236 171.255 314.084 172.005 314.075 173.016V175.039C314.075 176.114 314.23 176.908 314.539 177.423C314.854 177.933 315.327 178.188 315.961 178.188C316.585 178.188 317.047 177.947 317.348 177.464C317.653 176.981 317.812 176.221 317.826 175.182V173.112ZM326.948 174.84C326.948 176.321 326.695 177.421 326.189 178.141C325.684 178.86 324.893 179.22 323.818 179.22C322.757 179.22 321.971 178.869 321.461 178.168C320.951 177.462 320.687 176.41 320.668 175.011V173.324C320.668 171.861 320.921 170.775 321.427 170.064C321.932 169.354 322.725 168.998 323.805 168.998C324.875 168.998 325.663 169.342 326.169 170.03C326.674 170.713 326.934 171.77 326.948 173.201V174.84ZM325.684 173.112C325.684 172.041 325.533 171.262 325.233 170.775C324.932 170.283 324.456 170.037 323.805 170.037C323.158 170.037 322.686 170.281 322.39 170.768C322.094 171.255 321.941 172.005 321.932 173.016V175.039C321.932 176.114 322.087 176.908 322.397 177.423C322.711 177.933 323.185 178.188 323.818 178.188C324.442 178.188 324.905 177.947 325.205 177.464C325.51 176.981 325.67 176.221 325.684 175.182V173.112Z" fill="black"/>
<path d="M438.879 196.758C450.41 196.758 459.758 187.41 459.758 175.879C459.758 164.348 450.41 155 438.879 155C427.348 155 418 164.348 418 175.879C418 187.41 427.348 196.758 438.879 196.758Z" fill="#DEB618" stroke="black" stroke-width="0.99953"/>
<path d="M437.09 174.84C437.09 176.321 436.837 177.421 436.332 178.141C435.826 178.86 435.036 179.22 433.961 179.22C432.899 179.22 432.113 178.869 431.603 178.168C431.093 177.462 430.829 176.41 430.811 175.011V173.324C430.811 171.861 431.064 170.775 431.569 170.064C432.075 169.354 432.867 168.998 433.947 168.998C435.017 168.998 435.805 169.342 436.311 170.03C436.817 170.713 437.076 171.77 437.09 173.201V174.84ZM435.826 173.112C435.826 172.041 435.676 171.262 435.375 170.775C435.074 170.283 434.598 170.037 433.947 170.037C433.3 170.037 432.829 170.281 432.533 170.768C432.236 171.255 432.084 172.005 432.075 173.016V175.039C432.075 176.114 432.23 176.908 432.539 177.423C432.854 177.933 433.327 178.188 433.961 178.188C434.585 178.188 435.047 177.947 435.348 177.464C435.653 176.981 435.812 176.221 435.826 175.182V173.112ZM442.864 179.083H441.593V170.659L439.044 171.595V170.447L442.665 169.087H442.864V179.083Z" fill="black"/>
<path d="M21.851 197.108C33.3821 197.108 42.7299 187.76 42.7299 176.229C42.7299 164.698 33.3821 155.351 21.851 155.351C10.32 155.351 0.972168 164.698 0.972168 176.229C0.972168 187.76 10.32 197.108 21.851 197.108Z" fill="#DEB618" stroke="black" stroke-width="0.99953"/>
<path d="M20.0621 175.191C20.0621 176.671 19.8093 177.771 19.3037 178.491C18.7981 179.211 18.0078 179.571 16.9328 179.571C15.8714 179.571 15.0856 179.22 14.5755 178.518C14.0653 177.812 13.8011 176.76 13.7829 175.362V173.674C13.7829 172.212 14.0357 171.125 14.5413 170.415C15.0469 169.704 15.8395 169.349 16.9191 169.349C17.9895 169.349 18.7776 169.693 19.2832 170.381C19.7888 171.064 20.0485 172.121 20.0621 173.551V175.191ZM18.7981 173.462C18.7981 172.392 18.6478 171.613 18.3471 171.125C18.0465 170.633 17.5705 170.387 16.9191 170.387C16.2723 170.387 15.8008 170.631 15.5047 171.119C15.2086 171.606 15.056 172.355 15.0469 173.367V175.389C15.0469 176.464 15.2018 177.259 15.5115 177.774C15.8259 178.284 16.2996 178.539 16.9328 178.539C17.5568 178.539 18.0192 178.298 18.3198 177.815C18.625 177.332 18.7844 176.571 18.7981 175.533V173.462ZM28.1999 179.434H21.6815V178.525L25.1252 174.699C25.6354 174.12 25.9861 173.651 26.1774 173.291C26.3733 172.927 26.4712 172.551 26.4712 172.164C26.4712 171.645 26.3141 171.219 25.9998 170.886C25.6855 170.554 25.2664 170.387 24.7426 170.387C24.1139 170.387 23.6243 170.567 23.2735 170.927C22.9273 171.283 22.7542 171.779 22.7542 172.417H21.4902C21.4902 171.501 21.784 170.761 22.3716 170.196C22.9638 169.631 23.7541 169.349 24.7426 169.349C25.6673 169.349 26.3984 169.593 26.9359 170.08C27.4734 170.563 27.7421 171.207 27.7421 172.014C27.7421 172.993 27.1181 174.159 25.87 175.512L23.2052 178.402H28.1999V179.434Z" fill="black"/>
<path d="M497.879 274.108C509.41 274.108 518.758 264.761 518.758 253.229C518.758 241.698 509.41 232.351 497.879 232.351C486.348 232.351 477 241.698 477 253.229C477 264.761 486.348 274.108 497.879 274.108Z" fill="#DEB618" stroke="black" stroke-width="0.99953"/>
<path d="M496.09 252.191C496.09 253.671 495.837 254.771 495.332 255.491C494.826 256.211 494.036 256.571 492.961 256.571C491.899 256.571 491.113 256.22 490.603 255.518C490.093 254.812 489.829 253.76 489.811 252.362V250.674C489.811 249.212 490.064 248.125 490.569 247.415C491.075 246.704 491.867 246.349 492.947 246.349C494.017 246.349 494.805 246.693 495.311 247.381C495.817 248.064 496.076 249.121 496.09 250.551V252.191ZM494.826 250.462C494.826 249.392 494.676 248.613 494.375 248.125C494.074 247.634 493.598 247.388 492.947 247.388C492.3 247.388 491.829 247.631 491.533 248.119C491.236 248.606 491.084 249.355 491.075 250.367V252.389C491.075 253.464 491.23 254.259 491.539 254.774C491.854 255.284 492.327 255.539 492.961 255.539C493.585 255.539 494.047 255.298 494.348 254.815C494.653 254.332 494.812 253.571 494.826 252.533V250.462ZM499.547 250.845H500.497C501.094 250.836 501.563 250.679 501.905 250.373C502.246 250.068 502.417 249.656 502.417 249.137C502.417 247.971 501.836 247.388 500.675 247.388C500.128 247.388 499.691 247.545 499.363 247.859C499.039 248.169 498.878 248.581 498.878 249.096H497.614C497.614 248.308 497.901 247.654 498.475 247.135C499.053 246.611 499.786 246.349 500.675 246.349C501.613 246.349 502.349 246.597 502.882 247.094C503.415 247.59 503.681 248.28 503.681 249.164C503.681 249.597 503.54 250.016 503.257 250.421C502.98 250.827 502.599 251.13 502.116 251.33C502.663 251.503 503.084 251.79 503.38 252.191C503.681 252.592 503.831 253.081 503.831 253.66C503.831 254.553 503.54 255.261 502.957 255.785C502.374 256.309 501.615 256.571 500.682 256.571C499.748 256.571 498.987 256.318 498.399 255.812C497.816 255.307 497.525 254.639 497.525 253.81H498.796C498.796 254.334 498.967 254.753 499.308 255.068C499.65 255.382 500.108 255.539 500.682 255.539C501.292 255.539 501.759 255.38 502.082 255.061C502.406 254.742 502.567 254.284 502.567 253.687C502.567 253.109 502.39 252.665 502.034 252.355C501.679 252.045 501.167 251.886 500.497 251.877H499.547V250.845Z" fill="black"/>
<path d="M257.879 274.108C269.41 274.108 278.758 264.76 278.758 253.229C278.758 241.698 269.41 232.351 257.879 232.351C246.348 232.351 237 241.698 237 253.229C237 264.76 246.348 274.108 257.879 274.108Z" fill="#DEB618" stroke="black" stroke-width="0.99953"/>
<path d="M256.09 252.191C256.09 253.671 255.837 254.771 255.332 255.491C254.826 256.211 254.036 256.571 252.961 256.571C251.899 256.571 251.113 256.22 250.603 255.518C250.093 254.812 249.829 253.76 249.811 252.362V250.674C249.811 249.212 250.064 248.125 250.569 247.415C251.075 246.704 251.867 246.349 252.947 246.349C254.017 246.349 254.805 246.693 255.311 247.381C255.817 248.064 256.076 249.121 256.09 250.551V252.191ZM254.826 250.462C254.826 249.392 254.676 248.613 254.375 248.125C254.074 247.633 253.598 247.387 252.947 247.387C252.3 247.387 251.829 247.631 251.533 248.119C251.236 248.606 251.084 249.355 251.075 250.367V252.389C251.075 253.464 251.23 254.259 251.539 254.774C251.854 255.284 252.327 255.539 252.961 255.539C253.585 255.539 254.047 255.298 254.348 254.815C254.653 254.332 254.812 253.571 254.826 252.533V250.462ZM263.046 253.093H264.426V254.125H263.046V256.434H261.775V254.125H257.245V253.38L261.7 246.486H263.046V253.093ZM258.68 253.093H261.775V248.214L261.624 248.488L258.68 253.093Z" fill="black"/>
<path d="M139.796 274.459C151.327 274.459 160.675 265.111 160.675 253.58C160.675 242.049 151.327 232.701 139.796 232.701C128.265 232.701 118.917 242.049 118.917 253.58C118.917 265.111 128.265 274.459 139.796 274.459Z" fill="#DEB618" stroke="black" stroke-width="0.99953"/>
<path d="M138.007 252.541C138.007 254.022 137.754 255.122 137.248 255.842C136.743 256.561 135.952 256.921 134.877 256.921C133.816 256.921 133.03 256.57 132.52 255.869C132.01 255.163 131.746 254.111 131.727 252.712V251.025C131.727 249.562 131.98 248.476 132.486 247.765C132.992 247.055 133.784 246.699 134.864 246.699C135.934 246.699 136.722 247.043 137.228 247.731C137.733 248.414 137.993 249.471 138.007 250.902V252.541ZM136.743 250.813C136.743 249.742 136.592 248.963 136.292 248.476C135.991 247.984 135.515 247.738 134.864 247.738C134.217 247.738 133.745 247.982 133.449 248.469C133.153 248.957 133.001 249.706 132.992 250.717V252.74C132.992 253.815 133.146 254.609 133.456 255.124C133.77 255.634 134.244 255.889 134.877 255.889C135.501 255.889 135.964 255.648 136.264 255.165C136.57 254.682 136.729 253.922 136.743 252.883V250.813ZM140.207 251.797L140.712 246.836H145.81V248.004H141.785L141.485 250.717C141.972 250.43 142.525 250.287 143.145 250.287C144.051 250.287 144.771 250.587 145.304 251.189C145.837 251.785 146.103 252.594 146.103 253.614C146.103 254.639 145.826 255.448 145.27 256.04C144.719 256.627 143.947 256.921 142.954 256.921C142.074 256.921 141.357 256.677 140.801 256.19C140.246 255.703 139.929 255.029 139.852 254.168H141.047C141.125 254.737 141.327 255.167 141.655 255.459C141.983 255.746 142.416 255.889 142.954 255.889C143.541 255.889 144.001 255.689 144.334 255.288C144.671 254.887 144.839 254.334 144.839 253.628C144.839 252.963 144.657 252.43 144.293 252.029C143.933 251.624 143.452 251.421 142.851 251.421C142.3 251.421 141.867 251.542 141.553 251.783L141.218 252.056L140.207 251.797Z" fill="black"/>
<path d="M438.74 120.108C450.271 120.108 459.619 110.761 459.619 99.2295C459.619 87.6984 450.271 78.3506 438.74 78.3506C427.209 78.3506 417.861 87.6984 417.861 99.2295C417.861 110.761 427.209 120.108 438.74 120.108Z" fill="#DEB618" stroke="black" stroke-width="0.99953"/>
<path d="M436.951 98.191C436.951 99.6714 436.698 100.771 436.193 101.491C435.687 102.211 434.897 102.571 433.822 102.571C432.761 102.571 431.975 102.22 431.465 101.518C430.954 100.812 430.69 99.7602 430.672 98.3618V96.6741C430.672 95.2119 430.925 94.1255 431.43 93.4149C431.936 92.7043 432.729 92.349 433.808 92.349C434.879 92.349 435.667 92.6929 436.172 93.3807C436.678 94.064 436.938 95.1208 436.951 96.5511V98.191ZM435.687 96.4623C435.687 95.3918 435.537 94.6129 435.236 94.1255C434.936 93.6335 434.46 93.3876 433.808 93.3876C433.161 93.3876 432.69 93.6313 432.394 94.1187C432.098 94.6061 431.945 95.3554 431.936 96.3666V98.3891C431.936 99.4641 432.091 100.259 432.401 100.774C432.715 101.284 433.189 101.539 433.822 101.539C434.446 101.539 434.908 101.298 435.209 100.815C435.514 100.332 435.674 99.5712 435.687 98.5326V96.4623ZM443.531 92.4788V93.5515H443.299C442.315 93.5698 441.532 93.8613 440.948 94.4261C440.365 94.991 440.028 95.7858 439.937 96.8108C440.461 96.2095 441.176 95.9088 442.083 95.9088C442.948 95.9088 443.638 96.214 444.153 96.8244C444.672 97.4348 444.932 98.2228 444.932 99.1885C444.932 100.213 444.652 101.033 444.091 101.648C443.536 102.263 442.789 102.571 441.85 102.571C440.898 102.571 440.126 102.206 439.534 101.478C438.942 100.744 438.646 99.8012 438.646 98.6488V98.1636C438.646 96.3325 439.035 94.934 439.814 93.9683C440.598 92.9981 441.762 92.5016 443.306 92.4788H443.531ZM441.871 96.9611C441.438 96.9611 441.04 97.0909 440.675 97.3505C440.311 97.6102 440.058 97.9359 439.917 98.3276V98.7922C439.917 99.6122 440.101 100.273 440.47 100.774C440.839 101.275 441.299 101.525 441.85 101.525C442.42 101.525 442.866 101.316 443.19 100.897C443.518 100.478 443.682 99.9288 443.682 99.25C443.682 98.5668 443.515 98.0156 443.183 97.5965C442.855 97.1729 442.417 96.9611 441.871 96.9611Z" fill="black"/>
<path d="M320.796 120.108C332.327 120.108 341.675 110.761 341.675 99.2295C341.675 87.6984 332.327 78.3506 320.796 78.3506C309.265 78.3506 299.917 87.6984 299.917 99.2295C299.917 110.761 309.265 120.108 320.796 120.108Z" fill="#DEB618" stroke="black" stroke-width="0.99953"/>
<path d="M319.007 98.191C319.007 99.6714 318.754 100.771 318.248 101.491C317.743 102.211 316.952 102.571 315.877 102.571C314.816 102.571 314.03 102.22 313.52 101.518C313.01 100.812 312.746 99.7602 312.727 98.3618V96.6741C312.727 95.2119 312.98 94.1255 313.486 93.4149C313.992 92.7043 314.784 92.349 315.864 92.349C316.934 92.349 317.722 92.6929 318.228 93.3807C318.733 94.064 318.993 95.1208 319.007 96.5511V98.191ZM317.743 96.4623C317.743 95.3918 317.592 94.6129 317.292 94.1255C316.991 93.6335 316.515 93.3876 315.864 93.3876C315.217 93.3876 314.745 93.6313 314.449 94.1187C314.153 94.6061 314.001 95.3554 313.992 96.3666V98.3891C313.992 99.4641 314.146 100.259 314.456 100.774C314.77 101.284 315.244 101.539 315.877 101.539C316.501 101.539 316.964 101.298 317.264 100.815C317.57 100.332 317.729 99.5712 317.743 98.5326V96.4623ZM327.049 93.1962L322.929 102.434H321.603L325.71 93.5242H320.325V92.4856H327.049V93.1962Z" fill="black"/>
<path d="M143.879 120.108C155.41 120.108 164.758 110.761 164.758 99.2295C164.758 87.6984 155.41 78.3506 143.879 78.3506C132.348 78.3506 123 87.6984 123 99.2295C123 110.761 132.348 120.108 143.879 120.108Z" fill="#DEB618" stroke="black" stroke-width="0.99953"/>
<path d="M142.09 98.191C142.09 99.6714 141.837 100.771 141.332 101.491C140.826 102.211 140.036 102.571 138.961 102.571C137.899 102.571 137.113 102.22 136.603 101.518C136.093 100.812 135.829 99.7602 135.811 98.3618V96.6741C135.811 95.2119 136.064 94.1255 136.569 93.4149C137.075 92.7043 137.867 92.349 138.947 92.349C140.017 92.349 140.805 92.6929 141.311 93.3807C141.817 94.064 142.076 95.1208 142.09 96.5511V98.191ZM140.826 96.4623C140.826 95.3918 140.676 94.6129 140.375 94.1255C140.074 93.6335 139.598 93.3876 138.947 93.3876C138.3 93.3876 137.829 93.6313 137.533 94.1187C137.236 94.6061 137.084 95.3554 137.075 96.3666V98.3891C137.075 99.4641 137.23 100.259 137.539 100.774C137.854 101.284 138.327 101.539 138.961 101.539C139.585 101.539 140.047 101.298 140.348 100.815C140.653 100.332 140.812 99.5712 140.826 98.5326V96.4623ZM149.743 95.0821C149.743 95.5786 149.611 96.0204 149.346 96.4076C149.087 96.7948 148.734 97.0977 148.287 97.3164C148.807 97.5396 149.217 97.8653 149.517 98.2935C149.822 98.7216 149.975 99.2068 149.975 99.7488C149.975 100.61 149.683 101.295 149.1 101.805C148.522 102.316 147.759 102.571 146.811 102.571C145.855 102.571 145.087 102.316 144.509 101.805C143.935 101.291 143.648 100.605 143.648 99.7488C143.648 99.2113 143.794 98.7262 144.085 98.2935C144.381 97.8607 144.789 97.5327 145.308 97.3095C144.866 97.0909 144.518 96.788 144.263 96.4008C144.008 96.0136 143.88 95.574 143.88 95.0821C143.88 94.2439 144.149 93.5789 144.686 93.0869C145.224 92.595 145.932 92.349 146.811 92.349C147.686 92.349 148.392 92.595 148.93 93.0869C149.472 93.5789 149.743 94.2439 149.743 95.0821ZM148.711 99.7215C148.711 99.1658 148.533 98.7125 148.178 98.3618C147.827 98.011 147.367 97.8357 146.798 97.8357C146.228 97.8357 145.771 98.0088 145.424 98.3549C145.083 98.7011 144.912 99.1567 144.912 99.7215C144.912 100.286 145.078 100.73 145.411 101.054C145.748 101.377 146.215 101.539 146.811 101.539C147.404 101.539 147.868 101.377 148.205 101.054C148.542 100.726 148.711 100.282 148.711 99.7215ZM146.811 93.3876C146.315 93.3876 145.912 93.5424 145.602 93.8522C145.297 94.1574 145.144 94.5742 145.144 95.1026C145.144 95.6082 145.295 96.0182 145.595 96.3325C145.9 96.6422 146.306 96.7971 146.811 96.7971C147.317 96.7971 147.72 96.6422 148.021 96.3325C148.326 96.0182 148.479 95.6082 148.479 95.1026C148.479 94.5969 148.321 94.1847 148.007 93.8658C147.693 93.547 147.294 93.3876 146.811 93.3876Z" fill="black"/>
<path d="M202.851 120.108C214.382 120.108 223.73 110.761 223.73 99.2295C223.73 87.6984 214.382 78.3506 202.851 78.3506C191.32 78.3506 181.972 87.6984 181.972 99.2295C181.972 110.761 191.32 120.108 202.851 120.108Z" fill="#DEB618" stroke="black" stroke-width="0.99953"/>
<path d="M201.062 98.191C201.062 99.6714 200.809 100.771 200.304 101.491C199.798 102.211 199.008 102.571 197.933 102.571C196.871 102.571 196.086 102.22 195.575 101.518C195.065 100.812 194.801 99.7602 194.783 98.3618V96.6741C194.783 95.2119 195.036 94.1255 195.541 93.4149C196.047 92.7043 196.84 92.349 197.919 92.349C198.99 92.349 199.778 92.6929 200.283 93.3807C200.789 94.064 201.048 95.1208 201.062 96.5511V98.191ZM199.798 96.4623C199.798 95.3918 199.648 94.6129 199.347 94.1255C199.046 93.6335 198.57 93.3876 197.919 93.3876C197.272 93.3876 196.801 93.6313 196.505 94.1187C196.209 94.6061 196.056 95.3554 196.047 96.3666V98.3891C196.047 99.4641 196.202 100.259 196.512 100.774C196.826 101.284 197.3 101.539 197.933 101.539C198.557 101.539 199.019 101.298 199.32 100.815C199.625 100.332 199.784 99.5712 199.798 98.5326V96.4623ZM207.526 98.0611C207.262 98.3754 206.945 98.6283 206.576 98.8196C206.212 99.0109 205.811 99.1065 205.374 99.1065C204.8 99.1065 204.299 98.9653 203.87 98.6829C203.447 98.4005 203.119 98.0042 202.886 97.494C202.654 96.9793 202.538 96.4122 202.538 95.7927C202.538 95.1276 202.663 94.5286 202.914 93.9957C203.169 93.4627 203.529 93.055 203.993 92.7726C204.458 92.4902 205 92.349 205.62 92.349C206.603 92.349 207.378 92.718 207.943 93.4559C208.512 94.1893 208.797 95.1914 208.797 96.4623V96.8312C208.797 98.7672 208.414 100.182 207.649 101.074C206.884 101.963 205.729 102.418 204.185 102.441H203.939V101.375H204.205C205.248 101.357 206.05 101.086 206.61 100.562C207.171 100.034 207.476 99.1999 207.526 98.0611ZM205.579 98.0611C206.002 98.0611 206.392 97.9313 206.747 97.6717C207.107 97.412 207.369 97.0909 207.533 96.7083V96.2026C207.533 95.3736 207.353 94.6994 206.993 94.1802C206.633 93.6609 206.178 93.4012 205.626 93.4012C205.071 93.4012 204.624 93.6153 204.287 94.0435C203.95 94.4671 203.782 95.0274 203.782 95.7243C203.782 96.4031 203.943 96.9633 204.267 97.4052C204.595 97.8425 205.032 98.0611 205.579 98.0611Z" fill="black"/>
<path d="M261.823 120.108C273.354 120.108 282.702 110.761 282.702 99.2295C282.702 87.6984 273.354 78.3506 261.823 78.3506C250.292 78.3506 240.944 87.6984 240.944 99.2295C240.944 110.761 250.292 120.108 261.823 120.108Z" fill="#DEB618" stroke="black" stroke-width="0.99953"/>
<path d="M257.95 102.434H256.679V94.0093L254.131 94.9454V93.7975L257.752 92.4378H257.95V102.434ZM267.892 98.191C267.892 99.6714 267.639 100.771 267.134 101.491C266.628 102.211 265.838 102.571 264.763 102.571C263.701 102.571 262.915 102.22 262.405 101.518C261.895 100.812 261.631 99.7602 261.613 98.3618V96.6741C261.613 95.2119 261.865 94.1255 262.371 93.4149C262.877 92.7043 263.669 92.349 264.749 92.349C265.819 92.349 266.607 92.6929 267.113 93.3807C267.619 94.064 267.878 95.1208 267.892 96.5511V98.191ZM266.628 96.4623C266.628 95.3918 266.478 94.6129 266.177 94.1255C265.876 93.6335 265.4 93.3876 264.749 93.3876C264.102 93.3876 263.631 93.6313 263.335 94.1187C263.038 94.6061 262.886 95.3554 262.877 96.3666V98.3891C262.877 99.4641 263.032 100.259 263.341 100.774C263.656 101.284 264.129 101.539 264.763 101.539C265.387 101.539 265.849 101.298 266.15 100.815C266.455 100.332 266.614 99.5712 266.628 98.5326V96.4623Z" fill="black"/>
<path d="M615.657 120.108C627.188 120.108 636.536 110.761 636.536 99.2295C636.536 87.6984 627.188 78.3506 615.657 78.3506C604.126 78.3506 594.778 87.6984 594.778 99.2295C594.778 110.761 604.126 120.108 615.657 120.108Z" fill="#DEB618" stroke="black" stroke-width="0.99953"/>
<path d="M611.784 102.434H610.513V94.0093L607.964 94.9454V93.7975L611.586 92.4378H611.784V102.434ZM619.641 102.434H618.371V94.0093L615.822 94.9454V93.7975L619.443 92.4378H619.641V102.434Z" fill="black"/>
<path d="M674.629 120.108C686.16 120.108 695.508 110.761 695.508 99.2295C695.508 87.6984 686.16 78.3506 674.629 78.3506C663.098 78.3506 653.75 87.6984 653.75 99.2295C653.75 110.761 663.098 120.108 674.629 120.108Z" fill="#DEB618" stroke="black" stroke-width="0.99953"/>
<path d="M670.756 102.434H669.485V94.0093L666.937 94.9454V93.7975L670.558 92.4378H670.756V102.434ZM680.978 102.434H674.46V101.525L677.903 97.699C678.413 97.1205 678.764 96.6513 678.956 96.2915C679.151 95.9271 679.249 95.5513 679.249 95.1641C679.249 94.6448 679.092 94.2189 678.778 93.8863C678.464 93.5538 678.044 93.3876 677.521 93.3876C676.892 93.3876 676.402 93.5675 676.052 93.9273C675.705 94.2826 675.532 94.7792 675.532 95.4169H674.268C674.268 94.5013 674.562 93.7611 675.15 93.1962C675.742 92.6314 676.532 92.349 677.521 92.349C678.445 92.349 679.176 92.5927 679.714 93.0801C680.251 93.5629 680.52 94.2075 680.52 95.0137C680.52 95.9931 679.896 97.1592 678.648 98.5121L675.983 101.402H680.978V102.434Z" fill="black"/>
<path d="M733.601 120.108C745.132 120.108 754.48 110.761 754.48 99.2295C754.48 87.6984 745.132 78.3506 733.601 78.3506C722.07 78.3506 712.722 87.6984 712.722 99.2295C712.722 110.761 722.07 120.108 733.601 120.108Z" fill="#DEB618" stroke="black" stroke-width="0.99953"/>
<path d="M729.728 102.434H728.457V94.0093L725.909 94.9454V93.7975L729.53 92.4378H729.728V102.434ZM735.269 96.8449H736.219C736.816 96.8358 737.285 96.6787 737.627 96.3735C737.968 96.0683 738.139 95.656 738.139 95.1367C738.139 93.9706 737.558 93.3876 736.397 93.3876C735.85 93.3876 735.413 93.5447 735.085 93.859C734.762 94.1688 734.6 94.581 734.6 95.0957H733.336C733.336 94.3077 733.623 93.654 734.197 93.1347C734.775 92.6109 735.509 92.349 736.397 92.349C737.335 92.349 738.071 92.5972 738.604 93.0938C739.137 93.5903 739.403 94.2804 739.403 95.1641C739.403 95.5968 739.262 96.0159 738.98 96.4213C738.702 96.8267 738.321 97.1296 737.839 97.33C738.385 97.5031 738.807 97.7901 739.103 98.191C739.403 98.5918 739.554 99.0815 739.554 99.66C739.554 100.553 739.262 101.261 738.679 101.785C738.096 102.309 737.338 102.571 736.404 102.571C735.47 102.571 734.709 102.318 734.122 101.812C733.539 101.307 733.247 100.639 733.247 99.8103H734.518C734.518 100.334 734.689 100.753 735.03 101.068C735.372 101.382 735.83 101.539 736.404 101.539C737.014 101.539 737.481 101.38 737.804 101.061C738.128 100.742 738.29 100.284 738.29 99.6873C738.29 99.1088 738.112 98.6647 737.757 98.3549C737.401 98.0452 736.889 97.8858 736.219 97.8767H735.269V96.8449Z" fill="black"/>
<path d="M556.851 274.108C568.382 274.108 577.73 264.761 577.73 253.229C577.73 241.698 568.382 232.351 556.851 232.351C545.32 232.351 535.972 241.698 535.972 253.229C535.972 264.761 545.32 274.108 556.851 274.108Z" fill="#DEB618" stroke="black" stroke-width="0.99953"/>
<path d="M552.978 256.434H551.707V248.009L549.159 248.945V247.798L552.78 246.438H552.978V256.434ZM562.018 253.093H563.398V254.125H562.018V256.434H560.747V254.125H556.217V253.38L560.672 246.486H562.018V253.093ZM557.652 253.093H560.747V248.214L560.597 248.488L557.652 253.093Z" fill="black"/>
<path d="M615.823 274.108C627.354 274.108 636.702 264.761 636.702 253.229C636.702 241.698 627.354 232.351 615.823 232.351C604.292 232.351 594.944 241.698 594.944 253.229C594.944 264.761 604.292 274.108 615.823 274.108Z" fill="#DEB618" stroke="black" stroke-width="0.99953"/>
<path d="M611.95 256.434H610.679V248.009L608.131 248.945V247.798L611.752 246.438H611.95V256.434ZM616.234 251.446L616.74 246.486H621.837V247.654H617.813L617.512 250.367C618 250.08 618.553 249.936 619.173 249.936C620.079 249.936 620.799 250.237 621.332 250.838C621.865 251.435 622.131 252.243 622.131 253.264C622.131 254.289 621.853 255.097 621.297 255.689C620.746 256.277 619.974 256.571 618.981 256.571C618.102 256.571 617.385 256.327 616.829 255.84C616.273 255.352 615.957 254.678 615.879 253.817H617.075C617.152 254.387 617.355 254.817 617.683 255.109C618.011 255.396 618.444 255.539 618.981 255.539C619.569 255.539 620.029 255.339 620.361 254.938C620.698 254.537 620.867 253.983 620.867 253.277C620.867 252.612 620.685 252.079 620.32 251.679C619.961 251.273 619.48 251.07 618.879 251.07C618.328 251.07 617.895 251.191 617.58 251.433L617.246 251.706L616.234 251.446Z" fill="black"/>
<path d="M674.796 274.108C686.327 274.108 695.675 264.761 695.675 253.229C695.675 241.698 686.327 232.351 674.796 232.351C663.265 232.351 653.917 241.698 653.917 253.229C653.917 264.761 663.265 274.108 674.796 274.108Z" fill="#DEB618" stroke="black" stroke-width="0.99953"/>
<path d="M670.923 256.434H669.652V248.009L667.103 248.945V247.798L670.725 246.438H670.923V256.434ZM679.587 246.479V247.552H679.354C678.37 247.57 677.587 247.861 677.004 248.426C676.421 248.991 676.084 249.786 675.993 250.811C676.516 250.209 677.232 249.909 678.138 249.909C679.004 249.909 679.694 250.214 680.208 250.824C680.728 251.435 680.987 252.223 680.987 253.189C680.987 254.213 680.707 255.033 680.147 255.648C679.591 256.263 678.844 256.571 677.906 256.571C676.954 256.571 676.182 256.206 675.589 255.478C674.997 254.744 674.701 253.801 674.701 252.649V252.164C674.701 250.332 675.091 248.934 675.87 247.968C676.653 246.998 677.817 246.502 679.361 246.479H679.587ZM677.926 250.961C677.494 250.961 677.095 251.091 676.731 251.351C676.366 251.61 676.113 251.936 675.972 252.328V252.792C675.972 253.612 676.157 254.273 676.526 254.774C676.895 255.275 677.355 255.525 677.906 255.525C678.475 255.525 678.922 255.316 679.245 254.897C679.573 254.478 679.737 253.929 679.737 253.25C679.737 252.567 679.571 252.016 679.238 251.597C678.91 251.173 678.473 250.961 677.926 250.961Z" fill="black"/>
<path d="M733.768 274.108C745.299 274.108 754.647 264.761 754.647 253.229C754.647 241.698 745.299 232.351 733.768 232.351C722.237 232.351 712.889 241.698 712.889 253.229C712.889 264.761 722.237 274.108 733.768 274.108Z" fill="#DEB618" stroke="black" stroke-width="0.99953"/>
<path d="M729.895 256.434H728.624V248.009L726.075 248.945V247.798L729.697 246.438H729.895V256.434ZM740.021 247.196L735.901 256.434H734.575L738.682 247.524H733.298V246.486H740.021V247.196Z" fill="black"/>
<path d="M320.879 273.758C332.41 273.758 341.758 264.41 341.758 252.879C341.758 241.348 332.41 232 320.879 232C309.348 232 300 241.348 300 252.879C300 264.41 309.348 273.758 320.879 273.758Z" fill="#DEB618" stroke="black" stroke-width="0.99953"/>
<path d="M317.006 256.083H315.735V247.659L313.187 248.595V247.447L316.808 246.087H317.006V256.083ZM326.743 248.731C326.743 249.228 326.611 249.67 326.346 250.057C326.087 250.444 325.734 250.747 325.287 250.966C325.807 251.189 326.217 251.515 326.517 251.943C326.822 252.371 326.975 252.856 326.975 253.398C326.975 254.259 326.683 254.945 326.1 255.455C325.522 255.965 324.759 256.22 323.811 256.22C322.855 256.22 322.087 255.965 321.509 255.455C320.935 254.94 320.648 254.255 320.648 253.398C320.648 252.861 320.794 252.376 321.085 251.943C321.381 251.51 321.789 251.182 322.308 250.959C321.866 250.74 321.518 250.437 321.263 250.05C321.008 249.663 320.88 249.223 320.88 248.731C320.88 247.893 321.149 247.228 321.686 246.736C322.224 246.244 322.932 245.998 323.811 245.998C324.686 245.998 325.392 246.244 325.93 246.736C326.472 247.228 326.743 247.893 326.743 248.731ZM325.711 253.371C325.711 252.815 325.533 252.362 325.178 252.011C324.827 251.66 324.367 251.485 323.798 251.485C323.228 251.485 322.771 251.658 322.424 252.004C322.083 252.351 321.912 252.806 321.912 253.371C321.912 253.936 322.078 254.38 322.411 254.703C322.748 255.027 323.215 255.188 323.811 255.188C324.404 255.188 324.868 255.027 325.205 254.703C325.542 254.375 325.711 253.931 325.711 253.371ZM323.811 247.037C323.315 247.037 322.912 247.192 322.602 247.502C322.297 247.807 322.144 248.224 322.144 248.752C322.144 249.258 322.295 249.668 322.595 249.982C322.9 250.292 323.306 250.447 323.811 250.447C324.317 250.447 324.72 250.292 325.021 249.982C325.326 249.668 325.479 249.258 325.479 248.752C325.479 248.246 325.321 247.834 325.007 247.515C324.693 247.196 324.294 247.037 323.811 247.037Z" fill="black"/>
<path d="M439.851 273.758C451.382 273.758 460.73 264.41 460.73 252.879C460.73 241.348 451.382 232 439.851 232C428.32 232 418.972 241.348 418.972 252.879C418.972 264.41 428.32 273.758 439.851 273.758Z" fill="#DEB618" stroke="black" stroke-width="0.99953"/>
<path d="M435.978 256.083H434.708V247.659L432.159 248.595V247.447L435.78 246.087H435.978V256.083ZM444.526 251.711C444.262 252.025 443.945 252.278 443.576 252.469C443.212 252.66 442.811 252.756 442.374 252.756C441.8 252.756 441.299 252.615 440.871 252.332C440.447 252.05 440.119 251.654 439.887 251.143C439.654 250.629 439.538 250.062 439.538 249.442C439.538 248.777 439.664 248.178 439.914 247.645C440.169 247.112 440.529 246.704 440.994 246.422C441.458 246.14 442 245.998 442.62 245.998C443.604 245.998 444.378 246.367 444.943 247.105C445.512 247.839 445.797 248.841 445.797 250.112V250.481C445.797 252.417 445.414 253.831 444.649 254.724C443.884 255.612 442.729 256.068 441.185 256.09H440.939V255.024H441.205C442.249 255.006 443.05 254.735 443.611 254.211C444.171 253.683 444.476 252.849 444.526 251.711ZM442.579 251.711C443.002 251.711 443.392 251.581 443.747 251.321C444.107 251.061 444.369 250.74 444.533 250.358V249.852C444.533 249.023 444.353 248.349 443.993 247.83C443.633 247.31 443.178 247.051 442.627 247.051C442.071 247.051 441.625 247.265 441.287 247.693C440.95 248.117 440.782 248.677 440.782 249.374C440.782 250.052 440.944 250.613 441.267 251.055C441.595 251.492 442.032 251.711 442.579 251.711Z" fill="black"/>
<path d="M290.81 42.7578C302.341 42.7578 311.688 33.41 311.688 21.8789C311.688 10.3478 302.341 1 290.81 1C279.278 1 269.931 10.3478 269.931 21.8789C269.931 33.41 279.278 42.7578 290.81 42.7578Z" fill="#18B0DE" stroke="black" stroke-width="0.99953"/>
<path d="M289.301 25.0835H282.782V24.1747L286.226 20.3484C286.736 19.7699 287.087 19.3007 287.278 18.9409C287.474 18.5765 287.572 18.2007 287.572 17.8135C287.572 17.2942 287.415 16.8683 287.101 16.5358C286.786 16.2032 286.367 16.037 285.843 16.037C285.215 16.037 284.725 16.2169 284.374 16.5768C284.028 16.9321 283.855 17.4286 283.855 18.0663H282.591C282.591 17.1507 282.885 16.4105 283.472 15.8457C284.065 15.2808 284.855 14.9984 285.843 14.9984C286.768 14.9984 287.499 15.2421 288.037 15.7295C288.574 16.2123 288.843 16.8569 288.843 17.6632C288.843 18.6425 288.219 19.8086 286.971 21.1615L284.306 24.0518H289.301V25.0835ZM296.878 20.8404C296.878 22.3208 296.625 23.4209 296.12 24.1406C295.614 24.8603 294.824 25.2202 293.749 25.2202C292.688 25.2202 291.902 24.8694 291.392 24.1679C290.881 23.4619 290.617 22.4096 290.599 21.0112V19.3235C290.599 17.8613 290.852 16.7749 291.357 16.0643C291.863 15.3537 292.656 14.9984 293.735 14.9984C294.806 14.9984 295.594 15.3423 296.099 16.0301C296.605 16.7134 296.865 17.7702 296.878 19.2005V20.8404ZM295.614 19.1117C295.614 18.0412 295.464 17.2623 295.163 16.7749C294.863 16.283 294.387 16.037 293.735 16.037C293.088 16.037 292.617 16.2807 292.321 16.7681C292.025 17.2555 291.872 18.0048 291.863 19.016V21.0385C291.863 22.1135 292.018 22.9084 292.328 23.4231C292.642 23.9333 293.116 24.1884 293.749 24.1884C294.373 24.1884 294.835 23.947 295.136 23.4641C295.441 22.9813 295.601 22.2206 295.614 21.182V19.1117Z" fill="black"/>
<path d="M379.768 120.108C391.299 120.108 400.647 110.761 400.647 99.2295C400.647 87.6984 391.299 78.3506 379.768 78.3506C368.237 78.3506 358.889 87.6984 358.889 99.2295C358.889 110.761 368.237 120.108 379.768 120.108Z" fill="#18B0DE" stroke="black" stroke-width="0.99953"/>
<path d="M378.259 102.434H371.741V101.525L375.184 97.699C375.694 97.1205 376.045 96.6513 376.237 96.2915C376.432 95.9271 376.53 95.5513 376.53 95.1641C376.53 94.6448 376.373 94.2189 376.059 93.8863C375.745 93.5538 375.326 93.3876 374.802 93.3876C374.173 93.3876 373.683 93.5675 373.333 93.9273C372.986 94.2826 372.813 94.7792 372.813 95.4169H371.549C371.549 94.5013 371.843 93.7611 372.431 93.1962C373.023 92.6314 373.813 92.349 374.802 92.349C375.726 92.349 376.457 92.5927 376.995 93.0801C377.532 93.5629 377.801 94.2075 377.801 95.0137C377.801 95.9931 377.177 97.1592 375.929 98.5121L373.264 101.402H378.259V102.434ZM383.753 102.434H382.482V94.0093L379.933 94.9454V93.7975L383.554 92.4378H383.753V102.434Z" fill="black"/>
<path d="M556.685 42.7578C568.216 42.7578 577.563 33.41 577.563 21.8789C577.563 10.3478 568.216 1 556.685 1C545.153 1 535.806 10.3478 535.806 21.8789C535.806 33.41 545.153 42.7578 556.685 42.7578Z" fill="#18B0DE" stroke="black" stroke-width="0.99953"/>
<path d="M555.176 25.0835H548.657V24.1747L552.101 20.3484C552.611 19.7699 552.962 19.3007 553.153 18.9409C553.349 18.5765 553.447 18.2007 553.447 17.8135C553.447 17.2942 553.29 16.8683 552.976 16.5358C552.661 16.2032 552.242 16.037 551.718 16.037C551.09 16.037 550.6 16.2169 550.249 16.5768C549.903 16.9321 549.73 17.4286 549.73 18.0663H548.466C548.466 17.1507 548.76 16.4105 549.347 15.8457C549.94 15.2808 550.73 14.9984 551.718 14.9984C552.643 14.9984 553.374 15.2421 553.912 15.7295C554.449 16.2123 554.718 16.8569 554.718 17.6632C554.718 18.6425 554.094 19.8086 552.846 21.1615L550.181 24.0518H555.176V25.0835ZM563.033 25.0835H556.515V24.1747L559.959 20.3484C560.469 19.7699 560.82 19.3007 561.011 18.9409C561.207 18.5765 561.305 18.2007 561.305 17.8135C561.305 17.2942 561.148 16.8683 560.833 16.5358C560.519 16.2032 560.1 16.037 559.576 16.037C558.947 16.037 558.458 16.2169 558.107 16.5768C557.761 16.9321 557.588 17.4286 557.588 18.0663H556.324C556.324 17.1507 556.617 16.4105 557.205 15.8457C557.797 15.2808 558.588 14.9984 559.576 14.9984C560.501 14.9984 561.232 15.2421 561.769 15.7295C562.307 16.2123 562.576 16.8569 562.576 17.6632C562.576 18.6425 561.952 19.8086 560.703 21.1615L558.039 24.0518H563.033V25.0835Z" fill="black"/>
<path d="M497.712 120.108C509.243 120.108 518.591 110.761 518.591 99.2295C518.591 87.6984 509.243 78.3506 497.712 78.3506C486.181 78.3506 476.833 87.6984 476.833 99.2295C476.833 110.761 486.181 120.108 497.712 120.108Z" fill="#18B0DE" stroke="black" stroke-width="0.99953"/>
<path d="M491.523 96.8449H492.473C493.07 96.8358 493.539 96.6787 493.88 96.3735C494.222 96.0683 494.393 95.656 494.393 95.1367C494.393 93.9706 493.812 93.3876 492.651 93.3876C492.104 93.3876 491.667 93.5447 491.339 93.859C491.015 94.1688 490.854 94.581 490.854 95.0957H489.59C489.59 94.3077 489.877 93.654 490.45 93.1347C491.029 92.6109 491.762 92.349 492.651 92.349C493.589 92.349 494.325 92.5972 494.858 93.0938C495.391 93.5903 495.657 94.2804 495.657 95.1641C495.657 95.5968 495.516 96.0159 495.233 96.4213C494.955 96.8267 494.575 97.1296 494.092 97.33C494.639 97.5031 495.06 97.7901 495.356 98.191C495.657 98.5918 495.807 99.0815 495.807 99.66C495.807 100.553 495.516 101.261 494.933 101.785C494.35 102.309 493.591 102.571 492.657 102.571C491.724 102.571 490.963 102.318 490.375 101.812C489.792 101.307 489.501 100.639 489.501 99.8103H490.772C490.772 100.334 490.942 100.753 491.284 101.068C491.626 101.382 492.083 101.539 492.657 101.539C493.268 101.539 493.735 101.38 494.058 101.061C494.382 100.742 494.543 100.284 494.543 99.6873C494.543 99.1088 494.366 98.6647 494.01 98.3549C493.655 98.0452 493.143 97.8858 492.473 97.8767H491.523V96.8449ZM503.781 98.191C503.781 99.6714 503.528 100.771 503.023 101.491C502.517 102.211 501.727 102.571 500.652 102.571C499.59 102.571 498.805 102.22 498.294 101.518C497.784 100.812 497.52 99.7602 497.502 98.3618V96.6741C497.502 95.2119 497.755 94.1255 498.26 93.4149C498.766 92.7043 499.558 92.349 500.638 92.349C501.709 92.349 502.497 92.6929 503.002 93.3807C503.508 94.064 503.767 95.1208 503.781 96.5511V98.191ZM502.517 96.4623C502.517 95.3918 502.367 94.6129 502.066 94.1255C501.765 93.6335 501.289 93.3876 500.638 93.3876C499.991 93.3876 499.52 93.6313 499.224 94.1187C498.928 94.6061 498.775 95.3554 498.766 96.3666V98.3891C498.766 99.4641 498.921 100.259 499.231 100.774C499.545 101.284 500.019 101.539 500.652 101.539C501.276 101.539 501.738 101.298 502.039 100.815C502.344 100.332 502.503 99.5712 502.517 98.5326V96.4623Z" fill="black"/>
<path d="M556.685 120.108C568.216 120.108 577.563 110.761 577.563 99.2295C577.563 87.6984 568.216 78.3506 556.685 78.3506C545.153 78.3506 535.806 87.6984 535.806 99.2295C535.806 110.761 545.153 120.108 556.685 120.108Z" fill="#18B0DE" stroke="black" stroke-width="0.99953"/>
<path d="M555.176 102.434H548.657V101.525L552.101 97.699C552.611 97.1205 552.962 96.6513 553.153 96.2915C553.349 95.9271 553.447 95.5513 553.447 95.1641C553.447 94.6448 553.29 94.2189 552.976 93.8863C552.661 93.5538 552.242 93.3876 551.718 93.3876C551.09 93.3876 550.6 93.5675 550.249 93.9273C549.903 94.2826 549.73 94.7792 549.73 95.4169H548.466C548.466 94.5013 548.76 93.7611 549.347 93.1962C549.94 92.6314 550.73 92.349 551.718 92.349C552.643 92.349 553.374 92.5927 553.912 93.0801C554.449 93.5629 554.718 94.2075 554.718 95.0137C554.718 95.9931 554.094 97.1592 552.846 98.5121L550.181 101.402H555.176V102.434ZM558.353 96.8449H559.303C559.899 96.8358 560.369 96.6787 560.71 96.3735C561.052 96.0683 561.223 95.656 561.223 95.1367C561.223 93.9706 560.642 93.3876 559.48 93.3876C558.934 93.3876 558.496 93.5447 558.169 93.859C557.845 94.1688 557.683 94.581 557.683 95.0957H556.419C556.419 94.3077 556.706 93.654 557.28 93.1347C557.859 92.6109 558.592 92.349 559.48 92.349C560.419 92.349 561.154 92.5972 561.687 93.0938C562.22 93.5903 562.487 94.2804 562.487 95.1641C562.487 95.5968 562.346 96.0159 562.063 96.4213C561.785 96.8267 561.405 97.1296 560.922 97.33C561.469 97.5031 561.89 97.7901 562.186 98.191C562.487 98.5918 562.637 99.0815 562.637 99.66C562.637 100.553 562.346 101.261 561.763 101.785C561.179 102.309 560.421 102.571 559.487 102.571C558.553 102.571 557.793 102.318 557.205 101.812C556.622 101.307 556.331 100.639 556.331 99.8103H557.601C557.601 100.334 557.772 100.753 558.114 101.068C558.455 101.382 558.913 101.539 559.487 101.539C560.098 101.539 560.565 101.38 560.888 101.061C561.211 100.742 561.373 100.284 561.373 99.6873C561.373 99.1088 561.195 98.6647 560.84 98.3549C560.485 98.0452 559.972 97.8858 559.303 97.8767H558.353V96.8449Z" fill="black"/>
<path d="M80.8235 119.758C92.3545 119.758 101.702 110.41 101.702 98.8789C101.702 87.3478 92.3545 78 80.8235 78C69.2924 78 59.9446 87.3478 59.9446 98.8789C59.9446 110.41 69.2924 119.758 80.8235 119.758Z" fill="#18B0DE" stroke="black" stroke-width="0.99953"/>
<path d="M79.3147 102.083H72.7963V101.175L76.24 97.3484C76.7501 96.7699 77.1009 96.3007 77.2922 95.9409C77.4881 95.5765 77.586 95.2007 77.586 94.8135C77.586 94.2942 77.4289 93.8683 77.1146 93.5358C76.8003 93.2032 76.3812 93.037 75.8573 93.037C75.2287 93.037 74.739 93.2169 74.3883 93.5768C74.0421 93.9321 73.869 94.4286 73.869 95.0663H72.605C72.605 94.1507 72.8988 93.4105 73.4864 92.8457C74.0786 92.2808 74.8689 91.9984 75.8573 91.9984C76.782 91.9984 77.5131 92.2421 78.0506 92.7295C78.5881 93.2123 78.8569 93.8569 78.8569 94.6632C78.8569 95.6425 78.2328 96.8086 76.9847 98.1615L74.32 101.052H79.3147V102.083ZM85.9903 98.7423H87.3705V99.774H85.9903V102.083H84.7194V99.774H80.1893V99.0293L84.6442 92.1351H85.9903V98.7423ZM81.6242 98.7423H84.7194V93.8637L84.5691 94.137L81.6242 98.7423Z" fill="black"/>
<path d="M80.8235 197.108C92.3545 197.108 101.702 187.76 101.702 176.229C101.702 164.698 92.3545 155.351 80.8235 155.351C69.2924 155.351 59.9446 164.698 59.9446 176.229C59.9446 187.76 69.2924 197.108 80.8235 197.108Z" fill="#18B0DE" stroke="black" stroke-width="0.99953"/>
<path d="M79.3147 179.434H72.7963V178.525L76.24 174.699C76.7501 174.12 77.1009 173.651 77.2922 173.291C77.4881 172.927 77.586 172.551 77.586 172.164C77.586 171.645 77.4289 171.219 77.1146 170.886C76.8003 170.554 76.3812 170.387 75.8573 170.387C75.2287 170.387 74.739 170.567 74.3883 170.927C74.0421 171.283 73.869 171.779 73.869 172.417H72.605C72.605 171.501 72.8988 170.761 73.4864 170.196C74.0786 169.631 74.8689 169.349 75.8573 169.349C76.782 169.349 77.5131 169.593 78.0506 170.08C78.5881 170.563 78.8569 171.207 78.8569 172.014C78.8569 172.993 78.2328 174.159 76.9847 175.512L74.32 178.402H79.3147V179.434ZM81.2347 174.446L81.7403 169.486H86.8375V170.654H82.813L82.5124 173.367C82.9998 173.08 83.5533 172.936 84.1728 172.936C85.0792 172.936 85.7989 173.237 86.3319 173.838C86.8649 174.435 87.1313 175.243 87.1313 176.264C87.1313 177.289 86.8535 178.097 86.2977 178.689C85.7466 179.277 84.9745 179.571 83.9814 179.571C83.1023 179.571 82.3849 179.327 81.8291 178.84C81.2734 178.352 80.9568 177.678 80.8794 176.817H82.0751C82.1526 177.386 82.3553 177.817 82.6832 178.108C83.0112 178.395 83.4439 178.539 83.9814 178.539C84.5691 178.539 85.0291 178.339 85.3617 177.938C85.6987 177.537 85.8673 176.983 85.8673 176.277C85.8673 175.612 85.6851 175.079 85.3207 174.678C84.9608 174.273 84.4802 174.07 83.879 174.07C83.3278 174.07 82.895 174.191 82.5807 174.432L82.2459 174.706L81.2347 174.446Z" fill="black"/>
<path d="M139.796 197.108C151.327 197.108 160.675 187.76 160.675 176.229C160.675 164.698 151.327 155.351 139.796 155.351C128.265 155.351 118.917 164.698 118.917 176.229C118.917 187.76 128.265 197.108 139.796 197.108Z" fill="#18B0DE" stroke="black" stroke-width="0.99953"/>
<path d="M138.287 179.434H131.768V178.525L135.212 174.699C135.722 174.12 136.073 173.651 136.264 173.291C136.46 172.927 136.558 172.551 136.558 172.164C136.558 171.645 136.401 171.219 136.087 170.886C135.772 170.554 135.353 170.387 134.83 170.387C134.201 170.387 133.711 170.567 133.36 170.927C133.014 171.283 132.841 171.779 132.841 172.417H131.577C131.577 171.501 131.871 170.761 132.459 170.196C133.051 169.631 133.841 169.349 134.83 169.349C135.754 169.349 136.485 169.593 137.023 170.08C137.56 170.563 137.829 171.207 137.829 172.014C137.829 172.993 137.205 174.159 135.957 175.512L133.292 178.402H138.287V179.434ZM144.587 169.479V170.551H144.354C143.37 170.57 142.587 170.861 142.004 171.426C141.421 171.991 141.084 172.786 140.993 173.811C141.516 173.209 142.232 172.909 143.138 172.909C144.004 172.909 144.694 173.214 145.208 173.824C145.728 174.435 145.987 175.223 145.987 176.188C145.987 177.213 145.707 178.033 145.147 178.648C144.591 179.263 143.844 179.571 142.906 179.571C141.954 179.571 141.182 179.206 140.589 178.477C139.997 177.744 139.701 176.801 139.701 175.649V175.164C139.701 173.332 140.091 171.934 140.87 170.968C141.653 169.998 142.817 169.502 144.361 169.479H144.587ZM142.926 173.961C142.494 173.961 142.095 174.091 141.731 174.35C141.366 174.61 141.113 174.936 140.972 175.328V175.792C140.972 176.612 141.157 177.273 141.526 177.774C141.895 178.275 142.355 178.525 142.906 178.525C143.475 178.525 143.922 178.316 144.245 177.897C144.573 177.478 144.737 176.929 144.737 176.25C144.737 175.567 144.571 175.016 144.238 174.596C143.91 174.173 143.473 173.961 142.926 173.961Z" fill="black"/>
<path d="M615.823 196.758C627.354 196.758 636.702 187.41 636.702 175.879C636.702 164.348 627.354 155 615.823 155C604.292 155 594.944 164.348 594.944 175.879C594.944 187.41 604.292 196.758 615.823 196.758Z" fill="#18B0DE" stroke="black" stroke-width="0.99953"/>
<path d="M614.314 179.083H607.796V178.175L611.24 174.348C611.75 173.77 612.101 173.301 612.292 172.941C612.488 172.576 612.586 172.201 612.586 171.813C612.586 171.294 612.429 170.868 612.114 170.536C611.8 170.203 611.381 170.037 610.857 170.037C610.228 170.037 609.739 170.217 609.388 170.577C609.042 170.932 608.869 171.429 608.869 172.066H607.605C607.605 171.151 607.899 170.41 608.486 169.846C609.078 169.281 609.869 168.998 610.857 168.998C611.782 168.998 612.513 169.242 613.05 169.729C613.588 170.212 613.857 170.857 613.857 171.663C613.857 172.643 613.233 173.809 611.984 175.162L609.32 178.052H614.314V179.083ZM622.076 169.846L617.956 179.083H616.631L620.737 170.174H615.353V169.135H622.076V169.846Z" fill="black"/>
<path d="M257.879 196.758C269.41 196.758 278.758 187.41 278.758 175.879C278.758 164.348 269.41 155 257.879 155C246.348 155 237 164.348 237 175.879C237 187.41 246.348 196.758 257.879 196.758Z" fill="#18B0DE" stroke="black" stroke-width="0.99953"/>
<path d="M256.37 179.083H249.852V178.175L253.295 174.348C253.806 173.77 254.156 173.301 254.348 172.941C254.543 172.576 254.641 172.201 254.641 171.813C254.641 171.294 254.484 170.868 254.17 170.536C253.856 170.203 253.437 170.037 252.913 170.037C252.284 170.037 251.794 170.217 251.444 170.577C251.098 170.932 250.924 171.429 250.924 172.066H249.66C249.66 171.151 249.954 170.41 250.542 169.846C251.134 169.281 251.924 168.998 252.913 168.998C253.837 168.998 254.569 169.242 255.106 169.729C255.644 170.212 255.912 170.857 255.912 171.663C255.912 172.643 255.288 173.809 254.04 175.162L251.375 178.052H256.37V179.083ZM263.743 171.731C263.743 172.228 263.611 172.67 263.346 173.057C263.087 173.444 262.734 173.747 262.287 173.966C262.807 174.189 263.217 174.515 263.517 174.943C263.822 175.371 263.975 175.856 263.975 176.398C263.975 177.259 263.683 177.945 263.1 178.455C262.522 178.965 261.759 179.22 260.811 179.22C259.855 179.22 259.087 178.965 258.509 178.455C257.935 177.94 257.648 177.255 257.648 176.398C257.648 175.861 257.794 175.376 258.085 174.943C258.381 174.51 258.789 174.182 259.308 173.959C258.866 173.74 258.518 173.437 258.263 173.05C258.008 172.663 257.88 172.223 257.88 171.731C257.88 170.893 258.149 170.228 258.686 169.736C259.224 169.244 259.932 168.998 260.811 168.998C261.686 168.998 262.392 169.244 262.93 169.736C263.472 170.228 263.743 170.893 263.743 171.731ZM262.711 176.371C262.711 175.815 262.533 175.362 262.178 175.011C261.827 174.66 261.367 174.485 260.798 174.485C260.228 174.485 259.771 174.658 259.424 175.004C259.083 175.351 258.912 175.806 258.912 176.371C258.912 176.936 259.078 177.38 259.411 177.703C259.748 178.027 260.215 178.188 260.811 178.188C261.404 178.188 261.868 178.027 262.205 177.703C262.542 177.375 262.711 176.931 262.711 176.371ZM260.811 170.037C260.315 170.037 259.912 170.192 259.602 170.502C259.297 170.807 259.144 171.224 259.144 171.752C259.144 172.258 259.295 172.668 259.595 172.982C259.9 173.292 260.306 173.447 260.811 173.447C261.317 173.447 261.72 173.292 262.021 172.982C262.326 172.668 262.479 172.258 262.479 171.752C262.479 171.246 262.321 170.834 262.007 170.515C261.693 170.196 261.294 170.037 260.811 170.037Z" fill="black"/>
<path d="M198.768 197.108C210.299 197.108 219.647 187.76 219.647 176.229C219.647 164.698 210.299 155.351 198.768 155.351C187.237 155.351 177.889 164.698 177.889 176.229C177.889 187.76 187.237 197.108 198.768 197.108Z" fill="#18B0DE" stroke="black" stroke-width="0.99953"/>
<path d="M197.259 179.434H190.741V178.525L194.184 174.699C194.694 174.12 195.045 173.651 195.237 173.291C195.432 172.927 195.53 172.551 195.53 172.164C195.53 171.645 195.373 171.219 195.059 170.886C194.745 170.554 194.326 170.387 193.802 170.387C193.173 170.387 192.683 170.567 192.333 170.927C191.986 171.283 191.813 171.779 191.813 172.417H190.549C190.549 171.501 190.843 170.761 191.431 170.196C192.023 169.631 192.813 169.349 193.802 169.349C194.726 169.349 195.457 169.593 195.995 170.08C196.532 170.563 196.801 171.207 196.801 172.014C196.801 172.993 196.177 174.159 194.929 175.512L192.264 178.402H197.259V179.434ZM203.443 175.061C203.178 175.375 202.862 175.628 202.493 175.82C202.128 176.011 201.728 176.106 201.29 176.106C200.716 176.106 200.215 175.965 199.787 175.683C199.364 175.4 199.036 175.004 198.803 174.494C198.571 173.979 198.455 173.412 198.455 172.793C198.455 172.128 198.58 171.529 198.831 170.996C199.086 170.463 199.446 170.055 199.91 169.773C200.375 169.49 200.917 169.349 201.536 169.349C202.52 169.349 203.295 169.718 203.859 170.456C204.429 171.189 204.714 172.191 204.714 173.462V173.831C204.714 175.767 204.331 177.182 203.566 178.074C202.8 178.963 201.646 179.418 200.101 179.441H199.855V178.375H200.122C201.165 178.357 201.967 178.086 202.527 177.562C203.087 177.033 203.393 176.2 203.443 175.061ZM201.495 175.061C201.919 175.061 202.308 174.931 202.664 174.672C203.024 174.412 203.285 174.091 203.449 173.708V173.203C203.449 172.374 203.27 171.699 202.91 171.18C202.55 170.661 202.094 170.401 201.543 170.401C200.987 170.401 200.541 170.615 200.204 171.043C199.867 171.467 199.698 172.027 199.698 172.724C199.698 173.403 199.86 173.963 200.183 174.405C200.511 174.842 200.949 175.061 201.495 175.061Z" fill="black"/>
</svg>
