<svg width="1282" height="198" viewBox="0 0 1282 198" fill="none" xmlns="http://www.w3.org/2000/svg">
<path d="M836.899 29.6787C860.907 39.853 902.655 58.4694 936.359 78.3166C937.658 79.0813 938.972 79.8878 940.287 80.7213" stroke="black" stroke-width="0.99953"/>
<path d="M942.475 77.9768L948.819 86.4558L938.572 83.7838L942.475 77.9768Z" fill="black" stroke="black" stroke-width="0.99953"/>
<path d="M824.982 41.1686C828.356 49.8713 832.401 60.3053 836.12 69.9003" stroke="black" stroke-width="0.99953"/>
<path d="M839.486 68.9038L839.837 79.4878L832.962 71.4328L839.486 68.9038Z" fill="black" stroke="black" stroke-width="0.99953"/>
<path d="M798.102 29.7055C774.303 39.9068 732.912 58.5502 699.471 78.3166C698.174 79.0834 696.861 79.8917 695.547 80.7266" stroke="black" stroke-width="0.99953"/>
<path d="M697.263 83.7883L687.017 86.4657L693.357 77.9833L697.263 83.7883Z" fill="black" stroke="black" stroke-width="0.99953"/>
<path d="M801.69 35.4786C788.057 47.468 768.141 64.9819 752.673 78.5846" stroke="black" stroke-width="0.99953"/>
<path d="M754.862 81.3178L745.046 85.2914L750.242 76.0637L754.862 81.3178Z" fill="black" stroke="black" stroke-width="0.99953"/>
<path d="M810.101 41.1686C806.84 49.8713 802.93 60.3053 799.334 69.9003" stroke="black" stroke-width="0.99953"/>
<path d="M802.525 71.3558L795.741 79.4878L795.973 68.9005L802.525 71.3558Z" fill="black" stroke="black" stroke-width="0.99953"/>
<path d="M833.319 35.4786C847.108 47.468 867.25 64.9819 882.894 78.5846" stroke="black" stroke-width="0.99953"/>
<path d="M885.36 76.093L890.607 85.2914L880.769 81.3729L885.36 76.093Z" fill="black" stroke="black" stroke-width="0.99953"/>
<path d="M1065.39 32.6671C1047.3 43.8924 1018.62 61.9316 994.332 78.3166C993.083 79.1593 991.809 80.0291 990.526 80.9131" stroke="black" stroke-width="0.99953"/>
<path d="M992.294 83.9459L982.101 86.8183L988.278 78.2165L992.294 83.9459Z" fill="black" stroke="black" stroke-width="0.99953"/>
<path d="M1096.09 38.4337C1104.1 48.9455 1114.57 62.6743 1123.51 74.4029" stroke="black" stroke-width="0.99953"/>
<path d="M1126.42 72.4452L1129.69 82.515L1120.85 76.6873L1126.42 72.4452Z" fill="black" stroke="black" stroke-width="0.99953"/>
<path d="M1099.99 33.9099C1103.98 36.738 1108.24 39.6905 1112.28 42.3336C1138.28 59.3708 1146.25 61.2795 1172.25 78.3167C1173.51 79.1426 1174.79 79.9988 1176.08 80.872" stroke="black" stroke-width="0.99953"/>
<path d="M1178.32 78.1652L1184.53 86.7404L1174.33 83.9117L1178.32 78.1652Z" fill="black" stroke="black" stroke-width="0.99953"/>
<path d="M1099.57 34.6585C1103.57 37.4559 1107.95 40.2068 1112.28 42.3336C1161.84 66.6929 1181.65 53.9573 1231.22 78.3167C1232.57 78.9812 1233.93 79.7068 1235.28 80.4757" stroke="black" stroke-width="0.99953"/>
<path d="M1237.38 77.6678L1243.93 85.9916L1233.62 83.5673L1237.38 77.6678Z" fill="black" stroke="black" stroke-width="0.99953"/>
<path d="M1062.96 27.6247C1033.77 36.6016 978.731 55.0268 935.36 78.3166C934.032 79.0295 932.695 79.7942 931.361 80.5943" stroke="black" stroke-width="0.99953"/>
<path d="M933.045 83.6729L922.765 86.2157L929.216 77.8172L933.045 83.6729Z" fill="black" stroke="black" stroke-width="0.99953"/>
<path d="M1070.49 38.4337C1062.48 48.9455 1052.01 62.6743 1043.07 74.4029" stroke="black" stroke-width="0.99953"/>
<path d="M1045.73 76.6873L1036.89 82.515L1040.16 72.4452L1045.73 76.6873Z" fill="black" stroke="black" stroke-width="0.99953"/>
<path d="M1083.29 42.3784C1083.29 50.2684 1083.29 59.4388 1083.29 68.0723" stroke="black" stroke-width="0.99953"/>
<path d="M1086.79 68.2194L1083.29 78.2146L1079.79 68.2193L1086.79 68.2194Z" fill="black" stroke="black" stroke-width="0.99953"/>
<path d="M126.938 38.4337C118.924 48.9455 108.457 62.6743 99.5151 74.4029" stroke="black" stroke-width="0.99953"/>
<path d="M102.173 76.6873L93.3306 82.515L96.6086 72.4452L102.173 76.6873Z" fill="black" stroke="black" stroke-width="0.99953"/>
<path d="M139.734 42.3784C139.734 50.2684 139.734 59.4388 139.734 68.0723" stroke="black" stroke-width="0.99953"/>
<path d="M143.233 68.2194L139.734 78.2146L136.236 68.2193L143.233 68.2194Z" fill="black" stroke="black" stroke-width="0.99953"/>
<path d="M152.53 38.4337C160.544 48.9455 171.011 62.6743 179.953 74.4029" stroke="black" stroke-width="0.99953"/>
<path d="M182.86 72.4452L186.138 82.515L177.296 76.6873L182.86 72.4452Z" fill="black" stroke="black" stroke-width="0.99953"/>
<path d="M152.53 115.784C160.544 126.296 171.011 140.025 179.953 151.753" stroke="black" stroke-width="0.99953"/>
<path d="M182.86 149.796L186.138 159.865L177.296 154.038L182.86 149.796Z" fill="black" stroke="black" stroke-width="0.99953"/>
<path d="M198.707 119.729C198.707 127.619 198.707 136.789 198.707 145.423" stroke="black" stroke-width="0.99953"/>
<path d="M202.205 145.57L198.706 155.565L195.208 145.57L202.205 145.57Z" fill="black" stroke="black" stroke-width="0.99953"/>
<path d="M416.695 32.6671C398.603 43.8924 369.926 61.9316 345.637 78.3166C344.388 79.1593 343.114 80.0291 341.831 80.9131" stroke="black" stroke-width="0.99953"/>
<path d="M343.599 83.9459L333.406 86.8183L339.583 78.2165L343.599 83.9459Z" fill="black" stroke="black" stroke-width="0.99953"/>
<path d="M421.799 38.4337C413.785 48.9455 403.318 62.6743 394.376 74.4029" stroke="black" stroke-width="0.99953"/>
<path d="M397.034 76.6873L388.192 82.515L391.47 72.4452L397.034 76.6873Z" fill="black" stroke="black" stroke-width="0.99953"/>
<path d="M434.595 42.3784C434.595 50.2684 434.595 59.4388 434.595 68.0723" stroke="black" stroke-width="0.99953"/>
<path d="M438.094 68.2194L434.595 78.2146L431.097 68.2193L438.094 68.2194Z" fill="black" stroke="black" stroke-width="0.99953"/>
<path d="M447.392 38.4337C455.406 48.9455 465.873 62.6743 474.814 74.4029" stroke="black" stroke-width="0.99953"/>
<path d="M477.721 72.4452L480.999 82.515L472.157 76.6873L477.721 72.4452Z" fill="black" stroke="black" stroke-width="0.99953"/>
<path d="M452.496 32.6671C470.588 43.8924 499.265 61.9316 523.554 78.3166C524.803 79.1593 526.077 80.0291 527.36 80.9131" stroke="black" stroke-width="0.99953"/>
<path d="M529.608 78.2165L535.785 86.8183L525.592 83.9459L529.608 78.2165Z" fill="black" stroke="black" stroke-width="0.99953"/>
<path d="M611.512 42.3784C611.512 50.2684 611.512 59.4388 611.512 68.0723" stroke="black" stroke-width="0.99953"/>
<path d="M615.011 68.2194L611.512 78.2146L608.014 68.2193L615.011 68.2194Z" fill="black" stroke="black" stroke-width="0.99953"/>
<path d="M244.883 115.784C236.868 126.296 226.402 140.025 217.46 151.753" stroke="black" stroke-width="0.99953"/>
<path d="M220.117 154.038L211.275 159.865L214.553 149.796L220.117 154.038Z" fill="black" stroke="black" stroke-width="0.99953"/>
<path d="M21.7898 42.5287C33.3209 42.5287 42.6686 33.1809 42.6686 21.6498C42.6686 10.1187 33.3209 0.770935 21.7898 0.770935C10.2587 0.770935 0.910889 10.1187 0.910889 21.6498C0.910889 33.1809 10.2587 42.5287 21.7898 42.5287Z" fill="#DEB618" stroke="black" stroke-width="0.99953"/>
<path d="M20.0009 20.6113C20.0009 22.0917 19.7481 23.1918 19.2424 23.9115C18.7368 24.6312 17.9465 24.9911 16.8715 24.9911C15.8101 24.9911 15.0244 24.6403 14.5142 23.9388C14.004 23.2328 13.7398 22.1806 13.7216 20.7821V19.0944C13.7216 17.6322 13.9744 16.5458 14.48 15.8352C14.9856 15.1246 15.7782 14.7693 16.8578 14.7693C17.9283 14.7693 18.7163 15.1132 19.2219 15.8011C19.7276 16.4843 19.9872 17.5411 20.0009 18.9715V20.6113ZM18.7368 18.8826C18.7368 17.8122 18.5865 17.0332 18.2858 16.5458C17.9852 16.0539 17.5092 15.8079 16.8578 15.8079C16.211 15.8079 15.7395 16.0516 15.4434 16.539C15.1474 17.0264 14.9948 17.7757 14.9856 18.787V20.8095C14.9856 21.8845 15.1405 22.6793 15.4503 23.1941C15.7646 23.7043 16.2383 23.9593 16.8715 23.9593C17.4955 23.9593 17.9579 23.7179 18.2585 23.2351C18.5637 22.7522 18.7231 21.9915 18.7368 20.9529V18.8826ZM27.8585 20.6113C27.8585 22.0917 27.6057 23.1918 27.1001 23.9115C26.5944 24.6312 25.8041 24.9911 24.7291 24.9911C23.6678 24.9911 22.882 24.6403 22.3718 23.9388C21.8616 23.2328 21.5974 22.1806 21.5792 20.7821V19.0944C21.5792 17.6322 21.832 16.5458 22.3377 15.8352C22.8433 15.1246 23.6359 14.7693 24.7154 14.7693C25.7859 14.7693 26.5739 15.1132 27.0796 15.8011C27.5852 16.4843 27.8448 17.5411 27.8585 18.9715V20.6113ZM26.5944 18.8826C26.5944 17.8122 26.4441 17.0332 26.1435 16.5458C25.8428 16.0539 25.3668 15.8079 24.7154 15.8079C24.0686 15.8079 23.5972 16.0516 23.3011 16.539C23.005 17.0264 22.8524 17.7757 22.8433 18.787V20.8095C22.8433 21.8845 22.9981 22.6793 23.3079 23.1941C23.6222 23.7043 24.0959 23.9593 24.7291 23.9593C25.3532 23.9593 25.8155 23.7179 26.1161 23.2351C26.4213 22.7522 26.5808 21.9915 26.5944 20.9529V18.8826Z" fill="black"/>
<path d="M80.7619 42.5287C92.293 42.5287 101.641 33.1809 101.641 21.6498C101.641 10.1187 92.293 0.770935 80.7619 0.770935C69.2308 0.770935 59.8831 10.1187 59.8831 21.6498C59.8831 33.1809 69.2308 42.5287 80.7619 42.5287Z" fill="#DEB618" stroke="black" stroke-width="0.99953"/>
<path d="M78.973 20.6113C78.973 22.0917 78.7202 23.1918 78.2146 23.9115C77.709 24.6312 76.9187 24.9911 75.8436 24.9911C74.7823 24.9911 73.9965 24.6403 73.4864 23.9388C72.9762 23.2328 72.712 22.1806 72.6938 20.7821V19.0944C72.6938 17.6322 72.9466 16.5458 73.4522 15.8352C73.9578 15.1246 74.7504 14.7693 75.83 14.7693C76.9004 14.7693 77.6885 15.1132 78.1941 15.8011C78.6997 16.4843 78.9594 17.5411 78.973 18.9715V20.6113ZM77.709 18.8826C77.709 17.8122 77.5587 17.0332 77.258 16.5458C76.9574 16.0539 76.4814 15.8079 75.83 15.8079C75.1831 15.8079 74.7117 16.0516 74.4156 16.539C74.1195 17.0264 73.9669 17.7757 73.9578 18.787V20.8095C73.9578 21.8845 74.1127 22.6793 74.4224 23.1941C74.7367 23.7043 75.2105 23.9593 75.8436 23.9593C76.4677 23.9593 76.93 23.7179 77.2307 23.2351C77.5359 22.7522 77.6953 21.9915 77.709 20.9529V18.8826ZM84.7467 24.8544H83.4758V16.4297L80.9272 17.3658V16.2179L84.5485 14.8582H84.7467V24.8544Z" fill="black"/>
<path d="M80.7619 119.879C92.293 119.879 101.641 110.531 101.641 99.0003C101.641 87.4693 92.293 78.1215 80.7619 78.1215C69.2308 78.1215 59.8831 87.4693 59.8831 99.0003C59.8831 110.531 69.2308 119.879 80.7619 119.879Z" fill="#DEB618" stroke="black" stroke-width="0.99953"/>
<path d="M78.973 97.9618C78.973 99.4423 78.7202 100.542 78.2146 101.262C77.709 101.982 76.9187 102.342 75.8436 102.342C74.7823 102.342 73.9965 101.991 73.4864 101.289C72.9762 100.583 72.712 99.5311 72.6938 98.1327V96.445C72.6938 94.9828 72.9466 93.8964 73.4522 93.1858C73.9578 92.4752 74.7504 92.1199 75.83 92.1199C76.9004 92.1199 77.6885 92.4638 78.1941 93.1516C78.6997 93.8349 78.9594 94.8917 78.973 96.322V97.9618ZM77.709 96.2332C77.709 95.1627 77.5587 94.3838 77.258 93.8964C76.9574 93.4044 76.4814 93.1584 75.83 93.1584C75.1831 93.1584 74.7117 93.4021 74.4156 93.8895C74.1195 94.3769 73.9669 95.1263 73.9578 96.1375V98.16C73.9578 99.235 74.1127 100.03 74.4224 100.545C74.7367 101.055 75.2105 101.31 75.8436 101.31C76.4677 101.31 76.93 101.068 77.2307 100.586C77.5359 100.103 77.6953 99.342 77.709 98.3035V96.2332ZM87.1108 102.205H80.5924V101.296L84.0361 97.4699C84.5463 96.8914 84.897 96.4222 85.0883 96.0623C85.2842 95.6979 85.3821 95.3221 85.3821 94.9349C85.3821 94.4157 85.225 93.9897 84.9107 93.6572C84.5964 93.3247 84.1773 93.1584 83.6534 93.1584C83.0248 93.1584 82.5352 93.3384 82.1844 93.6982C81.8382 94.0535 81.6651 94.55 81.6651 95.1878H80.4011C80.4011 94.2722 80.6949 93.532 81.2825 92.9671C81.8747 92.4023 82.665 92.1199 83.6534 92.1199C84.5781 92.1199 85.3092 92.3636 85.8467 92.851C86.3843 93.3338 86.653 93.9784 86.653 94.7846C86.653 95.764 86.029 96.9301 84.7808 98.283L82.1161 101.173H87.1108V102.205Z" fill="black"/>
<path d="M316.651 119.879C328.182 119.879 337.53 110.531 337.53 99.0003C337.53 87.4693 328.182 78.1215 316.651 78.1215C305.12 78.1215 295.772 87.4693 295.772 99.0003C295.772 110.531 305.12 119.879 316.651 119.879Z" fill="#DEB618" stroke="black" stroke-width="0.99953"/>
<path d="M314.862 97.9618C314.862 99.4423 314.609 100.542 314.104 101.262C313.598 101.982 312.808 102.342 311.733 102.342C310.671 102.342 309.886 101.991 309.376 101.289C308.865 100.583 308.601 99.5311 308.583 98.1327V96.445C308.583 94.9828 308.836 93.8964 309.341 93.1858C309.847 92.4752 310.64 92.1199 311.719 92.1199C312.79 92.1199 313.578 92.4638 314.083 93.1516C314.589 93.8349 314.849 94.8917 314.862 96.322V97.9618ZM313.598 96.2332C313.598 95.1627 313.448 94.3838 313.147 93.8964C312.847 93.4044 312.371 93.1584 311.719 93.1584C311.072 93.1584 310.601 93.4021 310.305 93.8895C310.009 94.3769 309.856 95.1263 309.847 96.1375V98.16C309.847 99.235 310.002 100.03 310.312 100.545C310.626 101.055 311.1 101.31 311.733 101.31C312.357 101.31 312.819 101.068 313.12 100.586C313.425 100.103 313.584 99.342 313.598 98.3035V96.2332ZM318.32 96.6158H319.269C319.866 96.6067 320.335 96.4495 320.677 96.1443C321.018 95.8391 321.189 95.4269 321.189 94.9076C321.189 93.7415 320.609 93.1584 319.447 93.1584C318.9 93.1584 318.463 93.3156 318.135 93.6299C317.812 93.9396 317.65 94.3519 317.65 94.8666H316.386C316.386 94.0786 316.673 93.4249 317.247 92.9056C317.825 92.3818 318.559 92.1199 319.447 92.1199C320.385 92.1199 321.121 92.3681 321.654 92.8646C322.187 93.3611 322.453 94.0512 322.453 94.9349C322.453 95.3677 322.312 95.7868 322.03 96.1922C321.752 96.5976 321.371 96.9005 320.889 97.1009C321.435 97.274 321.857 97.561 322.153 97.9618C322.453 98.3627 322.604 98.8524 322.604 99.4309C322.604 100.324 322.312 101.032 321.729 101.556C321.146 102.08 320.388 102.342 319.454 102.342C318.52 102.342 317.759 102.089 317.172 101.583C316.589 101.078 316.297 100.41 316.297 99.5812H317.568C317.568 100.105 317.739 100.524 318.08 100.838C318.422 101.153 318.88 101.31 319.454 101.31C320.064 101.31 320.531 101.15 320.854 100.832C321.178 100.513 321.34 100.055 321.34 99.4582C321.34 98.8797 321.162 98.4356 320.807 98.1258C320.451 97.8161 319.939 97.6566 319.269 97.6475H318.32V96.6158Z" fill="black"/>
<path d="M611.512 119.879C623.043 119.879 632.391 110.531 632.391 99.0003C632.391 87.4693 623.043 78.1215 611.512 78.1215C599.981 78.1215 590.633 87.4693 590.633 99.0003C590.633 110.531 599.981 119.879 611.512 119.879Z" fill="#DEB618" stroke="black" stroke-width="0.99953"/>
<path d="M609.723 97.9618C609.723 99.4423 609.47 100.542 608.965 101.262C608.459 101.982 607.669 102.342 606.594 102.342C605.533 102.342 604.747 101.991 604.237 101.289C603.726 100.583 603.462 99.5311 603.444 98.1327V96.445C603.444 94.9828 603.697 93.8964 604.202 93.1858C604.708 92.4752 605.501 92.1199 606.58 92.1199C607.651 92.1199 608.439 92.4638 608.944 93.1516C609.45 93.8349 609.71 94.8917 609.723 96.322V97.9618ZM608.459 96.2332C608.459 95.1627 608.309 94.3838 608.008 93.8964C607.708 93.4044 607.232 93.1584 606.58 93.1584C605.933 93.1584 605.462 93.4021 605.166 93.8895C604.87 94.3769 604.717 95.1263 604.708 96.1375V98.16C604.708 99.235 604.863 100.03 605.173 100.545C605.487 101.055 605.961 101.31 606.594 101.31C607.218 101.31 607.68 101.068 607.981 100.586C608.286 100.103 608.446 99.342 608.459 98.3035V96.2332ZM616.679 98.8638H618.059V99.8955H616.679V102.205H615.408V99.8955H610.878V99.1507L615.333 92.2565H616.679V98.8638ZM612.313 98.8638H615.408V93.9852L615.258 94.2585L612.313 98.8638Z" fill="black"/>
<path d="M198.707 197.23C210.238 197.23 219.585 187.882 219.585 176.351C219.585 164.82 210.238 155.472 198.707 155.472C187.175 155.472 177.828 164.82 177.828 176.351C177.828 187.882 187.175 197.23 198.707 197.23Z" fill="#DEB618" stroke="black" stroke-width="0.99953"/>
<path d="M196.918 175.312C196.918 176.793 196.665 177.893 196.159 178.613C195.654 179.332 194.863 179.692 193.788 179.692C192.727 179.692 191.941 179.341 191.431 178.64C190.921 177.934 190.657 176.882 190.638 175.483V173.795C190.638 172.333 190.891 171.247 191.397 170.536C191.902 169.826 192.695 169.47 193.775 169.47C194.845 169.47 195.633 169.814 196.139 170.502C196.644 171.185 196.904 172.242 196.918 173.672V175.312ZM195.654 173.584C195.654 172.513 195.503 171.734 195.203 171.247C194.902 170.755 194.426 170.509 193.775 170.509C193.128 170.509 192.656 170.753 192.36 171.24C192.064 171.727 191.912 172.477 191.902 173.488V175.51C191.902 176.585 192.057 177.38 192.367 177.895C192.681 178.405 193.155 178.66 193.788 178.66C194.412 178.66 194.875 178.419 195.175 177.936C195.48 177.453 195.64 176.693 195.654 175.654V173.584ZM199.118 174.568L199.623 169.607H204.721V170.775H200.696L200.395 173.488C200.883 173.201 201.436 173.058 202.056 173.058C202.962 173.058 203.682 173.358 204.215 173.959C204.748 174.556 205.014 175.365 205.014 176.385C205.014 177.41 204.737 178.218 204.181 178.811C203.63 179.398 202.858 179.692 201.865 179.692C200.985 179.692 200.268 179.448 199.712 178.961C199.156 178.474 198.84 177.799 198.762 176.938H199.958C200.036 177.508 200.238 177.938 200.566 178.23C200.894 178.517 201.327 178.66 201.865 178.66C202.452 178.66 202.912 178.46 203.245 178.059C203.582 177.658 203.75 177.105 203.75 176.399C203.75 175.734 203.568 175.201 203.204 174.8C202.844 174.394 202.363 174.192 201.762 174.192C201.211 174.192 200.778 174.312 200.464 174.554L200.129 174.827L199.118 174.568Z" fill="black"/>
<path d="M965.346 119.879C976.877 119.879 986.225 110.531 986.225 99.0003C986.225 87.4693 976.877 78.1215 965.346 78.1215C953.815 78.1215 944.467 87.4693 944.467 99.0003C944.467 110.531 953.815 119.879 965.346 119.879Z" fill="#DEB618" stroke="black" stroke-width="0.99953"/>
<path d="M963.557 97.9618C963.557 99.4423 963.304 100.542 962.798 101.262C962.293 101.982 961.502 102.342 960.427 102.342C959.366 102.342 958.58 101.991 958.07 101.289C957.56 100.583 957.296 99.5311 957.277 98.1327V96.445C957.277 94.9828 957.53 93.8964 958.036 93.1858C958.542 92.4752 959.334 92.1199 960.414 92.1199C961.484 92.1199 962.272 92.4638 962.778 93.1516C963.283 93.8349 963.543 94.8917 963.557 96.322V97.9618ZM962.293 96.2332C962.293 95.1627 962.142 94.3838 961.842 93.8964C961.541 93.4044 961.065 93.1584 960.414 93.1584C959.767 93.1584 959.295 93.4021 958.999 93.8895C958.703 94.3769 958.551 95.1263 958.542 96.1375V98.16C958.542 99.235 958.696 100.03 959.006 100.545C959.32 101.055 959.794 101.31 960.427 101.31C961.051 101.31 961.514 101.068 961.814 100.586C962.12 100.103 962.279 99.342 962.293 98.3035V96.2332ZM970.137 92.2497V93.3224H969.904C968.92 93.3406 968.137 93.6322 967.554 94.197C966.971 94.7618 966.634 95.5567 966.543 96.5816C967.067 95.9803 967.782 95.6797 968.688 95.6797C969.554 95.6797 970.244 95.9849 970.758 96.5953C971.278 97.2057 971.537 97.9937 971.537 98.9594C971.537 99.9843 971.257 100.804 970.697 101.419C970.141 102.034 969.394 102.342 968.456 102.342C967.504 102.342 966.732 101.977 966.14 101.248C965.547 100.515 965.251 99.5721 965.251 98.4196V97.9345C965.251 96.1033 965.641 94.7049 966.42 93.7392C967.203 92.769 968.367 92.2725 969.911 92.2497H970.137ZM968.476 96.7319C968.044 96.7319 967.645 96.8618 967.281 97.1214C966.916 97.3811 966.663 97.7067 966.522 98.0985V98.5631C966.522 99.383 966.707 100.044 967.076 100.545C967.445 101.046 967.905 101.296 968.456 101.296C969.025 101.296 969.472 101.087 969.795 100.668C970.123 100.249 970.287 99.6996 970.287 99.0209C970.287 98.3376 970.121 97.7865 969.788 97.3674C969.46 96.9438 969.023 96.7319 968.476 96.7319Z" fill="black"/>
<path d="M847.401 119.879C858.932 119.879 868.28 110.531 868.28 99.0003C868.28 87.4693 858.932 78.1215 847.401 78.1215C835.87 78.1215 826.522 87.4693 826.522 99.0003C826.522 110.531 835.87 119.879 847.401 119.879Z" fill="#DEB618" stroke="black" stroke-width="0.99953"/>
<path d="M845.612 97.9618C845.612 99.4423 845.36 100.542 844.854 101.262C844.348 101.982 843.558 102.342 842.483 102.342C841.422 102.342 840.636 101.991 840.126 101.289C839.616 100.583 839.351 99.5311 839.333 98.1327V96.445C839.333 94.9828 839.586 93.8964 840.092 93.1858C840.597 92.4752 841.39 92.1199 842.469 92.1199C843.54 92.1199 844.328 92.4638 844.834 93.1516C845.339 93.8349 845.599 94.8917 845.612 96.322V97.9618ZM844.348 96.2332C844.348 95.1627 844.198 94.3838 843.897 93.8964C843.597 93.4044 843.121 93.1584 842.469 93.1584C841.823 93.1584 841.351 93.4021 841.055 93.8895C840.759 94.3769 840.606 95.1263 840.597 96.1375V98.16C840.597 99.235 840.752 100.03 841.062 100.545C841.376 101.055 841.85 101.31 842.483 101.31C843.107 101.31 843.569 101.068 843.87 100.586C844.175 100.103 844.335 99.342 844.348 98.3035V96.2332ZM853.655 92.9671L849.534 102.205H848.209L852.315 93.2951H846.931V92.2565H853.655V92.9671Z" fill="black"/>
<path d="M670.485 119.879C682.016 119.879 691.363 110.531 691.363 99.0003C691.363 87.4693 682.016 78.1215 670.485 78.1215C658.953 78.1215 649.606 87.4693 649.606 99.0003C649.606 110.531 658.953 119.879 670.485 119.879Z" fill="#DEB618" stroke="black" stroke-width="0.99953"/>
<path d="M668.696 97.9618C668.696 99.4423 668.443 100.542 667.937 101.262C667.432 101.982 666.641 102.342 665.566 102.342C664.505 102.342 663.719 101.991 663.209 101.289C662.699 100.583 662.435 99.5311 662.416 98.1327V96.445C662.416 94.9828 662.669 93.8964 663.175 93.1858C663.68 92.4752 664.473 92.1199 665.553 92.1199C666.623 92.1199 667.411 92.4638 667.917 93.1516C668.422 93.8349 668.682 94.8917 668.696 96.322V97.9618ZM667.432 96.2332C667.432 95.1627 667.281 94.3838 666.981 93.8964C666.68 93.4044 666.204 93.1584 665.553 93.1584C664.906 93.1584 664.434 93.4021 664.138 93.8895C663.842 94.3769 663.69 95.1263 663.68 96.1375V98.16C663.68 99.235 663.835 100.03 664.145 100.545C664.459 101.055 664.933 101.31 665.566 101.31C666.19 101.31 666.653 101.068 666.953 100.586C667.259 100.103 667.418 99.342 667.432 98.3035V96.2332ZM676.348 94.8529C676.348 95.3495 676.216 95.7913 675.952 96.1785C675.692 96.5657 675.339 96.8686 674.893 97.0872C675.412 97.3104 675.822 97.6361 676.123 98.0643C676.428 98.4925 676.581 98.9776 676.581 99.5197C676.581 100.381 676.289 101.066 675.706 101.576C675.128 102.087 674.365 102.342 673.417 102.342C672.461 102.342 671.693 102.087 671.114 101.576C670.541 101.062 670.254 100.376 670.254 99.5197C670.254 98.9822 670.399 98.4971 670.691 98.0643C670.987 97.6316 671.395 97.3036 671.914 97.0804C671.472 96.8618 671.124 96.5589 670.868 96.1717C670.613 95.7845 670.486 95.3449 670.486 94.8529C670.486 94.0148 670.755 93.3497 671.292 92.8578C671.83 92.3658 672.538 92.1199 673.417 92.1199C674.292 92.1199 674.998 92.3658 675.535 92.8578C676.077 93.3497 676.348 94.0148 676.348 94.8529ZM675.317 99.4924C675.317 98.9366 675.139 98.4834 674.784 98.1327C674.433 97.7819 673.973 97.6065 673.403 97.6065C672.834 97.6065 672.376 97.7796 672.03 98.1258C671.688 98.472 671.518 98.9275 671.518 99.4924C671.518 100.057 671.684 100.501 672.016 100.825C672.353 101.148 672.82 101.31 673.417 101.31C674.009 101.31 674.474 101.148 674.811 100.825C675.148 100.497 675.317 100.053 675.317 99.4924ZM673.417 93.1584C672.921 93.1584 672.517 93.3133 672.208 93.6231C671.903 93.9283 671.75 94.345 671.75 94.8734C671.75 95.3791 671.9 95.789 672.201 96.1033C672.506 96.4131 672.911 96.568 673.417 96.568C673.923 96.568 674.326 96.4131 674.626 96.1033C674.932 95.789 675.084 95.3791 675.084 94.8734C675.084 94.3678 674.927 93.9556 674.613 93.6367C674.299 93.3179 673.9 93.1584 673.417 93.1584Z" fill="black"/>
<path d="M729.457 119.879C740.988 119.879 750.336 110.531 750.336 99.0003C750.336 87.4693 740.988 78.1215 729.457 78.1215C717.926 78.1215 708.578 87.4693 708.578 99.0003C708.578 110.531 717.926 119.879 729.457 119.879Z" fill="#DEB618" stroke="black" stroke-width="0.99953"/>
<path d="M727.668 97.9618C727.668 99.4423 727.415 100.542 726.909 101.262C726.404 101.982 725.613 102.342 724.538 102.342C723.477 102.342 722.691 101.991 722.181 101.289C721.671 100.583 721.407 99.5311 721.389 98.1327V96.445C721.389 94.9828 721.641 93.8964 722.147 93.1858C722.653 92.4752 723.445 92.1199 724.525 92.1199C725.595 92.1199 726.383 92.4638 726.889 93.1516C727.395 93.8349 727.654 94.8917 727.668 96.322V97.9618ZM726.404 96.2332C726.404 95.1627 726.253 94.3838 725.953 93.8964C725.652 93.4044 725.176 93.1584 724.525 93.1584C723.878 93.1584 723.407 93.4021 723.11 93.8895C722.814 94.3769 722.662 95.1263 722.653 96.1375V98.16C722.653 99.235 722.808 100.03 723.117 100.545C723.432 101.055 723.905 101.31 724.538 101.31C725.163 101.31 725.625 101.068 725.926 100.586C726.231 100.103 726.39 99.342 726.404 98.3035V96.2332ZM734.132 97.832C733.867 98.1463 733.551 98.3991 733.182 98.5904C732.817 98.7818 732.417 98.8774 731.979 98.8774C731.405 98.8774 730.904 98.7362 730.476 98.4538C730.052 98.1714 729.725 97.7751 729.492 97.2649C729.26 96.7502 729.144 96.1831 729.144 95.5636C729.144 94.8985 729.269 94.2995 729.52 93.7665C729.775 93.2336 730.134 92.8259 730.599 92.5435C731.064 92.2611 731.606 92.1199 732.225 92.1199C733.209 92.1199 733.984 92.4888 734.548 93.2268C735.118 93.9601 735.402 94.9623 735.402 96.2332V96.6021C735.402 98.5381 735.02 99.9524 734.255 100.845C733.489 101.733 732.335 102.189 730.79 102.212H730.544V101.146H730.811C731.854 101.128 732.656 100.857 733.216 100.333C733.776 99.8044 734.082 98.9708 734.132 97.832ZM732.184 97.832C732.608 97.832 732.997 97.7022 733.353 97.4425C733.713 97.1829 733.974 96.8618 734.138 96.4791V95.9735C734.138 95.1445 733.959 94.4703 733.599 93.951C733.239 93.4317 732.783 93.1721 732.232 93.1721C731.676 93.1721 731.23 93.3862 730.893 93.8144C730.556 94.238 730.387 94.7983 730.387 95.4952C730.387 96.1739 730.549 96.7342 730.872 97.1761C731.2 97.6134 731.638 97.832 732.184 97.832Z" fill="black"/>
<path d="M788.429 119.879C799.96 119.879 809.308 110.531 809.308 99.0003C809.308 87.4693 799.96 78.1215 788.429 78.1215C776.898 78.1215 767.55 87.4693 767.55 99.0003C767.55 110.531 776.898 119.879 788.429 119.879Z" fill="#DEB618" stroke="black" stroke-width="0.99953"/>
<path d="M784.556 102.205H783.285V93.7802L780.737 94.7163V93.5684L784.358 92.2087H784.556V102.205ZM794.498 97.9618C794.498 99.4423 794.245 100.542 793.739 101.262C793.234 101.982 792.444 102.342 791.369 102.342C790.307 102.342 789.521 101.991 789.011 101.289C788.501 100.583 788.237 99.5311 788.219 98.1327V96.445C788.219 94.9828 788.471 93.8964 788.977 93.1858C789.483 92.4752 790.275 92.1199 791.355 92.1199C792.425 92.1199 793.213 92.4638 793.719 93.1516C794.225 93.8349 794.484 94.8917 794.498 96.322V97.9618ZM793.234 96.2332C793.234 95.1627 793.084 94.3838 792.783 93.8964C792.482 93.4044 792.006 93.1584 791.355 93.1584C790.708 93.1584 790.237 93.4021 789.94 93.8895C789.644 94.3769 789.492 95.1263 789.483 96.1375V98.16C789.483 99.235 789.638 100.03 789.947 100.545C790.262 101.055 790.735 101.31 791.369 101.31C791.993 101.31 792.455 101.068 792.756 100.586C793.061 100.103 793.22 99.342 793.234 98.3035V96.2332Z" fill="black"/>
<path d="M1142.26 119.879C1153.79 119.879 1163.14 110.531 1163.14 99.0003C1163.14 87.4693 1153.79 78.1215 1142.26 78.1215C1130.73 78.1215 1121.38 87.4693 1121.38 99.0003C1121.38 110.531 1130.73 119.879 1142.26 119.879Z" fill="#DEB618" stroke="black" stroke-width="0.99953"/>
<path d="M1138.39 102.205H1137.12V93.7802L1134.57 94.7163V93.5684L1138.19 92.2087H1138.39V102.205ZM1146.25 102.205H1144.98V93.7802L1142.43 94.7163V93.5684L1146.05 92.2087H1146.25V102.205Z" fill="black"/>
<path d="M1201.23 119.879C1212.77 119.879 1222.11 110.531 1222.11 99.0003C1222.11 87.4693 1212.77 78.1215 1201.23 78.1215C1189.7 78.1215 1180.36 87.4693 1180.36 99.0003C1180.36 110.531 1189.7 119.879 1201.23 119.879Z" fill="#DEB618" stroke="black" stroke-width="0.99953"/>
<path d="M1197.36 102.205H1196.09V93.7802L1193.54 94.7163V93.5684L1197.16 92.2087H1197.36V102.205ZM1207.58 102.205H1201.07V101.296L1204.51 97.4699C1205.02 96.8914 1205.37 96.4222 1205.56 96.0623C1205.76 95.6979 1205.86 95.3221 1205.86 94.9349C1205.86 94.4157 1205.7 93.9897 1205.38 93.6572C1205.07 93.3247 1204.65 93.1584 1204.13 93.1584C1203.5 93.1584 1203.01 93.3384 1202.66 93.6982C1202.31 94.0535 1202.14 94.55 1202.14 95.1878H1200.87C1200.87 94.2722 1201.17 93.532 1201.76 92.9671C1202.35 92.4023 1203.14 92.1199 1204.13 92.1199C1205.05 92.1199 1205.78 92.3636 1206.32 92.851C1206.86 93.3338 1207.13 93.9784 1207.13 94.7846C1207.13 95.764 1206.5 96.9301 1205.25 98.283L1202.59 101.173H1207.58V102.205Z" fill="black"/>
<path d="M1260.21 119.879C1271.74 119.879 1281.09 110.531 1281.09 99.0003C1281.09 87.4693 1271.74 78.1215 1260.21 78.1215C1248.68 78.1215 1239.33 87.4693 1239.33 99.0003C1239.33 110.531 1248.68 119.879 1260.21 119.879Z" fill="#DEB618" stroke="black" stroke-width="0.99953"/>
<path d="M1256.33 102.205H1255.06V93.7802L1252.51 94.7163V93.5684L1256.14 92.2087H1256.33V102.205ZM1261.88 96.6158H1262.83C1263.42 96.6067 1263.89 96.4495 1264.23 96.1443C1264.57 95.8391 1264.75 95.4269 1264.75 94.9076C1264.75 93.7415 1264.16 93.1584 1263 93.1584C1262.46 93.1584 1262.02 93.3156 1261.69 93.6299C1261.37 93.9396 1261.21 94.3519 1261.21 94.8666H1259.94C1259.94 94.0786 1260.23 93.4249 1260.8 92.9056C1261.38 92.3818 1262.11 92.1199 1263 92.1199C1263.94 92.1199 1264.68 92.3681 1265.21 92.8646C1265.74 93.3611 1266.01 94.0512 1266.01 94.9349C1266.01 95.3677 1265.87 95.7868 1265.59 96.1922C1265.31 96.5976 1264.93 96.9005 1264.44 97.1009C1264.99 97.274 1265.41 97.561 1265.71 97.9618C1266.01 98.3627 1266.16 98.8524 1266.16 99.4309C1266.16 100.324 1265.87 101.032 1265.28 101.556C1264.7 102.08 1263.94 102.342 1263.01 102.342C1262.08 102.342 1261.32 102.089 1260.73 101.583C1260.14 101.078 1259.85 100.41 1259.85 99.5812H1261.12C1261.12 100.105 1261.29 100.524 1261.64 100.838C1261.98 101.153 1262.44 101.31 1263.01 101.31C1263.62 101.31 1264.09 101.15 1264.41 100.832C1264.73 100.513 1264.9 100.055 1264.9 99.4582C1264.9 98.8797 1264.72 98.4356 1264.36 98.1258C1264.01 97.8161 1263.49 97.6566 1262.83 97.6475H1261.88V96.6158Z" fill="black"/>
<path d="M375.623 119.879C387.154 119.879 396.502 110.531 396.502 99.0003C396.502 87.4693 387.154 78.1215 375.623 78.1215C364.092 78.1215 354.744 87.4693 354.744 99.0003C354.744 110.531 364.092 119.879 375.623 119.879Z" fill="#DEB618" stroke="black" stroke-width="0.99953"/>
<path d="M371.75 102.205H370.479V93.7802L367.931 94.7163V93.5684L371.552 92.2087H371.75V102.205ZM380.79 98.8638H382.17V99.8955H380.79V102.205H379.519V99.8955H374.989V99.1507L379.444 92.2565H380.79V98.8638ZM376.424 98.8638H379.519V93.9852L379.369 94.2585L376.424 98.8638Z" fill="black"/>
<path d="M434.595 119.879C446.127 119.879 455.474 110.531 455.474 99.0003C455.474 87.4693 446.127 78.1215 434.595 78.1215C423.064 78.1215 413.717 87.4693 413.717 99.0003C413.717 110.531 423.064 119.879 434.595 119.879Z" fill="#DEB618" stroke="black" stroke-width="0.99953"/>
<path d="M430.723 102.205H429.452V93.7802L426.903 94.7163V93.5684L430.524 92.2087H430.723V102.205ZM435.007 97.2171L435.512 92.2565H440.609V93.4249H436.585L436.284 96.1375C436.772 95.8505 437.325 95.707 437.945 95.707C438.851 95.707 439.571 96.0077 440.104 96.609C440.637 97.2057 440.903 98.0142 440.903 99.0346C440.903 100.059 440.625 100.868 440.07 101.46C439.519 102.048 438.746 102.342 437.753 102.342C436.874 102.342 436.157 102.098 435.601 101.611C435.045 101.123 434.729 100.449 434.651 99.588H435.847C435.925 100.157 436.127 100.588 436.455 100.879C436.783 101.166 437.216 101.31 437.753 101.31C438.341 101.31 438.801 101.109 439.134 100.709C439.471 100.308 439.639 99.7543 439.639 99.0482C439.639 98.3832 439.457 97.8502 439.093 97.4494C438.733 97.044 438.252 96.8413 437.651 96.8413C437.1 96.8413 436.667 96.962 436.353 97.2034L436.018 97.4767L435.007 97.2171Z" fill="black"/>
<path d="M493.568 119.879C505.099 119.879 514.447 110.531 514.447 99.0003C514.447 87.4693 505.099 78.1215 493.568 78.1215C482.037 78.1215 472.689 87.4693 472.689 99.0003C472.689 110.531 482.037 119.879 493.568 119.879Z" fill="#DEB618" stroke="black" stroke-width="0.99953"/>
<path d="M489.695 102.205H488.424V93.7802L485.875 94.7163V93.5684L489.497 92.2087H489.695V102.205ZM498.359 92.2497V93.3224H498.127C497.143 93.3406 496.359 93.6322 495.776 94.197C495.193 94.7618 494.856 95.5567 494.765 96.5816C495.289 95.9803 496.004 95.6797 496.91 95.6797C497.776 95.6797 498.466 95.9849 498.981 96.5953C499.5 97.2057 499.76 97.9937 499.76 98.9594C499.76 99.9843 499.479 100.804 498.919 101.419C498.363 102.034 497.616 102.342 496.678 102.342C495.726 102.342 494.954 101.977 494.362 101.248C493.77 100.515 493.473 99.5721 493.473 98.4196V97.9345C493.473 96.1033 493.863 94.7049 494.642 93.7392C495.425 92.769 496.589 92.2725 498.133 92.2497H498.359ZM496.698 96.7319C496.266 96.7319 495.867 96.8618 495.503 97.1214C495.138 97.3811 494.886 97.7067 494.744 98.0985V98.5631C494.744 99.383 494.929 100.044 495.298 100.545C495.667 101.046 496.127 101.296 496.678 101.296C497.247 101.296 497.694 101.087 498.017 100.668C498.345 100.249 498.509 99.6996 498.509 99.0209C498.509 98.3376 498.343 97.7865 498.01 97.3674C497.682 96.9438 497.245 96.7319 496.698 96.7319Z" fill="black"/>
<path d="M552.54 119.879C564.071 119.879 573.419 110.531 573.419 99.0003C573.419 87.4693 564.071 78.1215 552.54 78.1215C541.009 78.1215 531.661 87.4693 531.661 99.0003C531.661 110.531 541.009 119.879 552.54 119.879Z" fill="#DEB618" stroke="black" stroke-width="0.99953"/>
<path d="M548.667 102.205H547.396V93.7802L544.848 94.7163V93.5684L548.469 92.2087H548.667V102.205ZM558.793 92.9671L554.673 102.205H553.348L557.454 93.2951H552.07V92.2565H558.793V92.9671Z" fill="black"/>
<path d="M1142.26 42.5287C1153.79 42.5287 1163.14 33.1809 1163.14 21.6498C1163.14 10.1187 1153.79 0.770935 1142.26 0.770935C1130.73 0.770935 1121.38 10.1187 1121.38 21.6498C1121.38 33.1809 1130.73 42.5287 1142.26 42.5287Z" fill="#DEB618" stroke="black" stroke-width="0.99953"/>
<path d="M1138.39 24.8544H1137.12V16.4297L1134.57 17.3658V16.2179L1138.19 14.8582H1138.39V24.8544ZM1148.13 17.5024C1148.13 17.9989 1147.99 18.4408 1147.73 18.828C1147.47 19.2152 1147.12 19.5181 1146.67 19.7367C1147.19 19.9599 1147.6 20.2856 1147.9 20.7138C1148.21 21.142 1148.36 21.6271 1148.36 22.1692C1148.36 23.0301 1148.07 23.7156 1147.48 24.2258C1146.91 24.736 1146.14 24.9911 1145.2 24.9911C1144.24 24.9911 1143.47 24.736 1142.89 24.2258C1142.32 23.7111 1142.03 23.0255 1142.03 22.1692C1142.03 21.6317 1142.18 21.1465 1142.47 20.7138C1142.77 20.2811 1143.17 19.9531 1143.69 19.7299C1143.25 19.5112 1142.9 19.2083 1142.65 18.8211C1142.39 18.4339 1142.26 17.9944 1142.26 17.5024C1142.26 16.6643 1142.53 15.9992 1143.07 15.5073C1143.61 15.0153 1144.32 14.7693 1145.2 14.7693C1146.07 14.7693 1146.78 15.0153 1147.31 15.5073C1147.86 15.9992 1148.13 16.6643 1148.13 17.5024ZM1147.09 22.1418C1147.09 21.5861 1146.92 21.1329 1146.56 20.7821C1146.21 20.4314 1145.75 20.256 1145.18 20.256C1144.61 20.256 1144.15 20.4291 1143.81 20.7753C1143.47 21.1215 1143.3 21.577 1143.3 22.1418C1143.3 22.7067 1143.46 23.1508 1143.79 23.4742C1144.13 23.7976 1144.6 23.9593 1145.2 23.9593C1145.79 23.9593 1146.25 23.7976 1146.59 23.4742C1146.93 23.1463 1147.09 22.7021 1147.09 22.1418ZM1145.2 15.8079C1144.7 15.8079 1144.3 15.9628 1143.99 16.2725C1143.68 16.5777 1143.53 16.9945 1143.53 17.5229C1143.53 18.0285 1143.68 18.4385 1143.98 18.7528C1144.28 19.0626 1144.69 19.2174 1145.2 19.2174C1145.7 19.2174 1146.1 19.0626 1146.4 18.7528C1146.71 18.4385 1146.86 18.0285 1146.86 17.5229C1146.86 17.0173 1146.71 16.6051 1146.39 16.2862C1146.08 15.9673 1145.68 15.8079 1145.2 15.8079Z" fill="black"/>
<path d="M1201.23 42.5287C1212.77 42.5287 1222.11 33.1809 1222.11 21.6498C1222.11 10.1187 1212.77 0.770935 1201.23 0.770935C1189.7 0.770935 1180.36 10.1187 1180.36 21.6498C1180.36 33.1809 1189.7 42.5287 1201.23 42.5287Z" fill="#DEB618" stroke="black" stroke-width="0.99953"/>
<path d="M1197.36 24.8544H1196.09V16.4297L1193.54 17.3658V16.2179L1197.16 14.8582H1197.36V24.8544ZM1205.91 20.4815C1205.65 20.7958 1205.33 21.0486 1204.96 21.2399C1204.6 21.4312 1204.19 21.5269 1203.76 21.5269C1203.18 21.5269 1202.68 21.3857 1202.25 21.1033C1201.83 20.8208 1201.5 20.4245 1201.27 19.9144C1201.04 19.3996 1200.92 18.8325 1200.92 18.213C1200.92 17.548 1201.05 16.949 1201.3 16.416C1201.55 15.8831 1201.91 15.4754 1202.38 15.193C1202.84 14.9105 1203.38 14.7693 1204 14.7693C1204.99 14.7693 1205.76 15.1383 1206.33 15.8762C1206.9 16.6096 1207.18 17.6117 1207.18 18.8826V19.2516C1207.18 21.1875 1206.8 22.6019 1206.03 23.4947C1205.27 24.383 1204.11 24.8385 1202.57 24.8613H1202.32V23.7954H1202.59C1203.63 23.7771 1204.43 23.5061 1204.99 22.9823C1205.55 22.4539 1205.86 21.6203 1205.91 20.4815ZM1203.96 20.4815C1204.39 20.4815 1204.78 20.3517 1205.13 20.092C1205.49 19.8324 1205.75 19.5112 1205.92 19.1286V18.623C1205.92 17.794 1205.74 17.1198 1205.38 16.6005C1205.02 16.0812 1204.56 15.8216 1204.01 15.8216C1203.45 15.8216 1203.01 16.0357 1202.67 16.4638C1202.33 16.8875 1202.17 17.4478 1202.17 18.1447C1202.17 18.8234 1202.33 19.3837 1202.65 19.8255C1202.98 20.2628 1203.42 20.4815 1203.96 20.4815Z" fill="black"/>
<path d="M817.415 42.5287C828.947 42.5287 838.294 33.1809 838.294 21.6498C838.294 10.1187 828.947 0.770935 817.415 0.770935C805.884 0.770935 796.537 10.1187 796.537 21.6498C796.537 33.1809 805.884 42.5287 817.415 42.5287Z" fill="#18B0DE" stroke="black" stroke-width="0.99953"/>
<path d="M815.907 24.8544H809.388V23.9457L812.832 20.1194C813.342 19.5409 813.693 19.0717 813.884 18.7118C814.08 18.3474 814.178 17.9716 814.178 17.5844C814.178 17.0651 814.021 16.6392 813.707 16.3067C813.392 15.9742 812.973 15.8079 812.449 15.8079C811.821 15.8079 811.331 15.9878 810.98 16.3477C810.634 16.703 810.461 17.1995 810.461 17.8372H809.197C809.197 16.9216 809.491 16.1814 810.078 15.6166C810.671 15.0518 811.461 14.7693 812.449 14.7693C813.374 14.7693 814.105 15.013 814.643 15.5004C815.18 15.9833 815.449 16.6278 815.449 17.4341C815.449 18.4135 814.825 19.5796 813.577 20.9324L810.912 23.8227H815.907V24.8544ZM823.484 20.6113C823.484 22.0917 823.231 23.1918 822.726 23.9115C822.22 24.6312 821.43 24.9911 820.355 24.9911C819.293 24.9911 818.508 24.6403 817.998 23.9388C817.487 23.2328 817.223 22.1806 817.205 20.7821V19.0944C817.205 17.6322 817.458 16.5458 817.963 15.8352C818.469 15.1246 819.262 14.7693 820.341 14.7693C821.412 14.7693 822.2 15.1132 822.705 15.8011C823.211 16.4843 823.471 17.5411 823.484 18.9715V20.6113ZM822.22 18.8826C822.22 17.8122 822.07 17.0332 821.769 16.5458C821.469 16.0539 820.993 15.8079 820.341 15.8079C819.694 15.8079 819.223 16.0516 818.927 16.539C818.631 17.0264 818.478 17.7757 818.469 18.787V20.8095C818.469 21.8845 818.624 22.6793 818.934 23.1941C819.248 23.7043 819.722 23.9593 820.355 23.9593C820.979 23.9593 821.441 23.7179 821.742 23.2351C822.047 22.7522 822.207 21.9915 822.22 20.9529V18.8826Z" fill="black"/>
<path d="M906.373 119.879C917.905 119.879 927.252 110.531 927.252 99.0003C927.252 87.4693 917.905 78.1215 906.373 78.1215C894.842 78.1215 885.495 87.4693 885.495 99.0003C885.495 110.531 894.842 119.879 906.373 119.879Z" fill="#18B0DE" stroke="black" stroke-width="0.99953"/>
<path d="M904.865 102.205H898.346V101.296L901.79 97.4699C902.3 96.8914 902.651 96.4222 902.842 96.0623C903.038 95.6979 903.136 95.3221 903.136 94.9349C903.136 94.4157 902.979 93.9897 902.665 93.6572C902.35 93.3247 901.931 93.1584 901.407 93.1584C900.779 93.1584 900.289 93.3384 899.938 93.6982C899.592 94.0535 899.419 94.55 899.419 95.1878H898.155C898.155 94.2722 898.449 93.532 899.036 92.9671C899.629 92.4023 900.419 92.1199 901.407 92.1199C902.332 92.1199 903.063 92.3636 903.601 92.851C904.138 93.3338 904.407 93.9784 904.407 94.7846C904.407 95.764 903.783 96.9301 902.535 98.283L899.87 101.173H904.865V102.205ZM910.358 102.205H909.087V93.7802L906.539 94.7163V93.5684L910.16 92.2087H910.358V102.205Z" fill="black"/>
<path d="M1083.29 42.5287C1094.82 42.5287 1104.17 33.1809 1104.17 21.6498C1104.17 10.1187 1094.82 0.770935 1083.29 0.770935C1071.76 0.770935 1062.41 10.1187 1062.41 21.6498C1062.41 33.1809 1071.76 42.5287 1083.29 42.5287Z" fill="#18B0DE" stroke="black" stroke-width="0.99953"/>
<path d="M1081.78 24.8544H1075.26V23.9457L1078.71 20.1194C1079.22 19.5409 1079.57 19.0717 1079.76 18.7118C1079.95 18.3474 1080.05 17.9716 1080.05 17.5844C1080.05 17.0651 1079.9 16.6392 1079.58 16.3067C1079.27 15.9742 1078.85 15.8079 1078.32 15.8079C1077.7 15.8079 1077.21 15.9878 1076.86 16.3477C1076.51 16.703 1076.34 17.1995 1076.34 17.8372H1075.07C1075.07 16.9216 1075.37 16.1814 1075.95 15.6166C1076.55 15.0518 1077.34 14.7693 1078.32 14.7693C1079.25 14.7693 1079.98 15.013 1080.52 15.5004C1081.05 15.9833 1081.32 16.6278 1081.32 17.4341C1081.32 18.4135 1080.7 19.5796 1079.45 20.9324L1076.79 23.8227H1081.78V24.8544ZM1089.64 24.8544H1083.12V23.9457L1086.56 20.1194C1087.07 19.5409 1087.43 19.0717 1087.62 18.7118C1087.81 18.3474 1087.91 17.9716 1087.91 17.5844C1087.91 17.0651 1087.75 16.6392 1087.44 16.3067C1087.12 15.9742 1086.71 15.8079 1086.18 15.8079C1085.55 15.8079 1085.06 15.9878 1084.71 16.3477C1084.37 16.703 1084.19 17.1995 1084.19 17.8372H1082.93C1082.93 16.9216 1083.22 16.1814 1083.81 15.6166C1084.4 15.0518 1085.19 14.7693 1086.18 14.7693C1087.11 14.7693 1087.84 15.013 1088.38 15.5004C1088.91 15.9833 1089.18 16.6278 1089.18 17.4341C1089.18 18.4135 1088.56 19.5796 1087.31 20.9324L1084.64 23.8227H1089.64V24.8544Z" fill="black"/>
<path d="M1024.32 119.879C1035.85 119.879 1045.2 110.531 1045.2 99.0003C1045.2 87.4693 1035.85 78.1215 1024.32 78.1215C1012.79 78.1215 1003.44 87.4693 1003.44 99.0003C1003.44 110.531 1012.79 119.879 1024.32 119.879Z" fill="#18B0DE" stroke="black" stroke-width="0.99953"/>
<path d="M1018.13 96.6158H1019.08C1019.68 96.6067 1020.14 96.4495 1020.49 96.1443C1020.83 95.8391 1021 95.4269 1021 94.9076C1021 93.7415 1020.42 93.1584 1019.26 93.1584C1018.71 93.1584 1018.27 93.3156 1017.94 93.6299C1017.62 93.9396 1017.46 94.3519 1017.46 94.8666H1016.2C1016.2 94.0786 1016.48 93.4249 1017.06 92.9056C1017.63 92.3818 1018.37 92.1199 1019.26 92.1199C1020.19 92.1199 1020.93 92.3681 1021.46 92.8646C1022 93.3611 1022.26 94.0512 1022.26 94.9349C1022.26 95.3677 1022.12 95.7868 1021.84 96.1922C1021.56 96.5976 1021.18 96.9005 1020.7 97.1009C1021.24 97.274 1021.67 97.561 1021.96 97.9618C1022.26 98.3627 1022.41 98.8524 1022.41 99.4309C1022.41 100.324 1022.12 101.032 1021.54 101.556C1020.96 102.08 1020.2 102.342 1019.26 102.342C1018.33 102.342 1017.57 102.089 1016.98 101.583C1016.4 101.078 1016.11 100.41 1016.11 99.5812H1017.38C1017.38 100.105 1017.55 100.524 1017.89 100.838C1018.23 101.153 1018.69 101.31 1019.26 101.31C1019.87 101.31 1020.34 101.15 1020.66 100.832C1020.99 100.513 1021.15 100.055 1021.15 99.4582C1021.15 98.8797 1020.97 98.4356 1020.62 98.1258C1020.26 97.8161 1019.75 97.6566 1019.08 97.6475H1018.13V96.6158ZM1030.39 97.9618C1030.39 99.4423 1030.13 100.542 1029.63 101.262C1029.12 101.982 1028.33 102.342 1027.26 102.342C1026.2 102.342 1025.41 101.991 1024.9 101.289C1024.39 100.583 1024.13 99.5311 1024.11 98.1327V96.445C1024.11 94.9828 1024.36 93.8964 1024.87 93.1858C1025.37 92.4752 1026.16 92.1199 1027.24 92.1199C1028.31 92.1199 1029.1 92.4638 1029.61 93.1516C1030.11 93.8349 1030.37 94.8917 1030.39 96.322V97.9618ZM1029.12 96.2332C1029.12 95.1627 1028.97 94.3838 1028.67 93.8964C1028.37 93.4044 1027.9 93.1584 1027.24 93.1584C1026.6 93.1584 1026.13 93.4021 1025.83 93.8895C1025.53 94.3769 1025.38 95.1263 1025.37 96.1375V98.16C1025.37 99.235 1025.53 100.03 1025.84 100.545C1026.15 101.055 1026.62 101.31 1027.26 101.31C1027.88 101.31 1028.34 101.068 1028.64 100.586C1028.95 100.103 1029.11 99.342 1029.12 98.3035V96.2332Z" fill="black"/>
<path d="M1083.29 119.879C1094.82 119.879 1104.17 110.531 1104.17 99.0003C1104.17 87.4693 1094.82 78.1215 1083.29 78.1215C1071.76 78.1215 1062.41 87.4693 1062.41 99.0003C1062.41 110.531 1071.76 119.879 1083.29 119.879Z" fill="#18B0DE" stroke="black" stroke-width="0.99953"/>
<path d="M1081.78 102.205H1075.26V101.296L1078.71 97.4699C1079.22 96.8914 1079.57 96.4222 1079.76 96.0623C1079.95 95.6979 1080.05 95.3221 1080.05 94.9349C1080.05 94.4157 1079.9 93.9897 1079.58 93.6572C1079.27 93.3247 1078.85 93.1584 1078.32 93.1584C1077.7 93.1584 1077.21 93.3384 1076.86 93.6982C1076.51 94.0535 1076.34 94.55 1076.34 95.1878H1075.07C1075.07 94.2722 1075.37 93.532 1075.95 92.9671C1076.55 92.4023 1077.34 92.1199 1078.32 92.1199C1079.25 92.1199 1079.98 92.3636 1080.52 92.851C1081.05 93.3338 1081.32 93.9784 1081.32 94.7846C1081.32 95.764 1080.7 96.9301 1079.45 98.283L1076.79 101.173H1081.78V102.205ZM1084.96 96.6158H1085.91C1086.51 96.6067 1086.97 96.4495 1087.32 96.1443C1087.66 95.8391 1087.83 95.4269 1087.83 94.9076C1087.83 93.7415 1087.25 93.1584 1086.09 93.1584C1085.54 93.1584 1085.1 93.3156 1084.77 93.6299C1084.45 93.9396 1084.29 94.3519 1084.29 94.8666H1083.03C1083.03 94.0786 1083.31 93.4249 1083.89 92.9056C1084.46 92.3818 1085.2 92.1199 1086.09 92.1199C1087.02 92.1199 1087.76 92.3681 1088.29 92.8646C1088.83 93.3611 1089.09 94.0512 1089.09 94.9349C1089.09 95.3677 1088.95 95.7868 1088.67 96.1922C1088.39 96.5976 1088.01 96.9005 1087.53 97.1009C1088.07 97.274 1088.5 97.561 1088.79 97.9618C1089.09 98.3627 1089.24 98.8524 1089.24 99.4309C1089.24 100.324 1088.95 101.032 1088.37 101.556C1087.79 102.08 1087.03 102.342 1086.09 102.342C1085.16 102.342 1084.4 102.089 1083.81 101.583C1083.23 101.078 1082.94 100.41 1082.94 99.5812H1084.21C1084.21 100.105 1084.38 100.524 1084.72 100.838C1085.06 101.153 1085.52 101.31 1086.09 101.31C1086.7 101.31 1087.17 101.15 1087.49 100.832C1087.82 100.513 1087.98 100.055 1087.98 99.4582C1087.98 98.8797 1087.8 98.4356 1087.45 98.1258C1087.09 97.8161 1086.58 97.6566 1085.91 97.6475H1084.96V96.6158Z" fill="black"/>
<path d="M139.734 42.5287C151.265 42.5287 160.613 33.1809 160.613 21.6498C160.613 10.1187 151.265 0.770935 139.734 0.770935C128.203 0.770935 118.855 10.1187 118.855 21.6498C118.855 33.1809 128.203 42.5287 139.734 42.5287Z" fill="#18B0DE" stroke="black" stroke-width="0.99953"/>
<path d="M138.226 24.8544H131.707V23.9457L135.151 20.1194C135.661 19.5409 136.012 19.0717 136.203 18.7118C136.399 18.3474 136.497 17.9716 136.497 17.5844C136.497 17.0651 136.34 16.6392 136.025 16.3067C135.711 15.9742 135.292 15.8079 134.768 15.8079C134.14 15.8079 133.65 15.9878 133.299 16.3477C132.953 16.703 132.78 17.1995 132.78 17.8372H131.516C131.516 16.9216 131.81 16.1814 132.397 15.6166C132.989 15.0518 133.78 14.7693 134.768 14.7693C135.693 14.7693 136.424 15.013 136.962 15.5004C137.499 15.9833 137.768 16.6278 137.768 17.4341C137.768 18.4135 137.144 19.5796 135.896 20.9324L133.231 23.8227H138.226V24.8544ZM144.901 21.5132H146.281V22.545H144.901V24.8544H143.63V22.545H139.1V21.8002L143.555 14.906H144.901V21.5132ZM140.535 21.5132H143.63V16.6347L143.48 16.908L140.535 21.5132Z" fill="black"/>
<path d="M139.734 119.879C151.265 119.879 160.613 110.531 160.613 99.0003C160.613 87.4693 151.265 78.1215 139.734 78.1215C128.203 78.1215 118.855 87.4693 118.855 99.0003C118.855 110.531 128.203 119.879 139.734 119.879Z" fill="#18B0DE" stroke="black" stroke-width="0.99953"/>
<path d="M138.226 102.205H131.707V101.296L135.151 97.4699C135.661 96.8914 136.012 96.4222 136.203 96.0623C136.399 95.6979 136.497 95.3221 136.497 94.9349C136.497 94.4157 136.34 93.9897 136.025 93.6572C135.711 93.3247 135.292 93.1584 134.768 93.1584C134.14 93.1584 133.65 93.3384 133.299 93.6982C132.953 94.0535 132.78 94.55 132.78 95.1878H131.516C131.516 94.2722 131.81 93.532 132.397 92.9671C132.989 92.4023 133.78 92.1199 134.768 92.1199C135.693 92.1199 136.424 92.3636 136.962 92.851C137.499 93.3338 137.768 93.9784 137.768 94.7846C137.768 95.764 137.144 96.9301 135.896 98.283L133.231 101.173H138.226V102.205ZM140.146 97.2171L140.651 92.2565H145.748V93.4249H141.724L141.423 96.1375C141.911 95.8505 142.464 95.707 143.084 95.707C143.99 95.707 144.71 96.0077 145.243 96.609C145.776 97.2057 146.042 98.0142 146.042 99.0346C146.042 100.059 145.764 100.868 145.209 101.46C144.657 102.048 143.885 102.342 142.892 102.342C142.013 102.342 141.296 102.098 140.74 101.611C140.184 101.123 139.868 100.449 139.79 99.588H140.986C141.063 100.157 141.266 100.588 141.594 100.879C141.922 101.166 142.355 101.31 142.892 101.31C143.48 101.31 143.94 101.109 144.273 100.709C144.61 100.308 144.778 99.7543 144.778 99.0482C144.778 98.3832 144.596 97.8502 144.232 97.4494C143.872 97.044 143.391 96.8413 142.79 96.8413C142.239 96.8413 141.806 96.962 141.492 97.2034L141.157 97.4767L140.146 97.2171Z" fill="black"/>
<path d="M198.707 119.879C210.238 119.879 219.585 110.531 219.585 99.0003C219.585 87.4693 210.238 78.1215 198.707 78.1215C187.175 78.1215 177.828 87.4693 177.828 99.0003C177.828 110.531 187.175 119.879 198.707 119.879Z" fill="#18B0DE" stroke="black" stroke-width="0.99953"/>
<path d="M197.198 102.205H190.679V101.296L194.123 97.4699C194.633 96.8914 194.984 96.4222 195.175 96.0623C195.371 95.6979 195.469 95.3221 195.469 94.9349C195.469 94.4157 195.312 93.9897 194.998 93.6572C194.683 93.3247 194.264 93.1584 193.74 93.1584C193.112 93.1584 192.622 93.3384 192.271 93.6982C191.925 94.0535 191.752 94.55 191.752 95.1878H190.488C190.488 94.2722 190.782 93.532 191.369 92.9671C191.962 92.4023 192.752 92.1199 193.74 92.1199C194.665 92.1199 195.396 92.3636 195.934 92.851C196.471 93.3338 196.74 93.9784 196.74 94.7846C196.74 95.764 196.116 96.9301 194.868 98.283L192.203 101.173H197.198V102.205ZM203.498 92.2497V93.3224H203.265C202.281 93.3406 201.498 93.6322 200.915 94.197C200.332 94.7618 199.995 95.5567 199.904 96.5816C200.427 95.9803 201.143 95.6797 202.049 95.6797C202.914 95.6797 203.605 95.9849 204.119 96.5953C204.639 97.2057 204.898 97.9937 204.898 98.9594C204.898 99.9843 204.618 100.804 204.058 101.419C203.502 102.034 202.755 102.342 201.817 102.342C200.865 102.342 200.093 101.977 199.5 101.248C198.908 100.515 198.612 99.5721 198.612 98.4196V97.9345C198.612 96.1033 199.002 94.7049 199.781 93.7392C200.564 92.769 201.728 92.2725 203.272 92.2497H203.498ZM201.837 96.7319C201.404 96.7319 201.006 96.8618 200.641 97.1214C200.277 97.3811 200.024 97.7067 199.883 98.0985V98.5631C199.883 99.383 200.067 100.044 200.436 100.545C200.805 101.046 201.265 101.296 201.817 101.296C202.386 101.296 202.832 101.087 203.156 100.668C203.484 100.249 203.648 99.6996 203.648 99.0209C203.648 98.3376 203.482 97.7865 203.149 97.3674C202.821 96.9438 202.384 96.7319 201.837 96.7319Z" fill="black"/>
<path d="M434.595 42.5287C446.127 42.5287 455.474 33.1809 455.474 21.6498C455.474 10.1187 446.127 0.770935 434.595 0.770935C423.064 0.770935 413.717 10.1187 413.717 21.6498C413.717 33.1809 423.064 42.5287 434.595 42.5287Z" fill="#18B0DE" stroke="black" stroke-width="0.99953"/>
<path d="M433.087 24.8544H426.568V23.9457L430.012 20.1194C430.522 19.5409 430.873 19.0717 431.064 18.7118C431.26 18.3474 431.358 17.9716 431.358 17.5844C431.358 17.0651 431.201 16.6392 430.887 16.3067C430.572 15.9742 430.153 15.8079 429.629 15.8079C429.001 15.8079 428.511 15.9878 428.16 16.3477C427.814 16.703 427.641 17.1995 427.641 17.8372H426.377C426.377 16.9216 426.671 16.1814 427.258 15.6166C427.851 15.0518 428.641 14.7693 429.629 14.7693C430.554 14.7693 431.285 15.013 431.823 15.5004C432.36 15.9833 432.629 16.6278 432.629 17.4341C432.629 18.4135 432.005 19.5796 430.757 20.9324L428.092 23.8227H433.087V24.8544ZM440.849 15.6166L436.729 24.8544H435.403L439.509 15.9446H434.125V14.906H440.849V15.6166Z" fill="black"/>
<path d="M611.512 42.5287C623.043 42.5287 632.391 33.1809 632.391 21.6498C632.391 10.1187 623.043 0.770935 611.512 0.770935C599.981 0.770935 590.633 10.1187 590.633 21.6498C590.633 33.1809 599.981 42.5287 611.512 42.5287Z" fill="#18B0DE" stroke="black" stroke-width="0.99953"/>
<path d="M610.003 24.8544H603.485V23.9457L606.929 20.1194C607.439 19.5409 607.79 19.0717 607.981 18.7118C608.177 18.3474 608.275 17.9716 608.275 17.5844C608.275 17.0651 608.118 16.6392 607.803 16.3067C607.489 15.9742 607.07 15.8079 606.546 15.8079C605.917 15.8079 605.428 15.9878 605.077 16.3477C604.731 16.703 604.558 17.1995 604.558 17.8372H603.294C603.294 16.9216 603.587 16.1814 604.175 15.6166C604.767 15.0518 605.558 14.7693 606.546 14.7693C607.471 14.7693 608.202 15.013 608.739 15.5004C609.277 15.9833 609.546 16.6278 609.546 17.4341C609.546 18.4135 608.922 19.5796 607.673 20.9324L605.009 23.8227H610.003V24.8544ZM617.376 17.5024C617.376 17.9989 617.244 18.4408 616.98 18.828C616.72 19.2152 616.367 19.5181 615.921 19.7367C616.44 19.9599 616.85 20.2856 617.15 20.7138C617.456 21.142 617.608 21.6271 617.608 22.1692C617.608 23.0301 617.317 23.7156 616.734 24.2258C616.155 24.736 615.392 24.9911 614.445 24.9911C613.488 24.9911 612.721 24.736 612.142 24.2258C611.568 23.7111 611.281 23.0255 611.281 22.1692C611.281 21.6317 611.427 21.1465 611.718 20.7138C612.015 20.2811 612.422 19.9531 612.941 19.7299C612.5 19.5112 612.151 19.2083 611.896 18.8211C611.641 18.4339 611.513 17.9944 611.513 17.5024C611.513 16.6643 611.782 15.9992 612.32 15.5073C612.857 15.0153 613.566 14.7693 614.445 14.7693C615.319 14.7693 616.025 15.0153 616.563 15.5073C617.105 15.9992 617.376 16.6643 617.376 17.5024ZM616.344 22.1418C616.344 21.5861 616.167 21.1329 615.811 20.7821C615.46 20.4314 615 20.256 614.431 20.256C613.862 20.256 613.404 20.4291 613.058 20.7753C612.716 21.1215 612.545 21.577 612.545 22.1418C612.545 22.7067 612.711 23.1508 613.044 23.4742C613.381 23.7976 613.848 23.9593 614.445 23.9593C615.037 23.9593 615.501 23.7976 615.839 23.4742C616.176 23.1463 616.344 22.7021 616.344 22.1418ZM614.445 15.8079C613.948 15.8079 613.545 15.9628 613.235 16.2725C612.93 16.5777 612.778 16.9945 612.778 17.5229C612.778 18.0285 612.928 18.4385 613.228 18.7528C613.534 19.0626 613.939 19.2174 614.445 19.2174C614.95 19.2174 615.353 19.0626 615.654 18.7528C615.959 18.4385 616.112 18.0285 616.112 17.5229C616.112 17.0173 615.955 16.6051 615.64 16.2862C615.326 15.9673 614.928 15.8079 614.445 15.8079Z" fill="black"/>
<path d="M257.679 119.879C269.21 119.879 278.558 110.531 278.558 99.0003C278.558 87.4693 269.21 78.1215 257.679 78.1215C246.148 78.1215 236.8 87.4693 236.8 99.0003C236.8 110.531 246.148 119.879 257.679 119.879Z" fill="#18B0DE" stroke="black" stroke-width="0.99953"/>
<path d="M256.17 102.205H249.652V101.296L253.095 97.4699C253.605 96.8914 253.956 96.4222 254.147 96.0623C254.343 95.6979 254.441 95.3221 254.441 94.9349C254.441 94.4157 254.284 93.9897 253.97 93.6572C253.655 93.3247 253.236 93.1584 252.713 93.1584C252.084 93.1584 251.594 93.3384 251.244 93.6982C250.897 94.0535 250.724 94.55 250.724 95.1878H249.46C249.46 94.2722 249.754 93.532 250.342 92.9671C250.934 92.4023 251.724 92.1199 252.713 92.1199C253.637 92.1199 254.368 92.3636 254.906 92.851C255.443 93.3338 255.712 93.9784 255.712 94.7846C255.712 95.764 255.088 96.9301 253.84 98.283L251.175 101.173H256.17V102.205ZM262.354 97.832C262.089 98.1463 261.773 98.3991 261.404 98.5904C261.039 98.7818 260.639 98.8774 260.201 98.8774C259.627 98.8774 259.126 98.7362 258.698 98.4538C258.274 98.1714 257.946 97.7751 257.714 97.2649C257.482 96.7502 257.366 96.1831 257.366 95.5636C257.366 94.8985 257.491 94.2995 257.741 93.7665C257.997 93.2336 258.356 92.8259 258.821 92.5435C259.286 92.2611 259.828 92.1199 260.447 92.1199C261.431 92.1199 262.205 92.4888 262.77 93.2268C263.34 93.9601 263.624 94.9623 263.624 96.2332V96.6021C263.624 98.5381 263.242 99.9524 262.477 100.845C261.711 101.733 260.557 102.189 259.012 102.212H258.766V101.146H259.033C260.076 101.128 260.878 100.857 261.438 100.333C261.998 99.8044 262.303 98.9708 262.354 97.832ZM260.406 97.832C260.83 97.832 261.219 97.7022 261.575 97.4425C261.934 97.1829 262.196 96.8618 262.36 96.4791V95.9735C262.36 95.1445 262.18 94.4703 261.821 93.951C261.461 93.4317 261.005 93.1721 260.454 93.1721C259.898 93.1721 259.452 93.3862 259.115 93.8144C258.778 94.238 258.609 94.7983 258.609 95.4952C258.609 96.1739 258.771 96.7342 259.094 97.1761C259.422 97.6134 259.86 97.832 260.406 97.832Z" fill="black"/>
</svg>
