<svg width="426" height="283" viewBox="0 0 426 283" fill="none" xmlns="http://www.w3.org/2000/svg">
<g clip-path="url(#clip0)">
<path d="M0 282.455H425.316V0H0V282.455Z" fill="white"/>
<path d="M46.9656 244.899H418.116V10.9992H46.9656V244.899Z" fill="white"/>
<path d="M80.4565 244.899V10.9992" stroke="#CCCCCC" stroke-width="0.8" stroke-linecap="round"/>
<path d="M74.2056 258.498H69.5474V257.848L72.0083 255.114C72.3729 254.7 72.6235 254.365 72.7603 254.108C72.9002 253.848 72.9702 253.579 72.9702 253.302C72.9702 252.931 72.8579 252.627 72.6333 252.389C72.4087 252.152 72.1092 252.033 71.7349 252.033C71.2856 252.033 70.9357 252.161 70.6851 252.419C70.4377 252.672 70.314 253.027 70.314 253.483H69.4106C69.4106 252.829 69.6206 252.3 70.0405 251.896C70.4637 251.492 71.0285 251.291 71.7349 251.291C72.3957 251.291 72.9181 251.465 73.3022 251.813C73.6864 252.158 73.8784 252.619 73.8784 253.195C73.8784 253.895 73.4325 254.728 72.5405 255.695L70.6362 257.76H74.2056V258.498ZM79.6206 255.465C79.6206 256.523 79.4399 257.309 79.0786 257.824C78.7173 258.338 78.1525 258.595 77.3843 258.595C76.6258 258.595 76.0643 258.345 75.6997 257.843C75.3351 257.339 75.1463 256.587 75.1333 255.587V254.381C75.1333 253.337 75.314 252.56 75.6753 252.052C76.0366 251.545 76.603 251.291 77.3745 251.291C78.1395 251.291 78.7026 251.536 79.064 252.028C79.4253 252.516 79.6108 253.271 79.6206 254.294V255.465ZM78.7173 254.23C78.7173 253.465 78.6099 252.908 78.395 252.56C78.1802 252.209 77.84 252.033 77.3745 252.033C76.9123 252.033 76.5754 252.207 76.3638 252.555C76.1522 252.904 76.0431 253.439 76.0366 254.162V255.607C76.0366 256.375 76.1473 256.943 76.3687 257.311C76.5933 257.676 76.9318 257.858 77.3843 257.858C77.8302 257.858 78.1606 257.685 78.3755 257.34C78.5936 256.995 78.7075 256.452 78.7173 255.71V254.23ZM83.7466 258.498H82.8384V252.477L81.0171 253.146V252.326L83.605 251.354H83.7466V258.498ZM87.7065 254.504H88.3853C88.8117 254.497 89.147 254.385 89.3911 254.167C89.6353 253.948 89.7573 253.654 89.7573 253.283C89.7573 252.449 89.3423 252.033 88.5122 252.033C88.1216 252.033 87.8091 252.145 87.5747 252.37C87.3436 252.591 87.228 252.886 87.228 253.254H86.3247C86.3247 252.69 86.5298 252.223 86.9399 251.852C87.3534 251.478 87.8774 251.291 88.5122 251.291C89.1828 251.291 89.7085 251.468 90.0894 251.823C90.4702 252.178 90.6606 252.671 90.6606 253.302C90.6606 253.612 90.5597 253.911 90.3579 254.201C90.1593 254.49 89.8875 254.707 89.5425 254.85C89.9331 254.974 90.2342 255.179 90.4458 255.465C90.6606 255.752 90.7681 256.102 90.7681 256.515C90.7681 257.153 90.5597 257.659 90.1431 258.034C89.7264 258.408 89.1844 258.595 88.5171 258.595C87.8498 258.595 87.3062 258.415 86.8862 258.053C86.4696 257.692 86.2612 257.215 86.2612 256.623H87.1694C87.1694 256.997 87.2915 257.296 87.5356 257.521C87.7798 257.746 88.1069 257.858 88.5171 257.858C88.9533 257.858 89.2869 257.744 89.5181 257.516C89.7492 257.288 89.8647 256.961 89.8647 256.535C89.8647 256.121 89.7378 255.804 89.4839 255.583C89.23 255.361 88.8638 255.247 88.3853 255.241H87.7065V254.504Z" fill="#262626"/>
<path d="M120.107 244.899V10.9992" stroke="#CCCCCC" stroke-width="0.8" stroke-linecap="round"/>
<path d="M113.856 258.498H109.198V257.848L111.659 255.114C112.023 254.7 112.274 254.365 112.411 254.108C112.551 253.848 112.621 253.579 112.621 253.302C112.621 252.931 112.508 252.627 112.284 252.389C112.059 252.152 111.76 252.033 111.385 252.033C110.936 252.033 110.586 252.161 110.335 252.419C110.088 252.672 109.964 253.027 109.964 253.483H109.061C109.061 252.829 109.271 252.3 109.691 251.896C110.114 251.492 110.679 251.291 111.385 251.291C112.046 251.291 112.569 251.465 112.953 251.813C113.337 252.158 113.529 252.619 113.529 253.195C113.529 253.895 113.083 254.728 112.191 255.695L110.287 257.76H113.856V258.498ZM119.271 255.465C119.271 256.523 119.09 257.309 118.729 257.824C118.368 258.338 117.803 258.595 117.035 258.595C116.276 258.595 115.715 258.345 115.35 257.843C114.986 257.339 114.797 256.587 114.784 255.587V254.381C114.784 253.337 114.964 252.56 115.326 252.052C115.687 251.545 116.253 251.291 117.025 251.291C117.79 251.291 118.353 251.536 118.714 252.028C119.076 252.516 119.261 253.271 119.271 254.294V255.465ZM118.368 254.23C118.368 253.465 118.26 252.908 118.045 252.56C117.831 252.209 117.49 252.033 117.025 252.033C116.563 252.033 116.226 252.207 116.014 252.555C115.803 252.904 115.694 253.439 115.687 254.162V255.607C115.687 256.375 115.798 256.943 116.019 257.311C116.244 257.676 116.582 257.858 117.035 257.858C117.481 257.858 117.811 257.685 118.026 257.34C118.244 256.995 118.358 256.452 118.368 255.71V254.23ZM123.397 258.498H122.489V252.477L120.667 253.146V252.326L123.255 251.354H123.397V258.498ZM129.857 256.11H130.843V256.847H129.857V258.498H128.949V256.847H125.711V256.315L128.895 251.388H129.857V256.11ZM126.737 256.11H128.949V252.624L128.841 252.819L126.737 256.11Z" fill="#262626"/>
<path d="M159.758 244.899V10.9992" stroke="#CCCCCC" stroke-width="0.8" stroke-linecap="round"/>
<path d="M153.507 258.498H148.848V257.848L151.309 255.114C151.674 254.7 151.925 254.365 152.061 254.108C152.201 253.848 152.271 253.579 152.271 253.302C152.271 252.931 152.159 252.627 151.934 252.389C151.71 252.152 151.41 252.033 151.036 252.033C150.587 252.033 150.237 252.161 149.986 252.419C149.739 252.672 149.615 253.027 149.615 253.483H148.712C148.712 252.829 148.922 252.3 149.342 251.896C149.765 251.492 150.33 251.291 151.036 251.291C151.697 251.291 152.219 251.465 152.603 251.813C152.987 252.158 153.179 252.619 153.179 253.195C153.179 253.895 152.733 254.728 151.842 255.695L149.937 257.76H153.507V258.498ZM158.922 255.465C158.922 256.523 158.741 257.309 158.38 257.824C158.018 258.338 157.454 258.595 156.685 258.595C155.927 258.595 155.365 258.345 155.001 257.843C154.636 257.339 154.447 256.587 154.434 255.587V254.381C154.434 253.337 154.615 252.56 154.976 252.052C155.338 251.545 155.904 251.291 156.676 251.291C157.441 251.291 158.004 251.536 158.365 252.028C158.726 252.516 158.912 253.271 158.922 254.294V255.465ZM158.018 254.23C158.018 253.465 157.911 252.908 157.696 252.56C157.481 252.209 157.141 252.033 156.676 252.033C156.213 252.033 155.876 252.207 155.665 252.555C155.453 252.904 155.344 253.439 155.338 254.162V255.607C155.338 256.375 155.448 256.943 155.67 257.311C155.894 257.676 156.233 257.858 156.685 257.858C157.131 257.858 157.462 257.685 157.677 257.34C157.895 256.995 158.009 256.452 158.018 255.71V254.23ZM163.048 258.498H162.139V252.477L160.318 253.146V252.326L162.906 251.354H163.048V258.498ZM166.109 254.933L166.47 251.388H170.113V252.223H167.237L167.022 254.162C167.371 253.957 167.766 253.854 168.209 253.854C168.857 253.854 169.371 254.069 169.752 254.499C170.133 254.925 170.323 255.503 170.323 256.232C170.323 256.964 170.124 257.542 169.727 257.965C169.333 258.385 168.782 258.595 168.072 258.595C167.444 258.595 166.931 258.421 166.534 258.073C166.137 257.725 165.911 257.243 165.855 256.628H166.71C166.765 257.034 166.91 257.342 167.144 257.55C167.379 257.755 167.688 257.858 168.072 257.858C168.492 257.858 168.821 257.715 169.058 257.428C169.299 257.142 169.42 256.746 169.42 256.242C169.42 255.767 169.289 255.386 169.029 255.099C168.772 254.809 168.428 254.665 167.999 254.665C167.605 254.665 167.296 254.751 167.071 254.923L166.832 255.119L166.109 254.933Z" fill="#262626"/>
<path d="M199.408 244.899V10.9992" stroke="#CCCCCC" stroke-width="0.8" stroke-linecap="round"/>
<path d="M193.157 258.498H188.499V257.848L190.96 255.114C191.324 254.7 191.575 254.365 191.712 254.108C191.852 253.848 191.922 253.579 191.922 253.302C191.922 252.931 191.809 252.627 191.585 252.389C191.36 252.152 191.061 252.033 190.686 252.033C190.237 252.033 189.887 252.161 189.636 252.419C189.389 252.672 189.265 253.027 189.265 253.483H188.362C188.362 252.829 188.572 252.3 188.992 251.896C189.415 251.492 189.98 251.291 190.686 251.291C191.347 251.291 191.87 251.465 192.254 251.813C192.638 252.158 192.83 252.619 192.83 253.195C192.83 253.895 192.384 254.728 191.492 255.695L189.588 257.76H193.157V258.498ZM198.572 255.465C198.572 256.523 198.391 257.309 198.03 257.824C197.669 258.338 197.104 258.595 196.336 258.595C195.577 258.595 195.016 258.345 194.651 257.843C194.287 257.339 194.098 256.587 194.085 255.587V254.381C194.085 253.337 194.265 252.56 194.627 252.052C194.988 251.545 195.554 251.291 196.326 251.291C197.091 251.291 197.654 251.536 198.015 252.028C198.377 252.516 198.562 253.271 198.572 254.294V255.465ZM197.669 254.23C197.669 253.465 197.561 252.908 197.346 252.56C197.132 252.209 196.791 252.033 196.326 252.033C195.864 252.033 195.527 252.207 195.315 252.555C195.104 252.904 194.995 253.439 194.988 254.162V255.607C194.988 256.375 195.099 256.943 195.32 257.311C195.545 257.676 195.883 257.858 196.336 257.858C196.782 257.858 197.112 257.685 197.327 257.34C197.545 256.995 197.659 256.452 197.669 255.71V254.23ZM202.698 258.498H201.79V252.477L199.969 253.146V252.326L202.556 251.354H202.698V258.498ZM208.889 251.383V252.15H208.723C208.02 252.163 207.46 252.371 207.044 252.775C206.627 253.179 206.386 253.747 206.321 254.479C206.695 254.049 207.206 253.835 207.854 253.835C208.473 253.835 208.966 254.053 209.334 254.489C209.705 254.925 209.89 255.488 209.89 256.178C209.89 256.911 209.69 257.497 209.29 257.936C208.893 258.376 208.359 258.595 207.688 258.595C207.008 258.595 206.456 258.335 206.033 257.814C205.61 257.29 205.398 256.616 205.398 255.793V255.446C205.398 254.137 205.677 253.138 206.233 252.448C206.793 251.754 207.625 251.4 208.728 251.383H208.889ZM207.703 254.587C207.394 254.587 207.109 254.679 206.848 254.865C206.588 255.05 206.407 255.283 206.306 255.563V255.895C206.306 256.481 206.438 256.953 206.702 257.311C206.966 257.669 207.294 257.848 207.688 257.848C208.095 257.848 208.414 257.698 208.645 257.399C208.88 257.1 208.997 256.707 208.997 256.222C208.997 255.734 208.878 255.34 208.64 255.041C208.406 254.738 208.094 254.587 207.703 254.587Z" fill="#262626"/>
<path d="M239.167 244.899V10.9992" stroke="#CCCCCC" stroke-width="0.8" stroke-linecap="round"/>
<path d="M232.916 258.498H228.258V257.848L230.719 255.114C231.083 254.7 231.334 254.365 231.471 254.108C231.611 253.848 231.681 253.579 231.681 253.302C231.681 252.931 231.568 252.627 231.344 252.389C231.119 252.152 230.82 252.033 230.445 252.033C229.996 252.033 229.646 252.161 229.396 252.419C229.148 252.672 229.024 253.027 229.024 253.483H228.121C228.121 252.829 228.331 252.3 228.751 251.896C229.174 251.492 229.739 251.291 230.445 251.291C231.106 251.291 231.629 251.465 232.013 251.813C232.397 252.158 232.589 252.619 232.589 253.195C232.589 253.895 232.143 254.728 231.251 255.695L229.347 257.76H232.916V258.498ZM238.331 255.465C238.331 256.523 238.15 257.309 237.789 257.824C237.428 258.338 236.863 258.595 236.095 258.595C235.336 258.595 234.775 258.345 234.41 257.843C234.046 257.339 233.857 256.587 233.844 255.587V254.381C233.844 253.337 234.024 252.56 234.386 252.052C234.747 251.545 235.313 251.291 236.085 251.291C236.85 251.291 237.413 251.536 237.774 252.028C238.136 252.516 238.321 253.271 238.331 254.294V255.465ZM237.428 254.23C237.428 253.465 237.32 252.908 237.105 252.56C236.891 252.209 236.55 252.033 236.085 252.033C235.623 252.033 235.286 252.207 235.074 252.555C234.863 252.904 234.754 253.439 234.747 254.162V255.607C234.747 256.375 234.858 256.943 235.079 257.311C235.304 257.676 235.642 257.858 236.095 257.858C236.541 257.858 236.871 257.685 237.086 257.34C237.304 256.995 237.418 256.452 237.428 255.71V254.23ZM242.457 258.498H241.549V252.477L239.728 253.146V252.326L242.315 251.354H242.457V258.498ZM249.693 251.896L246.749 258.498H245.802L248.736 252.13H244.889V251.388H249.693V251.896Z" fill="#262626"/>
<path d="M278.817 244.899V10.9992" stroke="#CCCCCC" stroke-width="0.8" stroke-linecap="round"/>
<path d="M272.566 258.498H267.908V257.848L270.369 255.114C270.734 254.7 270.984 254.365 271.121 254.108C271.261 253.848 271.331 253.579 271.331 253.302C271.331 252.931 271.219 252.627 270.994 252.389C270.77 252.152 270.47 252.033 270.096 252.033C269.646 252.033 269.297 252.161 269.046 252.419C268.799 252.672 268.675 253.027 268.675 253.483H267.771C267.771 252.829 267.981 252.3 268.401 251.896C268.825 251.492 269.389 251.291 270.096 251.291C270.757 251.291 271.279 251.465 271.663 251.813C272.047 252.158 272.239 252.619 272.239 253.195C272.239 253.895 271.793 254.728 270.901 255.695L268.997 257.76H272.566V258.498ZM277.981 255.465C277.981 256.523 277.801 257.309 277.439 257.824C277.078 258.338 276.513 258.595 275.745 258.595C274.987 258.595 274.425 258.345 274.061 257.843C273.696 257.339 273.507 256.587 273.494 255.587V254.381C273.494 253.337 273.675 252.56 274.036 252.052C274.397 251.545 274.964 251.291 275.735 251.291C276.5 251.291 277.063 251.536 277.425 252.028C277.786 252.516 277.972 253.271 277.981 254.294V255.465ZM277.078 254.23C277.078 253.465 276.971 252.908 276.756 252.56C276.541 252.209 276.201 252.033 275.735 252.033C275.273 252.033 274.936 252.207 274.725 252.555C274.513 252.904 274.404 253.439 274.397 254.162V255.607C274.397 256.375 274.508 256.943 274.729 257.311C274.954 257.676 275.293 257.858 275.745 257.858C276.191 257.858 276.521 257.685 276.736 257.34C276.954 256.995 277.068 256.452 277.078 255.71V254.23ZM282.107 258.498H281.199V252.477L279.378 253.146V252.326L281.966 251.354H282.107V258.498ZM289.065 253.244C289.065 253.599 288.971 253.914 288.782 254.191C288.597 254.468 288.344 254.684 288.025 254.84C288.396 255 288.689 255.233 288.904 255.539C289.122 255.845 289.231 256.191 289.231 256.579C289.231 257.194 289.023 257.684 288.606 258.048C288.193 258.413 287.648 258.595 286.971 258.595C286.287 258.595 285.739 258.413 285.325 258.048C284.915 257.681 284.71 257.191 284.71 256.579C284.71 256.195 284.814 255.848 285.022 255.539C285.234 255.229 285.525 254.995 285.896 254.836C285.581 254.679 285.332 254.463 285.149 254.186C284.967 253.909 284.876 253.595 284.876 253.244C284.876 252.645 285.068 252.17 285.452 251.818C285.836 251.466 286.342 251.291 286.971 251.291C287.596 251.291 288.1 251.466 288.484 251.818C288.872 252.17 289.065 252.645 289.065 253.244ZM288.328 256.559C288.328 256.162 288.201 255.838 287.947 255.587C287.697 255.337 287.368 255.212 286.961 255.212C286.554 255.212 286.227 255.335 285.979 255.583C285.735 255.83 285.613 256.156 285.613 256.559C285.613 256.963 285.732 257.28 285.97 257.511C286.211 257.742 286.544 257.858 286.971 257.858C287.394 257.858 287.726 257.742 287.967 257.511C288.208 257.277 288.328 256.96 288.328 256.559ZM286.971 252.033C286.616 252.033 286.328 252.143 286.106 252.365C285.888 252.583 285.779 252.881 285.779 253.258C285.779 253.62 285.887 253.913 286.102 254.137C286.32 254.359 286.609 254.469 286.971 254.469C287.332 254.469 287.62 254.359 287.835 254.137C288.053 253.913 288.162 253.62 288.162 253.258C288.162 252.897 288.05 252.602 287.825 252.375C287.601 252.147 287.316 252.033 286.971 252.033Z" fill="#262626"/>
<path d="M318.468 244.899V10.9992" stroke="#CCCCCC" stroke-width="0.8" stroke-linecap="round"/>
<path d="M312.217 258.498H307.559V257.848L310.02 255.114C310.384 254.7 310.635 254.365 310.772 254.108C310.912 253.848 310.982 253.579 310.982 253.302C310.982 252.931 310.869 252.627 310.645 252.389C310.42 252.152 310.121 252.033 309.746 252.033C309.297 252.033 308.947 252.161 308.697 252.419C308.449 252.672 308.325 253.027 308.325 253.483H307.422C307.422 252.829 307.632 252.3 308.052 251.896C308.475 251.492 309.04 251.291 309.746 251.291C310.407 251.291 310.93 251.465 311.314 251.813C311.698 252.158 311.89 252.619 311.89 253.195C311.89 253.895 311.444 254.728 310.552 255.695L308.648 257.76H312.217V258.498ZM317.632 255.465C317.632 256.523 317.451 257.309 317.09 257.824C316.729 258.338 316.164 258.595 315.396 258.595C314.637 258.595 314.076 258.345 313.711 257.843C313.347 257.339 313.158 256.587 313.145 255.587V254.381C313.145 253.337 313.325 252.56 313.687 252.052C314.048 251.545 314.615 251.291 315.386 251.291C316.151 251.291 316.714 251.536 317.075 252.028C317.437 252.516 317.622 253.271 317.632 254.294V255.465ZM316.729 254.23C316.729 253.465 316.621 252.908 316.406 252.56C316.192 252.209 315.851 252.033 315.386 252.033C314.924 252.033 314.587 252.207 314.375 252.555C314.164 252.904 314.055 253.439 314.048 254.162V255.607C314.048 256.375 314.159 256.943 314.38 257.311C314.605 257.676 314.943 257.858 315.396 257.858C315.842 257.858 316.172 257.685 316.387 257.34C316.605 256.995 316.719 256.452 316.729 255.71V254.23ZM321.758 258.498H320.85V252.477L319.029 253.146V252.326L321.616 251.354H321.758V258.498ZM327.866 255.373C327.678 255.597 327.451 255.778 327.188 255.915C326.927 256.051 326.641 256.12 326.328 256.12C325.918 256.12 325.56 256.019 325.254 255.817C324.951 255.615 324.717 255.332 324.551 254.967C324.385 254.6 324.302 254.194 324.302 253.752C324.302 253.276 324.392 252.848 324.571 252.467C324.753 252.087 325.01 251.795 325.342 251.593C325.674 251.392 326.061 251.291 326.504 251.291C327.207 251.291 327.761 251.554 328.164 252.082C328.571 252.606 328.775 253.322 328.775 254.23V254.494C328.775 255.877 328.501 256.888 327.954 257.526C327.407 258.161 326.582 258.486 325.479 258.503H325.303V257.741H325.493C326.239 257.728 326.812 257.534 327.212 257.16C327.613 256.782 327.831 256.186 327.866 255.373ZM326.475 255.373C326.778 255.373 327.056 255.28 327.31 255.094C327.567 254.909 327.754 254.679 327.871 254.406V254.045C327.871 253.452 327.743 252.97 327.486 252.599C327.228 252.228 326.903 252.043 326.509 252.043C326.112 252.043 325.793 252.196 325.552 252.502C325.311 252.804 325.191 253.205 325.191 253.703C325.191 254.188 325.306 254.588 325.537 254.904C325.772 255.216 326.084 255.373 326.475 255.373Z" fill="#262626"/>
<path d="M358.118 244.899V10.9992" stroke="#CCCCCC" stroke-width="0.8" stroke-linecap="round"/>
<path d="M351.867 258.498H347.209V257.848L349.67 255.114C350.035 254.7 350.285 254.365 350.422 254.108C350.562 253.848 350.632 253.579 350.632 253.302C350.632 252.931 350.52 252.627 350.295 252.389C350.071 252.152 349.771 252.033 349.397 252.033C348.948 252.033 348.598 252.161 348.347 252.419C348.1 252.672 347.976 253.027 347.976 253.483H347.073C347.073 252.829 347.282 252.3 347.702 251.896C348.126 251.492 348.69 251.291 349.397 251.291C350.058 251.291 350.58 251.465 350.964 251.813C351.348 252.158 351.54 252.619 351.54 253.195C351.54 253.895 351.094 254.728 350.202 255.695L348.298 257.76H351.867V258.498ZM357.282 255.465C357.282 256.523 357.102 257.309 356.74 257.824C356.379 258.338 355.814 258.595 355.046 258.595C354.288 258.595 353.726 258.345 353.362 257.843C352.997 257.339 352.808 256.587 352.795 255.587V254.381C352.795 253.337 352.976 252.56 353.337 252.052C353.698 251.545 354.265 251.291 355.036 251.291C355.801 251.291 356.365 251.536 356.726 252.028C357.087 252.516 357.273 253.271 357.282 254.294V255.465ZM356.379 254.23C356.379 253.465 356.272 252.908 356.057 252.56C355.842 252.209 355.502 252.033 355.036 252.033C354.574 252.033 354.237 252.207 354.026 252.555C353.814 252.904 353.705 253.439 353.698 254.162V255.607C353.698 256.375 353.809 256.943 354.031 257.311C354.255 257.676 354.594 257.858 355.046 257.858C355.492 257.858 355.823 257.685 356.037 257.34C356.255 256.995 356.369 256.452 356.379 255.71V254.23ZM363.098 258.498H358.44V257.848L360.901 255.114C361.265 254.7 361.516 254.365 361.653 254.108C361.793 253.848 361.863 253.579 361.863 253.302C361.863 252.931 361.75 252.627 361.526 252.389C361.301 252.152 361.002 252.033 360.627 252.033C360.178 252.033 359.828 252.161 359.577 252.419C359.33 252.672 359.206 253.027 359.206 253.483H358.303C358.303 252.829 358.513 252.3 358.933 251.896C359.356 251.492 359.921 251.291 360.627 251.291C361.288 251.291 361.81 251.465 362.195 251.813C362.579 252.158 362.771 252.619 362.771 253.195C362.771 253.895 362.325 254.728 361.433 255.695L359.529 257.76H363.098V258.498ZM368.513 255.465C368.513 256.523 368.332 257.309 367.971 257.824C367.61 258.338 367.045 258.595 366.277 258.595C365.518 258.595 364.957 258.345 364.592 257.843C364.227 257.339 364.039 256.587 364.026 255.587V254.381C364.026 253.337 364.206 252.56 364.568 252.052C364.929 251.545 365.495 251.291 366.267 251.291C367.032 251.291 367.595 251.536 367.956 252.028C368.318 252.516 368.503 253.271 368.513 254.294V255.465ZM367.61 254.23C367.61 253.465 367.502 252.908 367.287 252.56C367.073 252.209 366.732 252.033 366.267 252.033C365.805 252.033 365.468 252.207 365.256 252.555C365.045 252.904 364.935 253.439 364.929 254.162V255.607C364.929 256.375 365.04 256.943 365.261 257.311C365.486 257.676 365.824 257.858 366.277 257.858C366.723 257.858 367.053 257.685 367.268 257.34C367.486 256.995 367.6 256.452 367.61 255.71V254.23Z" fill="#262626"/>
<path d="M397.877 244.899V10.9992" stroke="#CCCCCC" stroke-width="0.8" stroke-linecap="round"/>
<path d="M391.626 258.498H386.968V257.848L389.429 255.114C389.794 254.7 390.044 254.365 390.181 254.108C390.321 253.848 390.391 253.579 390.391 253.302C390.391 252.931 390.279 252.627 390.054 252.389C389.83 252.152 389.53 252.033 389.156 252.033C388.707 252.033 388.357 252.161 388.106 252.419C387.859 252.672 387.735 253.027 387.735 253.483H386.832C386.832 252.829 387.042 252.3 387.461 251.896C387.885 251.492 388.449 251.291 389.156 251.291C389.817 251.291 390.339 251.465 390.723 251.813C391.107 252.158 391.299 252.619 391.299 253.195C391.299 253.895 390.853 254.728 389.961 255.695L388.057 257.76H391.626V258.498ZM397.042 255.465C397.042 256.523 396.861 257.309 396.5 257.824C396.138 258.338 395.573 258.595 394.805 258.595C394.047 258.595 393.485 258.345 393.121 257.843C392.756 257.339 392.567 256.587 392.554 255.587V254.381C392.554 253.337 392.735 252.56 393.096 252.052C393.458 251.545 394.024 251.291 394.795 251.291C395.56 251.291 396.124 251.536 396.485 252.028C396.846 252.516 397.032 253.271 397.042 254.294V255.465ZM396.138 254.23C396.138 253.465 396.031 252.908 395.816 252.56C395.601 252.209 395.261 252.033 394.795 252.033C394.333 252.033 393.996 252.207 393.785 252.555C393.573 252.904 393.464 253.439 393.458 254.162V255.607C393.458 256.375 393.568 256.943 393.79 257.311C394.014 257.676 394.353 257.858 394.805 257.858C395.251 257.858 395.582 257.685 395.796 257.34C396.014 256.995 396.128 256.452 396.138 255.71V254.23ZM402.857 258.498H398.199V257.848L400.66 255.114C401.024 254.7 401.275 254.365 401.412 254.108C401.552 253.848 401.622 253.579 401.622 253.302C401.622 252.931 401.509 252.627 401.285 252.389C401.06 252.152 400.761 252.033 400.386 252.033C399.937 252.033 399.587 252.161 399.336 252.419C399.089 252.672 398.965 253.027 398.965 253.483H398.062C398.062 252.829 398.272 252.3 398.692 251.896C399.115 251.492 399.68 251.291 400.386 251.291C401.047 251.291 401.569 251.465 401.954 251.813C402.338 252.158 402.53 252.619 402.53 253.195C402.53 253.895 402.084 254.728 401.192 255.695L399.288 257.76H402.857V258.498ZM406.783 258.498H405.875V252.477L404.053 253.146V252.326L406.641 251.354H406.783V258.498Z" fill="#262626"/>
<path d="M225.534 268.636L227.389 265.066H228.454L226.002 269.524V272.176H225.065V269.524L222.614 265.066H223.688L225.534 268.636ZM231.1 272.273C230.384 272.273 229.801 272.039 229.352 271.57C228.903 271.098 228.678 270.468 228.678 269.681V269.515C228.678 268.991 228.778 268.523 228.976 268.113C229.178 267.7 229.458 267.378 229.816 267.146C230.177 266.912 230.568 266.795 230.988 266.795C231.675 266.795 232.208 267.021 232.589 267.474C232.97 267.926 233.161 268.574 233.161 269.417V269.793H229.582C229.595 270.314 229.746 270.735 230.036 271.058C230.329 271.377 230.7 271.536 231.149 271.536C231.468 271.536 231.738 271.471 231.959 271.341C232.181 271.211 232.375 271.038 232.541 270.823L233.092 271.253C232.65 271.933 231.986 272.273 231.1 272.273ZM230.988 267.537C230.623 267.537 230.317 267.671 230.07 267.938C229.822 268.201 229.669 268.572 229.611 269.051H232.257V268.982C232.231 268.523 232.108 268.169 231.886 267.918C231.665 267.664 231.365 267.537 230.988 267.537ZM237.472 272.176C237.42 272.072 237.378 271.886 237.345 271.619C236.925 272.055 236.424 272.273 235.841 272.273C235.32 272.273 234.892 272.127 234.557 271.834C234.225 271.538 234.059 271.163 234.059 270.711C234.059 270.161 234.267 269.734 234.684 269.432C235.104 269.126 235.693 268.973 236.452 268.973H237.331V268.558C237.331 268.242 237.236 267.991 237.047 267.806C236.859 267.617 236.58 267.522 236.212 267.522C235.89 267.522 235.62 267.604 235.402 267.767C235.184 267.929 235.075 268.126 235.075 268.357H234.167C234.167 268.094 234.259 267.84 234.445 267.596C234.634 267.348 234.888 267.153 235.207 267.01C235.529 266.867 235.882 266.795 236.266 266.795C236.875 266.795 237.352 266.948 237.697 267.254C238.042 267.557 238.221 267.975 238.234 268.509V270.94C238.234 271.425 238.296 271.811 238.419 272.098V272.176H237.472ZM235.973 271.487C236.256 271.487 236.525 271.414 236.779 271.268C237.033 271.121 237.217 270.931 237.331 270.696V269.612H236.623C235.516 269.612 234.962 269.936 234.962 270.584C234.962 270.867 235.057 271.089 235.246 271.248C235.434 271.408 235.677 271.487 235.973 271.487ZM242.204 267.703C242.067 267.68 241.919 267.669 241.759 267.669C241.167 267.669 240.765 267.921 240.553 268.426V272.176H239.65V266.893H240.529L240.543 267.503C240.84 267.031 241.26 266.795 241.803 266.795C241.979 266.795 242.112 266.818 242.204 266.863V267.703Z" fill="#262626"/>
<path d="M46.9656 244.899H418.116" stroke="#CCCCCC" stroke-width="0.8" stroke-linecap="round"/>
<path d="M39.0144 244.666C39.0144 245.724 38.8337 246.51 38.4724 247.025C38.1111 247.539 37.5463 247.796 36.7781 247.796C36.0196 247.796 35.4581 247.545 35.0935 247.044C34.7289 246.54 34.5401 245.788 34.5271 244.788V243.582C34.5271 242.537 34.7078 241.761 35.0691 241.253C35.4304 240.745 35.9968 240.491 36.7683 240.491C37.5333 240.491 38.0964 240.737 38.4578 241.229C38.8191 241.717 39.0046 242.472 39.0144 243.494V244.666ZM38.1111 243.431C38.1111 242.666 38.0037 242.109 37.7888 241.761C37.574 241.409 37.2338 241.234 36.7683 241.234C36.3061 241.234 35.9692 241.408 35.7576 241.756C35.546 242.104 35.4369 242.64 35.4304 243.363V244.808C35.4304 245.576 35.5411 246.144 35.7625 246.512C35.9871 246.877 36.3256 247.059 36.7781 247.059C37.224 247.059 37.5544 246.886 37.7693 246.541C37.9874 246.196 38.1013 245.653 38.1111 244.91V243.431Z" fill="#262626"/>
<path d="M46.9656 198.119H418.116" stroke="#CCCCCC" stroke-width="0.8" stroke-linecap="round"/>
<path d="M33.2146 200.918H28.5564V200.269L31.0173 197.535C31.3819 197.121 31.6326 196.786 31.7693 196.529C31.9093 196.268 31.9792 196 31.9792 195.723C31.9792 195.352 31.8669 195.048 31.6423 194.81C31.4177 194.572 31.1182 194.454 30.7439 194.454C30.2947 194.454 29.9447 194.582 29.6941 194.839C29.4467 195.093 29.323 195.448 29.323 195.904H28.4197C28.4197 195.25 28.6296 194.721 29.0496 194.317C29.4727 193.913 30.0375 193.711 30.7439 193.711C31.4047 193.711 31.9272 193.886 32.3113 194.234C32.6954 194.579 32.8875 195.04 32.8875 195.616C32.8875 196.316 32.4415 197.149 31.5496 198.116L29.6453 200.181H33.2146V200.918ZM38.6296 197.886C38.6296 198.944 38.449 199.73 38.0876 200.245C37.7263 200.759 37.1615 201.016 36.3933 201.016C35.6348 201.016 35.0733 200.765 34.7087 200.264C34.3442 199.76 34.1554 199.008 34.1423 198.008V196.802C34.1423 195.757 34.323 194.981 34.6843 194.473C35.0457 193.965 35.6121 193.711 36.3835 193.711C37.1485 193.711 37.7117 193.957 38.073 194.449C38.4343 194.937 38.6199 195.692 38.6296 196.714V197.886ZM37.7263 196.651C37.7263 195.886 37.6189 195.329 37.4041 194.981C37.1892 194.629 36.849 194.454 36.3835 194.454C35.9213 194.454 35.5844 194.628 35.3728 194.976C35.1612 195.324 35.0522 195.86 35.0457 196.583V198.028C35.0457 198.796 35.1563 199.364 35.3777 199.732C35.6023 200.097 35.9408 200.279 36.3933 200.279C36.8393 200.279 37.1697 200.106 37.3845 199.761C37.6026 199.416 37.7166 198.873 37.7263 198.13V196.651Z" fill="#262626"/>
<path d="M46.9656 151.339H418.116" stroke="#CCCCCC" stroke-width="0.8" stroke-linecap="round"/>
<path d="M32.3699 151.751H33.3562V152.488H32.3699V154.138H31.4617V152.488H28.2244V151.956L31.408 147.029H32.3699V151.751ZM29.2498 151.751H31.4617V148.264L31.3542 148.46L29.2498 151.751ZM38.6296 151.106C38.6296 152.164 38.449 152.95 38.0876 153.465C37.7263 153.979 37.1615 154.236 36.3933 154.236C35.6348 154.236 35.0733 153.985 34.7087 153.484C34.3442 152.98 34.1554 152.228 34.1423 151.228V150.022C34.1423 148.977 34.323 148.201 34.6843 147.693C35.0457 147.185 35.6121 146.931 36.3835 146.931C37.1485 146.931 37.7117 147.177 38.073 147.669C38.4343 148.157 38.6199 148.912 38.6296 149.934V151.106ZM37.7263 149.871C37.7263 149.106 37.6189 148.549 37.4041 148.201C37.1892 147.849 36.849 147.674 36.3835 147.674C35.9213 147.674 35.5844 147.848 35.3728 148.196C35.1612 148.544 35.0522 149.08 35.0457 149.803V151.248C35.0457 152.016 35.1563 152.584 35.3777 152.952C35.6023 153.317 35.9408 153.499 36.3933 153.499C36.8393 153.499 37.1697 153.326 37.3845 152.981C37.6026 152.636 37.7166 152.093 37.7263 151.35V149.871Z" fill="#262626"/>
<path d="M46.9656 104.559H418.116" stroke="#CCCCCC" stroke-width="0.8" stroke-linecap="round"/>
<path d="M32.1013 100.244V101.011H31.9353C31.2322 101.024 30.6723 101.232 30.2556 101.636C29.8389 102.039 29.5981 102.607 29.533 103.34C29.9073 102.91 30.4184 102.695 31.0662 102.695C31.6847 102.695 32.1778 102.913 32.5457 103.35C32.9167 103.786 33.1023 104.349 33.1023 105.039C33.1023 105.772 32.9021 106.357 32.5017 106.797C32.1046 107.236 31.5707 107.456 30.9001 107.456C30.2198 107.456 29.6681 107.196 29.2449 106.675C28.8217 106.151 28.6101 105.477 28.6101 104.653V104.307C28.6101 102.998 28.8884 101.999 29.4451 101.309C30.005 100.615 30.8367 100.26 31.9402 100.244H32.1013ZM30.9148 103.447C30.6056 103.447 30.3207 103.54 30.0603 103.726C29.7999 103.911 29.6192 104.144 29.5183 104.424V104.756C29.5183 105.342 29.6501 105.814 29.9138 106.172C30.1775 106.53 30.5063 106.709 30.9001 106.709C31.307 106.709 31.6261 106.559 31.8572 106.26C32.0916 105.96 32.2087 105.568 32.2087 105.083C32.2087 104.595 32.0899 104.201 31.8523 103.901C31.6179 103.599 31.3054 103.447 30.9148 103.447ZM38.6296 104.326C38.6296 105.384 38.449 106.17 38.0876 106.685C37.7263 107.199 37.1615 107.456 36.3933 107.456C35.6348 107.456 35.0733 107.205 34.7087 106.704C34.3442 106.2 34.1554 105.448 34.1423 104.448V103.242C34.1423 102.197 34.323 101.421 34.6843 100.913C35.0457 100.405 35.6121 100.151 36.3835 100.151C37.1485 100.151 37.7117 100.397 38.073 100.889C38.4343 101.377 38.6199 102.132 38.6296 103.154V104.326ZM37.7263 103.091C37.7263 102.326 37.6189 101.769 37.4041 101.421C37.1892 101.069 36.849 100.894 36.3835 100.894C35.9213 100.894 35.5844 101.068 35.3728 101.416C35.1612 101.764 35.0522 102.3 35.0457 103.022V104.468C35.0457 105.236 35.1563 105.804 35.3777 106.172C35.6023 106.536 35.9408 106.719 36.3933 106.719C36.8393 106.719 37.1697 106.546 37.3845 106.201C37.6026 105.856 37.7166 105.313 37.7263 104.57V103.091Z" fill="#262626"/>
<path d="M46.9656 57.7792H418.116" stroke="#CCCCCC" stroke-width="0.8" stroke-linecap="round"/>
<path d="M32.8679 55.3245C32.8679 55.6793 32.7735 55.9951 32.5847 56.2718C32.3992 56.5485 32.1469 56.765 31.8279 56.9212C32.199 57.0807 32.4919 57.3135 32.7068 57.6195C32.9249 57.9254 33.0339 58.2721 33.0339 58.6595C33.0339 59.2747 32.8256 59.7646 32.4089 60.1292C31.9955 60.4938 31.4503 60.6761 30.7732 60.6761C30.0896 60.6761 29.5411 60.4938 29.1277 60.1292C28.7175 59.7614 28.5125 59.2715 28.5125 58.6595C28.5125 58.2754 28.6166 57.9287 28.825 57.6195C29.0365 57.3102 29.3279 57.0758 29.699 56.9163C29.3832 56.7601 29.1342 56.5436 28.9519 56.2669C28.7696 55.9902 28.6785 55.6761 28.6785 55.3245C28.6785 54.7256 28.8705 54.2503 29.2546 53.8988C29.6388 53.5472 30.1449 53.3714 30.7732 53.3714C31.3982 53.3714 31.9028 53.5472 32.2869 53.8988C32.6742 54.2503 32.8679 54.7256 32.8679 55.3245ZM32.1306 58.64C32.1306 58.2428 32.0037 57.9189 31.7498 57.6683C31.4991 57.4176 31.1703 57.2923 30.7634 57.2923C30.3565 57.2923 30.0294 57.416 29.782 57.6634C29.5378 57.9108 29.4158 58.2363 29.4158 58.64C29.4158 59.0436 29.5346 59.361 29.7722 59.5921C30.0131 59.8232 30.3468 59.9388 30.7732 59.9388C31.1964 59.9388 31.5284 59.8232 31.7693 59.5921C32.0102 59.3577 32.1306 59.0404 32.1306 58.64ZM30.7732 54.1136C30.4184 54.1136 30.1303 54.2243 29.9089 54.4456C29.6908 54.6637 29.5818 54.9616 29.5818 55.3392C29.5818 55.7005 29.6892 55.9935 29.9041 56.2181C30.1222 56.4394 30.4119 56.5501 30.7732 56.5501C31.1345 56.5501 31.4226 56.4394 31.6375 56.2181C31.8556 55.9935 31.9646 55.7005 31.9646 55.3392C31.9646 54.9779 31.8523 54.6833 31.6277 54.4554C31.4031 54.2275 31.1182 54.1136 30.7732 54.1136ZM38.6296 57.5462C38.6296 58.6042 38.449 59.3903 38.0876 59.9046C37.7263 60.4189 37.1615 60.6761 36.3933 60.6761C35.6348 60.6761 35.0733 60.4254 34.7087 59.9241C34.3442 59.4196 34.1554 58.6676 34.1423 57.6683V56.4622C34.1423 55.4173 34.323 54.6409 34.6843 54.1331C35.0457 53.6253 35.6121 53.3714 36.3835 53.3714C37.1485 53.3714 37.7117 53.6172 38.073 54.1087C38.4343 54.597 38.6199 55.3522 38.6296 56.3743V57.5462ZM37.7263 56.3109C37.7263 55.5459 37.6189 54.9892 37.4041 54.6409C37.1892 54.2894 36.849 54.1136 36.3835 54.1136C35.9213 54.1136 35.5844 54.2877 35.3728 54.6361C35.1612 54.9844 35.0522 55.5198 35.0457 56.2425V57.6878C35.0457 58.456 35.1563 59.0241 35.3777 59.3919C35.6023 59.7565 35.9408 59.9388 36.3933 59.9388C36.8393 59.9388 37.1697 59.7663 37.3845 59.4212C37.6026 59.0762 37.7166 58.5325 37.7263 57.7904V56.3109Z" fill="#262626"/>
<path d="M46.9656 10.9992H418.116" stroke="#CCCCCC" stroke-width="0.8" stroke-linecap="round"/>
<path d="M26.5251 13.7984H25.6169V7.77793L23.7957 8.44688V7.62656L26.3835 6.65488H26.5251V13.7984ZM33.6296 10.7662C33.6296 11.8242 33.449 12.6103 33.0876 13.1246C32.7263 13.6389 32.1615 13.8961 31.3933 13.8961C30.6348 13.8961 30.0733 13.6454 29.7087 13.1441C29.3442 12.6396 29.1554 11.8876 29.1423 10.8883V9.68223C29.1423 8.63731 29.323 7.86094 29.6843 7.35313C30.0457 6.84531 30.6121 6.59141 31.3835 6.59141C32.1485 6.59141 32.7117 6.83718 33.073 7.32871C33.4343 7.81699 33.6199 8.5722 33.6296 9.59434V10.7662ZM32.7263 9.53086C32.7263 8.76589 32.6189 8.20925 32.4041 7.86094C32.1892 7.50938 31.849 7.3336 31.3835 7.3336C30.9213 7.3336 30.5844 7.50775 30.3728 7.85606C30.1612 8.20436 30.0522 8.73985 30.0457 9.4625V10.9078C30.0457 11.676 30.1563 12.2441 30.3777 12.6119C30.6023 12.9765 30.9408 13.1588 31.3933 13.1588C31.8393 13.1588 32.1697 12.9863 32.3845 12.6412C32.6026 12.2962 32.7166 11.7525 32.7263 11.0104V9.53086ZM39.2449 10.7662C39.2449 11.8242 39.0642 12.6103 38.7029 13.1246C38.3416 13.6389 37.7768 13.8961 37.0085 13.8961C36.2501 13.8961 35.6886 13.6454 35.324 13.1441C34.9594 12.6396 34.7706 11.8876 34.7576 10.8883V9.68223C34.7576 8.63731 34.9382 7.86094 35.2996 7.35313C35.6609 6.84531 36.2273 6.59141 36.9988 6.59141C37.7638 6.59141 38.3269 6.83718 38.6882 7.32871C39.0496 7.81699 39.2351 8.5722 39.2449 9.59434V10.7662ZM38.3416 9.53086C38.3416 8.76589 38.2341 8.20925 38.0193 7.86094C37.8044 7.50938 37.4643 7.3336 36.9988 7.3336C36.5365 7.3336 36.1996 7.50775 35.988 7.85606C35.7764 8.20436 35.6674 8.73985 35.6609 9.4625V10.9078C35.6609 11.676 35.7716 12.2441 35.9929 12.6119C36.2175 12.9765 36.5561 13.1588 37.0085 13.1588C37.4545 13.1588 37.7849 12.9863 37.9998 12.6412C38.2179 12.2962 38.3318 11.7525 38.3416 11.0104V9.53086Z" fill="#262626"/>
<path d="M6.68896 163.913L12.4897 161.589L6.68896 159.265V158.049H13.7983V158.986H11.0298L8.0415 158.898L13.7983 161.232V161.95L8.05615 164.279L11.0298 164.187H13.7983V165.124H6.68896V163.913ZM13.7983 153.273C13.6942 153.326 13.5086 153.368 13.2417 153.4C13.6779 153.82 13.896 154.322 13.896 154.904C13.896 155.425 13.7495 155.853 13.4565 156.188C13.1603 156.521 12.786 156.687 12.3335 156.687C11.7834 156.687 11.3569 156.478 11.0542 156.062C10.7482 155.642 10.5952 155.052 10.5952 154.294V153.415H10.1802C9.86442 153.415 9.61377 153.509 9.42822 153.698C9.23942 153.887 9.14502 154.165 9.14502 154.533C9.14502 154.855 9.2264 155.126 9.38916 155.344C9.55192 155.562 9.74886 155.671 9.97998 155.671V156.579C9.71631 156.579 9.4624 156.486 9.21826 156.301C8.97087 156.112 8.77555 155.858 8.63232 155.539C8.4891 155.217 8.41748 154.864 8.41748 154.479C8.41748 153.871 8.57048 153.394 8.87646 153.049C9.1792 152.704 9.59749 152.525 10.1313 152.512H12.563C13.048 152.512 13.4338 152.45 13.7202 152.326H13.7983V153.273ZM13.1099 154.772C13.1099 154.489 13.0366 154.221 12.8901 153.967C12.7437 153.713 12.5532 153.529 12.3188 153.415H11.2349V154.123C11.2349 155.23 11.5588 155.783 12.2065 155.783C12.4897 155.783 12.7111 155.689 12.8706 155.5C13.0301 155.311 13.1099 155.069 13.1099 154.772ZM9.32568 148.542C9.3029 148.679 9.2915 148.827 9.2915 148.986C9.2915 149.579 9.54378 149.981 10.0483 150.192H13.7983V151.096H8.51514V150.217L9.12549 150.202C8.65348 149.906 8.41748 149.486 8.41748 148.942C8.41748 148.767 8.44027 148.633 8.48584 148.542H9.32568ZM11.3521 146.232L11.9429 146.799H13.7983V147.702H6.29834V146.799H10.8345L10.2534 146.315L8.51514 144.67V143.571L10.7222 145.627L13.7983 143.332V144.392L11.3521 146.232ZM13.896 140.544C13.896 141.26 13.6616 141.843 13.1929 142.292C12.7209 142.741 12.091 142.966 11.3032 142.966H11.1372C10.6131 142.966 10.146 142.867 9.73584 142.668C9.32243 142.466 9.00016 142.186 8.76904 141.828C8.53467 141.467 8.41748 141.076 8.41748 140.656C8.41748 139.969 8.64372 139.436 9.09619 139.055C9.54867 138.674 10.1965 138.483 11.0396 138.483H11.4155V142.062C11.9364 142.049 12.3579 141.898 12.6802 141.608C12.9992 141.315 13.1587 140.944 13.1587 140.495C13.1587 140.176 13.0936 139.906 12.9634 139.685C12.8332 139.463 12.6606 139.27 12.4458 139.104L12.8755 138.552C13.5558 138.994 13.896 139.659 13.896 140.544ZM9.15967 140.656C9.15967 141.021 9.29313 141.327 9.56006 141.574C9.82373 141.822 10.1948 141.975 10.6733 142.033V139.387H10.605C10.146 139.413 9.79118 139.536 9.54053 139.758C9.28662 139.979 9.15967 140.279 9.15967 140.656ZM7.23584 136.208H8.51514V135.222H9.21338V136.208H12.4897C12.7013 136.208 12.8608 136.164 12.9683 136.076C13.0724 135.988 13.1245 135.839 13.1245 135.627C13.1245 135.523 13.105 135.38 13.0659 135.197H13.7983C13.8634 135.435 13.896 135.666 13.896 135.891C13.896 136.294 13.7739 136.599 13.5298 136.804C13.2856 137.009 12.939 137.111 12.4897 137.111H9.21338V138.073H8.51514V137.111H7.23584V136.208ZM10.6294 129.445C10.3983 130.249 10.1151 130.835 9.77979 131.203C9.44124 131.568 9.02458 131.75 8.52979 131.75C7.96989 131.75 7.50765 131.527 7.14307 131.081C6.77523 130.632 6.59131 130.049 6.59131 129.333C6.59131 128.845 6.68571 128.41 6.87451 128.029C7.06331 127.645 7.32373 127.349 7.65576 127.141C7.98779 126.929 8.35075 126.823 8.74463 126.823V127.766C8.31494 127.766 7.97803 127.902 7.73389 128.176C7.48649 128.449 7.36279 128.835 7.36279 129.333C7.36279 129.795 7.46533 130.157 7.67041 130.417C7.87223 130.674 8.15381 130.803 8.51514 130.803C8.80485 130.803 9.05062 130.681 9.25244 130.437C9.45101 130.189 9.6333 129.771 9.79932 129.182C9.96533 128.589 10.1493 128.127 10.3511 127.795C10.5496 127.46 10.7824 127.212 11.0493 127.053C11.3162 126.89 11.6304 126.809 11.9917 126.809C12.5679 126.809 13.0301 127.033 13.3784 127.482C13.7235 127.932 13.896 128.532 13.896 129.284C13.896 129.772 13.8032 130.228 13.6177 130.651C13.4289 131.075 13.1717 131.402 12.8462 131.633C12.5207 131.861 12.1512 131.975 11.7378 131.975V131.032C12.1675 131.032 12.5076 130.874 12.7583 130.559C13.0057 130.24 13.1294 129.815 13.1294 129.284C13.1294 128.789 13.0285 128.41 12.8267 128.146C12.6248 127.883 12.3498 127.751 12.0015 127.751C11.6532 127.751 11.3846 127.873 11.1958 128.117C11.0037 128.361 10.8149 128.804 10.6294 129.445ZM9.15479 124.841C8.66325 124.44 8.41748 123.92 8.41748 123.278C8.41748 122.162 9.04736 121.599 10.3071 121.589H13.7983L13.7983 122.492H10.3022C9.92139 122.495 9.63981 122.583 9.45752 122.756C9.27523 122.925 9.18408 123.19 9.18408 123.552C9.18408 123.845 9.26221 124.102 9.41846 124.323C9.57471 124.545 9.77979 124.717 10.0337 124.841H13.7983V125.744H6.29834V124.841H9.15479ZM13.7983 116.975C13.6942 117.027 13.5086 117.069 13.2417 117.102C13.6779 117.521 13.896 118.023 13.896 118.605C13.896 119.126 13.7495 119.554 13.4565 119.89C13.1603 120.222 12.786 120.388 12.3335 120.388C11.7834 120.388 11.3569 120.179 11.0542 119.763C10.7482 119.343 10.5952 118.754 10.5952 117.995V117.116H10.1802C9.86442 117.116 9.61377 117.211 9.42822 117.399C9.23942 117.588 9.14502 117.867 9.14502 118.234C9.14502 118.557 9.2264 118.827 9.38916 119.045C9.55192 119.263 9.74886 119.372 9.97998 119.372V120.28C9.71631 120.28 9.4624 120.188 9.21826 120.002C8.97087 119.813 8.77555 119.559 8.63232 119.24C8.4891 118.918 8.41748 118.565 8.41748 118.181C8.41748 117.572 8.57048 117.095 8.87646 116.75C9.1792 116.405 9.59749 116.226 10.1313 116.213H12.563C13.048 116.213 13.4338 116.151 13.7202 116.027H13.7983V116.975ZM13.1099 118.474C13.1099 118.19 13.0366 117.922 12.8901 117.668C12.7437 117.414 12.5532 117.23 12.3188 117.116H11.2349V117.824C11.2349 118.931 11.5588 119.484 12.2065 119.484C12.4897 119.484 12.7111 119.39 12.8706 119.201C13.0301 119.012 13.1099 118.77 13.1099 118.474ZM9.32568 112.243C9.3029 112.38 9.2915 112.528 9.2915 112.688C9.2915 113.28 9.54378 113.682 10.0483 113.894H13.7983V114.797H8.51514V113.918L9.12549 113.903C8.65348 113.607 8.41748 113.187 8.41748 112.644C8.41748 112.468 8.44027 112.334 8.48584 112.243H9.32568ZM13.896 109.313C13.896 110.03 13.6616 110.612 13.1929 111.062C12.7209 111.511 12.091 111.735 11.3032 111.735H11.1372C10.6131 111.735 10.146 111.636 9.73584 111.438C9.32243 111.236 9.00016 110.956 8.76904 110.598C8.53467 110.236 8.41748 109.846 8.41748 109.426C8.41748 108.739 8.64372 108.205 9.09619 107.824C9.54867 107.443 10.1965 107.253 11.0396 107.253H11.4155V110.832C11.9364 110.819 12.3579 110.668 12.6802 110.378C12.9992 110.085 13.1587 109.714 13.1587 109.265C13.1587 108.946 13.0936 108.675 12.9634 108.454C12.8332 108.233 12.6606 108.039 12.4458 107.873L12.8755 107.321C13.5558 107.764 13.896 108.428 13.896 109.313ZM9.15967 109.426C9.15967 109.79 9.29313 110.096 9.56006 110.344C9.82373 110.591 10.1948 110.744 10.6733 110.803V108.156H10.605C10.146 108.182 9.79118 108.306 9.54053 108.527C9.28662 108.749 9.15967 109.048 9.15967 109.426ZM10.9126 103.757C10.1769 103.757 9.47054 103.659 8.79346 103.464C8.11637 103.265 7.50114 102.971 6.94775 102.58C6.39437 102.189 6.00374 101.784 5.77588 101.364L6.37158 101.179C6.73617 101.654 7.29281 102.045 8.0415 102.351C8.7902 102.653 9.62842 102.819 10.5562 102.849L10.9712 102.854C12.2277 102.854 13.3182 102.624 14.2427 102.165C14.7961 101.888 15.229 101.56 15.5415 101.179L16.0933 101.364C15.8524 101.797 15.4487 102.211 14.8823 102.604C13.7756 103.373 12.4523 103.757 10.9126 103.757ZM8.05615 100.476C7.62972 100.476 7.27816 100.34 7.00146 100.07C6.72477 99.7969 6.58643 99.4469 6.58643 99.0205C6.58643 98.5876 6.7264 98.2376 7.00635 97.9707C7.28304 97.7005 7.64274 97.5654 8.08545 97.5654H8.43213C8.86182 97.5654 9.21338 97.7021 9.48682 97.9756C9.757 98.2458 9.89209 98.5908 9.89209 99.0107C9.89209 99.4339 9.757 99.7839 9.48682 100.061C9.21338 100.337 8.85042 100.476 8.39795 100.476H8.05615ZM8.43213 99.8018C8.68604 99.8018 8.896 99.7301 9.06201 99.5869C9.22477 99.4437 9.30615 99.2516 9.30615 99.0107C9.30615 98.7796 9.2264 98.5941 9.06689 98.4541C8.90739 98.3109 8.68929 98.2393 8.4126 98.2393H8.05615C7.80225 98.2393 7.59229 98.3092 7.42627 98.4492C7.26025 98.5892 7.17725 98.7796 7.17725 99.0205C7.17725 99.2614 7.26025 99.4518 7.42627 99.5918C7.59229 99.7318 7.80876 99.8018 8.07568 99.8018H8.43213ZM12.0552 97.0137C11.6287 97.0137 11.2788 96.8786 11.0054 96.6084C10.7287 96.335 10.5903 95.985 10.5903 95.5586C10.5903 95.1322 10.7271 94.7822 11.0005 94.5088C11.2739 94.2354 11.6369 94.0986 12.0894 94.0986H12.436C12.8625 94.0986 13.214 94.2354 13.4907 94.5088C13.7642 94.779 13.9009 95.1257 13.9009 95.5488C13.9009 95.972 13.7658 96.3219 13.4956 96.5986C13.2222 96.8753 12.8592 97.0137 12.4067 97.0137H12.0552ZM12.436 96.3398C12.6932 96.3398 12.9048 96.2682 13.0708 96.125C13.2336 95.9818 13.3149 95.7897 13.3149 95.5488C13.3149 95.3145 13.2352 95.1273 13.0757 94.9873C12.9129 94.8473 12.6932 94.7773 12.4165 94.7773H12.0552C11.798 94.7773 11.5881 94.849 11.4253 94.9922C11.2625 95.1322 11.1812 95.321 11.1812 95.5586C11.1812 95.7897 11.2625 95.9785 11.4253 96.125C11.5848 96.2682 11.8013 96.3398 12.0747 96.3398H12.436ZM13.2612 98.8057L12.939 99.3184L7.38232 95.8467L7.70459 95.334L13.2612 98.8057ZM10.9614 90.8955C11.6873 90.8955 12.384 90.9915 13.0513 91.1836C13.7153 91.3724 14.3289 91.6637 14.8921 92.0576C15.4552 92.4482 15.8556 92.8584 16.0933 93.2881L15.5415 93.4785C15.1574 92.9772 14.5617 92.5752 13.7544 92.2725C12.9438 91.9665 12.0454 91.8102 11.0591 91.8037H10.9028C10.2192 91.8037 9.58447 91.8753 8.99854 92.0186C8.40934 92.1618 7.882 92.362 7.4165 92.6191C6.95101 92.873 6.58805 93.1595 6.32764 93.4785L5.77588 93.2881C6.01351 92.8584 6.41064 92.4499 6.96729 92.0625C7.52393 91.6719 8.13753 91.3805 8.80811 91.1885C9.47868 90.9932 10.1965 90.8955 10.9614 90.8955Z" fill="#262626"/>
<path d="M63.8359 178.916L67.2035 176.483L70.4625 174.285L73.83 170.823L77.089 167.268L80.4565 158.66L83.8241 158.59L86.8658 157.818L90.2334 155.222L93.4923 155.386L96.8599 156.181L100.119 155.222L103.486 152.462L106.854 151.76L110.113 152.766L113.48 148.275L116.739 144.346L120.107 140.533L123.475 133.914L126.516 132.019L129.884 128.066L133.143 122.733L136.51 120.979L139.769 119.739L143.137 116.558L146.504 114.617L149.763 110.57L153.131 104.793L156.39 106.547L159.757 105.074L163.125 102.711L166.167 100.022L169.534 96.5364L172.793 95.2032L176.161 95.788L179.42 95.0161L182.787 91.5544L186.155 88.7242L189.414 87.8354L192.781 91.1567L196.04 90.7591L199.408 89.8703L202.775 89.6364L205.926 85.7537L209.293 85.1923L212.552 83.8825L215.92 84.935L219.179 83.9994L222.546 84.5842L225.914 81.9177L229.173 79.2045L232.54 76.4678L235.799 76.5614L239.167 77.4736L242.535 76.538L245.576 77.4034L248.944 76.8655L252.203 74.9007L255.57 74.4095L258.829 73.24L262.197 74.7604L265.564 72.9359L268.823 74.0353L272.191 73.8949L275.45 72.8892L278.817 70.901L282.185 69.9888L285.227 71.2519L288.594 67.9305L291.853 65.8955L295.221 64.8196L298.48 64.0477L301.847 65.2172L305.215 65.7084L308.474 70.1993L311.841 75.6726L315.1 69.1L318.468 70.7607L321.835 71.4624L324.877 68.7023L328.245 68.9596L331.504 68.679L334.871 67.065L338.13 66.9481L341.498 66.5973L344.865 66.5739L348.124 65.5681L351.492 67.5562L354.751 71.5091L358.118 71.1115L361.486 73.4505L364.636 75.8831L368.004 79.5787L371.263 75.0878L374.63 71.4858L377.889 70.4098L381.257 71.2285L384.624 70.7841L387.883 74.3393L391.251 78.4092L394.51 75.3685L397.877 76.6549L401.245 76.7251" stroke="#001C7F" stroke-width="2" stroke-linecap="round"/>
<path d="M64 188.081L67.3676 190.069L70.6265 189.859L73.9941 189.835L77.253 190.935L80.6206 184.877L83.9882 181.696L87.0299 181.859L90.3974 183.45L93.6564 184.853L97.0239 186.654L100.283 187.356L103.65 190.514L107.018 192.174L110.277 197.297L113.645 194.022L116.903 194.303L120.271 190.256L123.639 191.613L126.68 190.139L130.048 190.958L133.307 190.981L136.674 188.526L139.933 187.099L143.301 190.21L146.668 187.496L149.927 184.619L153.295 191.496L156.554 190.35L159.922 192.128L163.289 191.145L166.331 192.385L169.698 196.735L172.957 198.045H176.325L179.584 197.601L182.951 200.829L186.319 202.91L189.578 203.94L192.945 200.197L196.204 200.408L199.572 199.542L202.94 199.799L206.09 201.32L209.457 201.367L212.716 201.764L216.084 197.788L219.343 198.817L222.71 198.396L226.078 200.01L229.337 200.618L232.705 201.25L235.963 201.156L239.331 199.191L242.699 199.846L245.74 199.729L249.108 198.864L252.367 200.15L255.734 200.08L258.993 201.413L262.361 197.811L265.729 200.033L268.987 198.583L272.355 197.765L275.614 198.77L278.982 199.402L282.349 198.209L285.391 196.618L288.758 200.361L292.017 200.969L295.385 201.109L298.644 199.963L302.011 197.507L305.379 197.016L308.638 193.087L312.005 188.175L315.264 193.929L318.632 191.894L322 190.888L325.041 192.946L328.409 192.104L331.668 192.338L335.035 193.788L338.294 193.858L341.662 193.484L345.029 192.759L348.288 193.671L351.656 191.777L354.915 187.356L358.282 187.426L361.65 184.783L364.8 182.117L368.168 178L371.427 182.842L374.794 186.257L378.053 187.286L381.421 186.514L384.788 186.912L388.047 183.286L391.415 179.403L394.674 182.397L398.042 181.087L401.409 181.415" stroke="#017517" stroke-width="2" stroke-dasharray="2.5 1"/>
<path d="M46.9656 244.899V10.9992" stroke="black" stroke-linecap="square"/>
<path d="M418.115 244.899V10.9992" stroke="#CCCCCC" stroke-width="0.8" stroke-linecap="square"/>
<path d="M46.9656 244.899H418.116" stroke="black" stroke-linecap="square"/>
<path d="M46.9656 10.9992H418.116" stroke="#CCCCCC" stroke-width="0.8" stroke-linecap="square"/>
<path opacity="0.8" d="M338.651 48.3555H411.115C412.449 48.3555 413.115 47.6888 413.115 46.3555V17.9992C413.115 16.6659 412.449 15.9992 411.115 15.9992H338.651C337.318 15.9992 336.651 16.6659 336.651 17.9992V46.3555C336.651 47.6888 337.318 48.3555 338.651 48.3555Z" fill="white" stroke="#CCCCCC"/>
<path d="M340.651 24.0977H360.651" stroke="#001C7F" stroke-width="1.5" stroke-linecap="round"/>
<path d="M373.402 24.7422H370.424L369.755 26.5977H368.788L371.503 19.4883H372.323L375.043 26.5977H374.081L373.402 24.7422ZM370.707 23.9707H373.124L371.913 20.6455L370.707 23.9707ZM376.713 21.3145L376.742 21.9785C377.146 21.4707 377.673 21.2168 378.324 21.2168C379.441 21.2168 380.004 21.8467 380.014 23.1064V26.5977H379.11V23.1016C379.107 22.7207 379.019 22.4391 378.847 22.2568C378.677 22.0745 378.412 21.9834 378.051 21.9834C377.758 21.9834 377.501 22.0615 377.279 22.2178C377.058 22.374 376.885 22.5791 376.762 22.833V26.5977H375.858V21.3145H376.713ZM381.156 23.9121C381.156 23.1016 381.348 22.4505 381.732 21.959C382.117 21.4642 382.619 21.2168 383.241 21.2168C383.86 21.2168 384.35 21.4284 384.711 21.8516V19.0977H385.614V26.5977H384.784L384.74 26.0312C384.379 26.474 383.876 26.6953 383.231 26.6953C382.619 26.6953 382.12 26.4447 381.732 25.9434C381.348 25.4421 381.156 24.7878 381.156 23.9805V23.9121ZM382.06 24.0146C382.06 24.6136 382.183 25.0824 382.431 25.4209C382.678 25.7594 383.02 25.9287 383.456 25.9287C384.029 25.9287 384.447 25.6715 384.711 25.1572V22.7305C384.441 22.2324 384.026 21.9834 383.466 21.9834C383.023 21.9834 382.678 22.1543 382.431 22.4961C382.183 22.8379 382.06 23.3441 382.06 24.0146ZM389.574 22.125C389.438 22.1022 389.289 22.0908 389.13 22.0908C388.537 22.0908 388.135 22.3431 387.924 22.8477V26.5977H387.021V21.3145H387.899L387.914 21.9248C388.21 21.4528 388.63 21.2168 389.174 21.2168C389.35 21.2168 389.483 21.2396 389.574 21.2852V22.125ZM390.072 23.9072C390.072 23.3896 390.173 22.9242 390.375 22.5107C390.58 22.0973 390.863 21.7783 391.225 21.5537C391.589 21.3291 392.004 21.2168 392.47 21.2168C393.189 21.2168 393.77 21.4658 394.213 21.9639C394.659 22.4619 394.882 23.1243 394.882 23.9512V24.0146C394.882 24.529 394.783 24.9912 394.584 25.4014C394.389 25.8083 394.107 26.1257 393.739 26.3535C393.375 26.5814 392.955 26.6953 392.479 26.6953C391.763 26.6953 391.182 26.4463 390.736 25.9482C390.294 25.4502 390.072 24.791 390.072 23.9707V23.9072ZM390.98 24.0146C390.98 24.6006 391.116 25.071 391.386 25.4258C391.659 25.7806 392.024 25.958 392.479 25.958C392.938 25.958 393.303 25.779 393.573 25.4209C393.843 25.0596 393.979 24.555 393.979 23.9072C393.979 23.3278 393.84 22.859 393.563 22.501C393.29 22.1396 392.925 21.959 392.47 21.959C392.024 21.959 391.664 22.1364 391.391 22.4912C391.117 22.846 390.98 23.3538 390.98 24.0146ZM396.996 26.5977H396.093V21.3145H396.996V26.5977ZM396.02 19.9131C396.02 19.7666 396.063 19.6429 396.151 19.542C396.243 19.4411 396.376 19.3906 396.552 19.3906C396.728 19.3906 396.861 19.4411 396.952 19.542C397.043 19.6429 397.089 19.7666 397.089 19.9131C397.089 20.0596 397.043 20.1816 396.952 20.2793C396.861 20.377 396.728 20.4258 396.552 20.4258C396.376 20.4258 396.243 20.377 396.151 20.2793C396.063 20.1816 396.02 20.0596 396.02 19.9131ZM398.227 23.9121C398.227 23.1016 398.419 22.4505 398.803 21.959C399.187 21.4642 399.69 21.2168 400.312 21.2168C400.93 21.2168 401.42 21.4284 401.781 21.8516V19.0977H402.685V26.5977H401.854L401.811 26.0312C401.449 26.474 400.946 26.6953 400.302 26.6953C399.69 26.6953 399.19 26.4447 398.803 25.9434C398.419 25.4421 398.227 24.7878 398.227 23.9805V23.9121ZM399.13 24.0146C399.13 24.6136 399.254 25.0824 399.501 25.4209C399.748 25.7594 400.09 25.9287 400.526 25.9287C401.099 25.9287 401.518 25.6715 401.781 25.1572V22.7305C401.511 22.2324 401.096 21.9834 400.536 21.9834C400.093 21.9834 399.748 22.1543 399.501 22.4961C399.254 22.8379 399.13 23.3441 399.13 24.0146Z" fill="#262626"/>
<path d="M340.651 38.7758H360.651" stroke="#017517" stroke-width="1.5" stroke-dasharray="2.5 2"/>
<path d="M370.316 41.2758H369.413V35.9926H370.316V41.2758ZM369.34 34.5912C369.34 34.4447 369.384 34.321 369.472 34.2201C369.563 34.1192 369.696 34.0688 369.872 34.0688C370.048 34.0688 370.181 34.1192 370.272 34.2201C370.364 34.321 370.409 34.4447 370.409 34.5912C370.409 34.7377 370.364 34.8598 370.272 34.9574C370.181 35.0551 370.048 35.1039 369.872 35.1039C369.696 35.1039 369.563 35.0551 369.472 34.9574C369.384 34.8598 369.34 34.7377 369.34 34.5912ZM377.377 37.9506C377.377 38.6472 377.26 39.2559 377.025 39.7768C376.791 40.2943 376.459 40.6898 376.029 40.9633C375.6 41.2367 375.098 41.3734 374.525 41.3734C373.965 41.3734 373.469 41.2367 373.036 40.9633C372.603 40.6866 372.266 40.2943 372.025 39.7865C371.788 39.2755 371.666 38.6846 371.659 38.0141V37.5014C371.659 36.8178 371.778 36.2139 372.016 35.6898C372.253 35.1658 372.589 34.7654 373.021 34.4887C373.458 34.2087 373.956 34.0688 374.516 34.0688C375.085 34.0688 375.587 34.2071 376.02 34.4838C376.456 34.7572 376.791 35.156 377.025 35.6801C377.26 36.2009 377.377 36.808 377.377 37.5014V37.9506ZM376.444 37.4916C376.444 36.6485 376.275 36.0023 375.937 35.5531C375.598 35.1007 375.124 34.8744 374.516 34.8744C373.923 34.8744 373.456 35.1007 373.114 35.5531C372.776 36.0023 372.602 36.6273 372.592 37.4281V37.9506C372.592 38.7676 372.763 39.4105 373.104 39.8793C373.45 40.3448 373.923 40.5775 374.525 40.5775C375.131 40.5775 375.6 40.3578 375.932 39.9184C376.264 39.4757 376.435 38.8425 376.444 38.0189V37.4916ZM380.878 38.1068C380.074 37.8757 379.488 37.5925 379.12 37.2572C378.756 36.9187 378.573 36.502 378.573 36.0072C378.573 35.4473 378.796 34.9851 379.242 34.6205C379.691 34.2527 380.274 34.0688 380.99 34.0688C381.479 34.0688 381.913 34.1632 382.294 34.352C382.678 34.5408 382.974 34.8012 383.183 35.1332C383.394 35.4652 383.5 35.8282 383.5 36.2221H382.558C382.558 35.7924 382.421 35.4555 382.147 35.2113C381.874 34.9639 381.488 34.8402 380.99 34.8402C380.528 34.8402 380.167 34.9428 379.906 35.1479C379.649 35.3497 379.521 35.6313 379.521 35.9926C379.521 36.2823 379.643 36.5281 379.887 36.7299C380.134 36.9285 380.552 37.1107 381.142 37.2768C381.734 37.4428 382.196 37.6267 382.528 37.8285C382.864 38.0271 383.111 38.2598 383.271 38.5268C383.433 38.7937 383.515 39.1078 383.515 39.4691C383.515 40.0453 383.29 40.5076 382.841 40.8559C382.392 41.2009 381.791 41.3734 381.039 41.3734C380.551 41.3734 380.095 41.2807 379.672 41.0951C379.249 40.9063 378.922 40.6492 378.69 40.3236C378.463 39.9981 378.349 39.6286 378.349 39.2152H379.291C379.291 39.6449 379.449 39.9851 379.765 40.2357C380.084 40.4831 380.508 40.6068 381.039 40.6068C381.534 40.6068 381.913 40.5059 382.177 40.3041C382.44 40.1023 382.572 39.8272 382.572 39.4789C382.572 39.1306 382.45 38.862 382.206 38.6732C381.962 38.4812 381.519 38.2924 380.878 38.1068Z" fill="#262626"/>
</g>
<defs>
<clipPath id="clip0">
<rect width="425.316" height="282.455" fill="white"/>
</clipPath>
</defs>
</svg>
